<svg version="1.1" viewBox="0.0 0.0 600.0 371.0" fill="none" stroke="none" stroke-linecap="square" stroke-miterlimit="10" width="600" height="371" xmlns:xlink="http://www.w3.org/1999/xlink" xmlns="http://www.w3.org/2000/svg"><path fill="#ffffff" d="M0 0L600.0 0L600.0 371.0L0 371.0L0 0Z" fill-rule="nonzero"/><path stroke="#333333" stroke-width="1.0" stroke-linecap="butt" d="M45.5 51.5L45.5 300.5" fill-rule="nonzero"/><path stroke="#cccccc" stroke-width="1.0" stroke-linecap="butt" d="M157.5 51.5L157.5 300.5" fill-rule="nonzero"/><path stroke="#cccccc" stroke-width="1.0" stroke-linecap="butt" d="M268.5 51.5L268.5 300.5" fill-rule="nonzero"/><path stroke="#cccccc" stroke-width="1.0" stroke-linecap="butt" d="M380.5 51.5L380.5 300.5" fill-rule="nonzero"/><path stroke="#cccccc" stroke-width="1.0" stroke-linecap="butt" d="M492.5 51.5L492.5 300.5" fill-rule="nonzero"/><path stroke="#333333" stroke-width="1.0" stroke-linecap="butt" d="M45.5 300.5L581.5 300.5" fill-rule="nonzero"/><path stroke="#cccccc" stroke-width="1.0" stroke-linecap="butt" d="M45.5 238.5L581.5 238.5" fill-rule="nonzero"/><path stroke="#cccccc" stroke-width="1.0" stroke-linecap="butt" d="M45.5 176.5L581.5 176.5" fill-rule="nonzero"/><path stroke="#cccccc" stroke-width="1.0" stroke-linecap="butt" d="M45.5 114.5L581.5 114.5" fill-rule="nonzero"/><path stroke="#cccccc" stroke-width="1.0" stroke-linecap="butt" d="M45.5 51.5L581.5 51.5" fill-rule="nonzero"/><clipPath id="id_0"><path d="M45.55 51.916668L581.45 51.916668L581.45 300.45L45.55 300.45L45.55 51.916668Z" clip-rule="nonzero"/></clipPath><path stroke="#4285f4" stroke-width="2.0" stroke-linecap="butt" clip-path="url(#id_0)" d="M45.55 113.36653L67.879166 110.2288L90.208336 110.01133L112.5375 109.88707L134.86667 108.209465L157.19583 107.83667L179.525 107.1532L201.85417 105.50667L224.18333 105.35133L246.5125 104.605736L268.84167 102.9592L291.17084 102.5864L313.5 100.3496L335.82916 99.138L358.15833 98.14387L380.4875 97.3672L402.81668 96.808L425.14584 96.18667L447.475 95.75173L469.80417 97.1808L492.13333 97.336136L514.4625 101.033066L536.7917 101.59227L559.12085 103.02133L581.45 104.57467" fill-rule="nonzero"/><path stroke="#ea4335" stroke-width="2.0" stroke-linecap="butt" clip-path="url(#id_0)" d="M45.55 149.1864L67.879166 142.2896L90.208336 141.79253L112.5375 141.76146L134.86667 139.05867L157.19583 138.25093L179.525 136.72867L201.85417 135.6724L224.18333 134.8336L246.5125 133.03174L268.84167 132.0376L291.17084 130.9192L313.5 128.7756L335.82916 127.4708L358.15833 124.45734L380.4875 124.33307L402.81668 122.8108L425.14584 120.6672L447.475 120.41866L469.80417 120.698265L492.13333 120.88467L514.4625 124.705864L536.7917 126.5388L559.12085 127.62614L581.45 126.75626" fill-rule="nonzero"/><path stroke="#fbbc04" stroke-width="2.0" stroke-linecap="butt" clip-path="url(#id_0)" d="M45.55 166.27307L67.879166 156.61133L90.208336 155.36867L112.5375 154.4056L134.86667 152.728L157.19583 151.48534L179.525 150.05626L201.85417 149.96307L224.18333 148.59613L246.5125 146.79427L268.84167 146.2972L291.17084 143.65654L313.5 141.3576L335.82916 140.45667L358.15833 140.612L380.4875 138.81013L402.81668 137.00827L425.14584 135.08214L447.475 133.83946L469.80417 134.95787L492.13333 134.70934L514.4625 138.40627L536.7917 140.612L559.12085 142.13426L581.45 142.32066" fill-rule="nonzero"/><path stroke="#34a853" stroke-width="2.0" stroke-linecap="butt" clip-path="url(#id_0)" d="M45.55 211.75467L67.879166 193.42534L90.208336 194.202L112.5375 195.19614L134.86667 197.68147L157.19583 197.8368L179.525 198.61346L201.85417 198.7688L224.18333 196.93587L246.5125 193.70494L268.84167 191.74773L291.17084 189.2624L313.5 187.212L335.82916 187.14987L358.15833 186.77707L380.4875 186.71494L402.81668 182.98694L425.14584 180.99867L447.475 175.22026L469.80417 174.19507L492.13333 171.05733L514.4625 172.23787L536.7917 175.4688L559.12085 176.15227L581.45 175.562" fill-rule="nonzero"/><path fill="#000000" fill-opacity="0.0" clip-path="url(#id_0)" d="M48.55 113.36653C48.55 115.023384 47.206856 116.36653 45.55 116.36653C43.893147 116.36653 42.55 115.023384 42.55 113.36653C42.55 111.70968 43.893147 110.36653 45.55 110.36653C47.206856 110.36653 48.55 111.70968 48.55 113.36653Z" fill-rule="nonzero"/><path fill="#000000" fill-opacity="0.0" clip-path="url(#id_0)" d="M70.879166 110.2288C70.879166 111.88565 69.53602 113.2288 67.879166 113.2288C66.22231 113.2288 64.879166 111.88565 64.879166 110.2288C64.879166 108.571945 66.22231 107.2288 67.879166 107.2288C69.53602 107.2288 70.879166 108.571945 70.879166 110.2288Z" fill-rule="nonzero"/><path fill="#000000" fill-opacity="0.0" clip-path="url(#id_0)" d="M93.208336 110.01133C93.208336 111.66819 91.86519 113.01133 90.208336 113.01133C88.551476 113.01133 87.208336 111.66819 87.208336 110.01133C87.208336 108.35448 88.551476 107.01133 90.208336 107.01133C91.86519 107.01133 93.208336 108.35448 93.208336 110.01133Z" fill-rule="nonzero"/><path fill="#000000" fill-opacity="0.0" clip-path="url(#id_0)" d="M115.5375 109.88707C115.5375 111.54392 114.19435 112.88707 112.5375 112.88707C110.880646 112.88707 109.5375 111.54392 109.5375 109.88707C109.5375 108.23021 110.880646 106.88707 112.5375 106.88707C114.19435 106.88707 115.5375 108.23021 115.5375 109.88707Z" fill-rule="nonzero"/><path fill="#000000" fill-opacity="0.0" clip-path="url(#id_0)" d="M137.86667 108.209465C137.86667 109.86632 136.52351 111.209465 134.86667 111.209465C133.20981 111.209465 131.86667 109.86632 131.86667 108.209465C131.86667 106.55261 133.20981 105.209465 134.86667 105.209465C136.52351 105.209465 137.86667 106.55261 137.86667 108.209465Z" fill-rule="nonzero"/><path fill="#000000" fill-opacity="0.0" clip-path="url(#id_0)" d="M160.19583 107.83667C160.19583 109.49352 158.85269 110.83667 157.19583 110.83667C155.53899 110.83667 154.19583 109.49352 154.19583 107.83667C154.19583 106.17981 155.53899 104.83667 157.19583 104.83667C158.85269 104.83667 160.19583 106.17981 160.19583 107.83667Z" fill-rule="nonzero"/><path fill="#000000" fill-opacity="0.0" clip-path="url(#id_0)" d="M182.525 107.1532C182.525 108.81005 181.18185 110.1532 179.525 110.1532C177.86815 110.1532 176.525 108.81005 176.525 107.1532C176.525 105.496346 177.86815 104.1532 179.525 104.1532C181.18185 104.1532 182.525 105.496346 182.525 107.1532Z" fill-rule="nonzero"/><path fill="#000000" fill-opacity="0.0" clip-path="url(#id_0)" d="M204.85417 105.50667C204.85417 107.16352 203.51102 108.50667 201.85417 108.50667C200.19731 108.50667 198.85417 107.16352 198.85417 105.50667C198.85417 103.849815 200.19731 102.50667 201.85417 102.50667C203.51102 102.50667 204.85417 103.849815 204.85417 105.50667Z" fill-rule="nonzero"/><path fill="#000000" fill-opacity="0.0" clip-path="url(#id_0)" d="M227.18333 105.35133C227.18333 107.00819 225.8402 108.35133 224.18333 108.35133C222.52647 108.35133 221.18333 107.00819 221.18333 105.35133C221.18333 103.69448 222.52647 102.35133 224.18333 102.35133C225.8402 102.35133 227.18333 103.69448 227.18333 105.35133Z" fill-rule="nonzero"/><path fill="#000000" fill-opacity="0.0" clip-path="url(#id_0)" d="M249.5125 104.605736C249.5125 106.26259 248.16936 107.605736 246.5125 107.605736C244.85565 107.605736 243.5125 106.26259 243.5125 104.605736C243.5125 102.948875 244.85565 101.605736 246.5125 101.605736C248.16936 101.605736 249.5125 102.948875 249.5125 104.605736Z" fill-rule="nonzero"/><path fill="#000000" fill-opacity="0.0" clip-path="url(#id_0)" d="M271.84167 102.9592C271.84167 104.61605 270.49854 105.9592 268.84167 105.9592C267.1848 105.9592 265.84167 104.61605 265.84167 102.9592C265.84167 101.302345 267.1848 99.9592 268.84167 99.9592C270.49854 99.9592 271.84167 101.302345 271.84167 102.9592Z" fill-rule="nonzero"/><path fill="#000000" fill-opacity="0.0" clip-path="url(#id_0)" d="M294.17084 102.5864C294.17084 104.243256 292.8277 105.5864 291.17084 105.5864C289.51398 105.5864 288.17084 104.243256 288.17084 102.5864C288.17084 100.92954 289.51398 99.5864 291.17084 99.5864C292.8277 99.5864 294.17084 100.92954 294.17084 102.5864Z" fill-rule="nonzero"/><path fill="#000000" fill-opacity="0.0" clip-path="url(#id_0)" d="M316.5 100.3496C316.5 102.006454 315.15686 103.3496 313.5 103.3496C311.84314 103.3496 310.5 102.006454 310.5 100.3496C310.5 98.69275 311.84314 97.3496 313.5 97.3496C315.15686 97.3496 316.5 98.69275 316.5 100.3496Z" fill-rule="nonzero"/><path fill="#000000" fill-opacity="0.0" clip-path="url(#id_0)" d="M338.82916 99.138C338.82916 100.79485 337.48602 102.138 335.82916 102.138C334.1723 102.138 332.82916 100.79485 332.82916 99.138C332.82916 97.48115 334.1723 96.138 335.82916 96.138C337.48602 96.138 338.82916 97.48115 338.82916 99.138Z" fill-rule="nonzero"/><path fill="#000000" fill-opacity="0.0" clip-path="url(#id_0)" d="M361.15833 98.14387C361.15833 99.80072 359.8152 101.14387 358.15833 101.14387C356.50146 101.14387 355.15833 99.80072 355.15833 98.14387C355.15833 96.487015 356.50146 95.14387 358.15833 95.14387C359.8152 95.14387 361.15833 96.487015 361.15833 98.14387Z" fill-rule="nonzero"/><path fill="#000000" fill-opacity="0.0" clip-path="url(#id_0)" d="M383.4875 97.3672C383.4875 99.024055 382.14435 100.3672 380.4875 100.3672C378.83066 100.3672 377.4875 99.024055 377.4875 97.3672C377.4875 95.71034 378.83066 94.3672 380.4875 94.3672C382.14435 94.3672 383.4875 95.71034 383.4875 97.3672Z" fill-rule="nonzero"/><path fill="#000000" fill-opacity="0.0" clip-path="url(#id_0)" d="M405.81668 96.808C405.81668 98.46485 404.4735 99.808 402.81668 99.808C401.15982 99.808 399.81668 98.46485 399.81668 96.808C399.81668 95.151146 401.15982 93.808 402.81668 93.808C404.4735 93.808 405.81668 95.151146 405.81668 96.808Z" fill-rule="nonzero"/><path fill="#000000" fill-opacity="0.0" clip-path="url(#id_0)" d="M428.14584 96.18667C428.14584 97.84352 426.80267 99.18667 425.14584 99.18667C423.48898 99.18667 422.14584 97.84352 422.14584 96.18667C422.14584 94.529816 423.48898 93.18667 425.14584 93.18667C426.80267 93.18667 428.14584 94.529816 428.14584 96.18667Z" fill-rule="nonzero"/><path fill="#000000" fill-opacity="0.0" clip-path="url(#id_0)" d="M450.475 95.75173C450.475 97.408585 449.13187 98.75173 447.475 98.75173C445.81815 98.75173 444.475 97.408585 444.475 95.75173C444.475 94.09488 445.81815 92.75173 447.475 92.75173C449.13187 92.75173 450.475 94.09488 450.475 95.75173Z" fill-rule="nonzero"/><path fill="#000000" fill-opacity="0.0" clip-path="url(#id_0)" d="M472.80417 97.1808C472.80417 98.837654 471.46103 100.1808 469.80417 100.1808C468.1473 100.1808 466.80417 98.837654 466.80417 97.1808C466.80417 95.52395 468.1473 94.1808 469.80417 94.1808C471.46103 94.1808 472.80417 95.52395 472.80417 97.1808Z" fill-rule="nonzero"/><path fill="#000000" fill-opacity="0.0" clip-path="url(#id_0)" d="M495.13333 97.336136C495.13333 98.99299 493.7902 100.336136 492.13333 100.336136C490.47647 100.336136 489.13333 98.99299 489.13333 97.336136C489.13333 95.679276 490.47647 94.336136 492.13333 94.336136C493.7902 94.336136 495.13333 95.679276 495.13333 97.336136Z" fill-rule="nonzero"/><path fill="#000000" fill-opacity="0.0" clip-path="url(#id_0)" d="M517.4625 101.033066C517.4625 102.68992 516.1194 104.033066 514.4625 104.033066C512.80566 104.033066 511.4625 102.68992 511.4625 101.033066C511.4625 99.37621 512.80566 98.033066 514.4625 98.033066C516.1194 98.033066 517.4625 99.37621 517.4625 101.033066Z" fill-rule="nonzero"/><path fill="#000000" fill-opacity="0.0" clip-path="url(#id_0)" d="M539.7917 101.59227C539.7917 103.24912 538.44855 104.59227 536.7917 104.59227C535.1348 104.59227 533.7917 103.24912 533.7917 101.59227C533.7917 99.93541 535.1348 98.59227 536.7917 98.59227C538.44855 98.59227 539.7917 99.93541 539.7917 101.59227Z" fill-rule="nonzero"/><path fill="#000000" fill-opacity="0.0" clip-path="url(#id_0)" d="M562.12085 103.02133C562.12085 104.678185 560.7777 106.02133 559.12085 106.02133C557.464 106.02133 556.12085 104.678185 556.12085 103.02133C556.12085 101.36448 557.464 100.02133 559.12085 100.02133C560.7777 100.02133 562.12085 101.36448 562.12085 103.02133Z" fill-rule="nonzero"/><path fill="#000000" fill-opacity="0.0" clip-path="url(#id_0)" d="M584.45 104.57467C584.45 106.23152 583.1069 107.57467 581.45 107.57467C579.79315 107.57467 578.45 106.23152 578.45 104.57467C578.45 102.917816 579.79315 101.57467 581.45 101.57467C583.1069 101.57467 584.45 102.917816 584.45 104.57467Z" fill-rule="nonzero"/><path fill="#000000" fill-opacity="0.0" clip-path="url(#id_0)" d="M48.55 149.1864C48.55 150.84326 47.206856 152.1864 45.55 152.1864C43.893147 152.1864 42.55 150.84326 42.55 149.1864C42.55 147.52954 43.893147 146.1864 45.55 146.1864C47.206856 146.1864 48.55 147.52954 48.55 149.1864Z" fill-rule="nonzero"/><path fill="#000000" fill-opacity="0.0" clip-path="url(#id_0)" d="M70.879166 142.2896C70.879166 143.94646 69.53602 145.2896 67.879166 145.2896C66.22231 145.2896 64.879166 143.94646 64.879166 142.2896C64.879166 140.63275 66.22231 139.2896 67.879166 139.2896C69.53602 139.2896 70.879166 140.63275 70.879166 142.2896Z" fill-rule="nonzero"/><path fill="#000000" fill-opacity="0.0" clip-path="url(#id_0)" d="M93.208336 141.79253C93.208336 143.44939 91.86519 144.79253 90.208336 144.79253C88.551476 144.79253 87.208336 143.44939 87.208336 141.79253C87.208336 140.13568 88.551476 138.79253 90.208336 138.79253C91.86519 138.79253 93.208336 140.13568 93.208336 141.79253Z" fill-rule="nonzero"/><path fill="#000000" fill-opacity="0.0" clip-path="url(#id_0)" d="M115.5375 141.76146C115.5375 143.41832 114.19435 144.76146 112.5375 144.76146C110.880646 144.76146 109.5375 143.41832 109.5375 141.76146C109.5375 140.10461 110.880646 138.76146 112.5375 138.76146C114.19435 138.76146 115.5375 140.10461 115.5375 141.76146Z" fill-rule="nonzero"/><path fill="#000000" fill-opacity="0.0" clip-path="url(#id_0)" d="M137.86667 139.05867C137.86667 140.71552 136.52351 142.05867 134.86667 142.05867C133.20981 142.05867 131.86667 140.71552 131.86667 139.05867C131.86667 137.40181 133.20981 136.05867 134.86667 136.05867C136.52351 136.05867 137.86667 137.40181 137.86667 139.05867Z" fill-rule="nonzero"/><path fill="#000000" fill-opacity="0.0" clip-path="url(#id_0)" d="M160.19583 138.25093C160.19583 139.90779 158.85269 141.25093 157.19583 141.25093C155.53899 141.25093 154.19583 139.90779 154.19583 138.25093C154.19583 136.59409 155.53899 135.25093 157.19583 135.25093C158.85269 135.25093 160.19583 136.59409 160.19583 138.25093Z" fill-rule="nonzero"/><path fill="#000000" fill-opacity="0.0" clip-path="url(#id_0)" d="M182.525 136.72867C182.525 138.38551 181.18185 139.72867 179.525 139.72867C177.86815 139.72867 176.525 138.38551 176.525 136.72867C176.525 135.07181 177.86815 133.72867 179.525 133.72867C181.18185 133.72867 182.525 135.07181 182.525 136.72867Z" fill-rule="nonzero"/><path fill="#000000" fill-opacity="0.0" clip-path="url(#id_0)" d="M204.85417 135.6724C204.85417 137.32925 203.51102 138.6724 201.85417 138.6724C200.19731 138.6724 198.85417 137.32925 198.85417 135.6724C198.85417 134.01555 200.19731 132.6724 201.85417 132.6724C203.51102 132.6724 204.85417 134.01555 204.85417 135.6724Z" fill-rule="nonzero"/><path fill="#000000" fill-opacity="0.0" clip-path="url(#id_0)" d="M227.18333 134.8336C227.18333 136.49045 225.8402 137.8336 224.18333 137.8336C222.52647 137.8336 221.18333 136.49045 221.18333 134.8336C221.18333 133.17674 222.52647 131.8336 224.18333 131.8336C225.8402 131.8336 227.18333 133.17674 227.18333 134.8336Z" fill-rule="nonzero"/><path fill="#000000" fill-opacity="0.0" clip-path="url(#id_0)" d="M249.5125 133.03174C249.5125 134.68858 248.16936 136.03174 246.5125 136.03174C244.85565 136.03174 243.5125 134.68858 243.5125 133.03174C243.5125 131.37488 244.85565 130.03174 246.5125 130.03174C248.16936 130.03174 249.5125 131.37488 249.5125 133.03174Z" fill-rule="nonzero"/><path fill="#000000" fill-opacity="0.0" clip-path="url(#id_0)" d="M271.84167 132.0376C271.84167 133.69446 270.49854 135.0376 268.84167 135.0376C267.1848 135.0376 265.84167 133.69446 265.84167 132.0376C265.84167 130.38075 267.1848 129.0376 268.84167 129.0376C270.49854 129.0376 271.84167 130.38075 271.84167 132.0376Z" fill-rule="nonzero"/><path fill="#000000" fill-opacity="0.0" clip-path="url(#id_0)" d="M294.17084 130.9192C294.17084 132.57605 292.8277 133.9192 291.17084 133.9192C289.51398 133.9192 288.17084 132.57605 288.17084 130.9192C288.17084 129.26234 289.51398 127.9192 291.17084 127.9192C292.8277 127.9192 294.17084 129.26234 294.17084 130.9192Z" fill-rule="nonzero"/><path fill="#000000" fill-opacity="0.0" clip-path="url(#id_0)" d="M316.5 128.7756C316.5 130.43245 315.15686 131.7756 313.5 131.7756C311.84314 131.7756 310.5 130.43245 310.5 128.7756C310.5 127.118744 311.84314 125.7756 313.5 125.7756C315.15686 125.7756 316.5 127.118744 316.5 128.7756Z" fill-rule="nonzero"/><path fill="#000000" fill-opacity="0.0" clip-path="url(#id_0)" d="M338.82916 127.4708C338.82916 129.12766 337.48602 130.4708 335.82916 130.4708C334.1723 130.4708 332.82916 129.12766 332.82916 127.4708C332.82916 125.81394 334.1723 124.4708 335.82916 124.4708C337.48602 124.4708 338.82916 125.81394 338.82916 127.4708Z" fill-rule="nonzero"/><path fill="#000000" fill-opacity="0.0" clip-path="url(#id_0)" d="M361.15833 124.45734C361.15833 126.11419 359.8152 127.45734 358.15833 127.45734C356.50146 127.45734 355.15833 126.11419 355.15833 124.45734C355.15833 122.800476 356.50146 121.45734 358.15833 121.45734C359.8152 121.45734 361.15833 122.800476 361.15833 124.45734Z" fill-rule="nonzero"/><path fill="#000000" fill-opacity="0.0" clip-path="url(#id_0)" d="M383.4875 124.33307C383.4875 125.98992 382.14435 127.33307 380.4875 127.33307C378.83066 127.33307 377.4875 125.98992 377.4875 124.33307C377.4875 122.676216 378.83066 121.33307 380.4875 121.33307C382.14435 121.33307 383.4875 122.676216 383.4875 124.33307Z" fill-rule="nonzero"/><path fill="#000000" fill-opacity="0.0" clip-path="url(#id_0)" d="M405.81668 122.8108C405.81668 124.46765 404.4735 125.8108 402.81668 125.8108C401.15982 125.8108 399.81668 124.46765 399.81668 122.8108C399.81668 121.153946 401.15982 119.8108 402.81668 119.8108C404.4735 119.8108 405.81668 121.153946 405.81668 122.8108Z" fill-rule="nonzero"/><path fill="#000000" fill-opacity="0.0" clip-path="url(#id_0)" d="M428.14584 120.6672C428.14584 122.32405 426.80267 123.6672 425.14584 123.6672C423.48898 123.6672 422.14584 122.32405 422.14584 120.6672C422.14584 119.010345 423.48898 117.6672 425.14584 117.6672C426.80267 117.6672 428.14584 119.010345 428.14584 120.6672Z" fill-rule="nonzero"/><path fill="#000000" fill-opacity="0.0" clip-path="url(#id_0)" d="M450.475 120.41866C450.475 122.07552 449.13187 123.41866 447.475 123.41866C445.81815 123.41866 444.475 122.07552 444.475 120.41866C444.475 118.76181 445.81815 117.41866 447.475 117.41866C449.13187 117.41866 450.475 118.76181 450.475 120.41866Z" fill-rule="nonzero"/><path fill="#000000" fill-opacity="0.0" clip-path="url(#id_0)" d="M472.80417 120.698265C472.80417 122.35512 471.46103 123.698265 469.80417 123.698265C468.1473 123.698265 466.80417 122.35512 466.80417 120.698265C466.80417 119.04141 468.1473 117.698265 469.80417 117.698265C471.46103 117.698265 472.80417 119.04141 472.80417 120.698265Z" fill-rule="nonzero"/><path fill="#000000" fill-opacity="0.0" clip-path="url(#id_0)" d="M495.13333 120.88467C495.13333 122.54152 493.7902 123.88467 492.13333 123.88467C490.47647 123.88467 489.13333 122.54152 489.13333 120.88467C489.13333 119.22781 490.47647 117.88467 492.13333 117.88467C493.7902 117.88467 495.13333 119.22781 495.13333 120.88467Z" fill-rule="nonzero"/><path fill="#000000" fill-opacity="0.0" clip-path="url(#id_0)" d="M517.4625 124.705864C517.4625 126.362724 516.1194 127.705864 514.4625 127.705864C512.80566 127.705864 511.4625 126.362724 511.4625 124.705864C511.4625 123.04901 512.80566 121.705864 514.4625 121.705864C516.1194 121.705864 517.4625 123.04901 517.4625 124.705864Z" fill-rule="nonzero"/><path fill="#000000" fill-opacity="0.0" clip-path="url(#id_0)" d="M539.7917 126.5388C539.7917 128.19565 538.44855 129.5388 536.7917 129.5388C535.1348 129.5388 533.7917 128.19565 533.7917 126.5388C533.7917 124.88194 535.1348 123.5388 536.7917 123.5388C538.44855 123.5388 539.7917 124.88194 539.7917 126.5388Z" fill-rule="nonzero"/><path fill="#000000" fill-opacity="0.0" clip-path="url(#id_0)" d="M562.12085 127.62614C562.12085 129.28299 560.7777 130.62613 559.12085 130.62613C557.464 130.62613 556.12085 129.28299 556.12085 127.62614C556.12085 125.96928 557.464 124.62614 559.12085 124.62614C560.7777 124.62614 562.12085 125.96928 562.12085 127.62614Z" fill-rule="nonzero"/><path fill="#000000" fill-opacity="0.0" clip-path="url(#id_0)" d="M584.45 126.75626C584.45 128.41312 583.1069 129.75627 581.45 129.75627C579.79315 129.75627 578.45 128.41312 578.45 126.75626C578.45 125.09941 579.79315 123.75626 581.45 123.75626C583.1069 123.75626 584.45 125.09941 584.45 126.75626Z" fill-rule="nonzero"/><path fill="#000000" fill-opacity="0.0" clip-path="url(#id_0)" d="M48.55 166.27307C48.55 167.92992 47.206856 169.27307 45.55 169.27307C43.893147 169.27307 42.55 167.92992 42.55 166.27307C42.55 164.61621 43.893147 163.27307 45.55 163.27307C47.206856 163.27307 48.55 164.61621 48.55 166.27307Z" fill-rule="nonzero"/><path fill="#000000" fill-opacity="0.0" clip-path="url(#id_0)" d="M70.879166 156.61133C70.879166 158.26819 69.53602 159.61133 67.879166 159.61133C66.22231 159.61133 64.879166 158.26819 64.879166 156.61133C64.879166 154.95448 66.22231 153.61133 67.879166 153.61133C69.53602 153.61133 70.879166 154.95448 70.879166 156.61133Z" fill-rule="nonzero"/><path fill="#000000" fill-opacity="0.0" clip-path="url(#id_0)" d="M93.208336 155.36867C93.208336 157.02553 91.86519 158.36867 90.208336 158.36867C88.551476 158.36867 87.208336 157.02553 87.208336 155.36867C87.208336 153.7118 88.551476 152.36867 90.208336 152.36867C91.86519 152.36867 93.208336 153.7118 93.208336 155.36867Z" fill-rule="nonzero"/><path fill="#000000" fill-opacity="0.0" clip-path="url(#id_0)" d="M115.5375 154.4056C115.5375 156.06245 114.19435 157.4056 112.5375 157.4056C110.880646 157.4056 109.5375 156.06245 109.5375 154.4056C109.5375 152.74875 110.880646 151.4056 112.5375 151.4056C114.19435 151.4056 115.5375 152.74875 115.5375 154.4056Z" fill-rule="nonzero"/><path fill="#000000" fill-opacity="0.0" clip-path="url(#id_0)" d="M137.86667 152.728C137.86667 154.38486 136.52351 155.728 134.86667 155.728C133.20981 155.728 131.86667 154.38486 131.86667 152.728C131.86667 151.07115 133.20981 149.728 134.86667 149.728C136.52351 149.728 137.86667 151.07115 137.86667 152.728Z" fill-rule="nonzero"/><path fill="#000000" fill-opacity="0.0" clip-path="url(#id_0)" d="M160.19583 151.48534C160.19583 153.14218 158.85269 154.48534 157.19583 154.48534C155.53899 154.48534 154.19583 153.14218 154.19583 151.48534C154.19583 149.82848 155.53899 148.48534 157.19583 148.48534C158.85269 148.48534 160.19583 149.82848 160.19583 151.48534Z" fill-rule="nonzero"/><path fill="#000000" fill-opacity="0.0" clip-path="url(#id_0)" d="M182.525 150.05626C182.525 151.71312 181.18185 153.05626 179.525 153.05626C177.86815 153.05626 176.525 151.71312 176.525 150.05626C176.525 148.39941 177.86815 147.05626 179.525 147.05626C181.18185 147.05626 182.525 148.39941 182.525 150.05626Z" fill-rule="nonzero"/><path fill="#000000" fill-opacity="0.0" clip-path="url(#id_0)" d="M204.85417 149.96307C204.85417 151.61992 203.51102 152.96307 201.85417 152.96307C200.19731 152.96307 198.85417 151.61992 198.85417 149.96307C198.85417 148.30621 200.19731 146.96307 201.85417 146.96307C203.51102 146.96307 204.85417 148.30621 204.85417 149.96307Z" fill-rule="nonzero"/><path fill="#000000" fill-opacity="0.0" clip-path="url(#id_0)" d="M227.18333 148.59613C227.18333 150.25299 225.8402 151.59613 224.18333 151.59613C222.52647 151.59613 221.18333 150.25299 221.18333 148.59613C221.18333 146.93929 222.52647 145.59613 224.18333 145.59613C225.8402 145.59613 227.18333 146.93929 227.18333 148.59613Z" fill-rule="nonzero"/><path fill="#000000" fill-opacity="0.0" clip-path="url(#id_0)" d="M249.5125 146.79427C249.5125 148.45113 248.16936 149.79427 246.5125 149.79427C244.85565 149.79427 243.5125 148.45113 243.5125 146.79427C243.5125 145.1374 244.85565 143.79427 246.5125 143.79427C248.16936 143.79427 249.5125 145.1374 249.5125 146.79427Z" fill-rule="nonzero"/><path fill="#000000" fill-opacity="0.0" clip-path="url(#id_0)" d="M271.84167 146.2972C271.84167 147.95406 270.49854 149.2972 268.84167 149.2972C267.1848 149.2972 265.84167 147.95406 265.84167 146.2972C265.84167 144.64035 267.1848 143.2972 268.84167 143.2972C270.49854 143.2972 271.84167 144.64035 271.84167 146.2972Z" fill-rule="nonzero"/><path fill="#000000" fill-opacity="0.0" clip-path="url(#id_0)" d="M294.17084 143.65654C294.17084 145.31339 292.8277 146.65654 291.17084 146.65654C289.51398 146.65654 288.17084 145.31339 288.17084 143.65654C288.17084 141.99968 289.51398 140.65654 291.17084 140.65654C292.8277 140.65654 294.17084 141.99968 294.17084 143.65654Z" fill-rule="nonzero"/><path fill="#000000" fill-opacity="0.0" clip-path="url(#id_0)" d="M316.5 141.3576C316.5 143.01445 315.15686 144.3576 313.5 144.3576C311.84314 144.3576 310.5 143.01445 310.5 141.3576C310.5 139.70074 311.84314 138.3576 313.5 138.3576C315.15686 138.3576 316.5 139.70074 316.5 141.3576Z" fill-rule="nonzero"/><path fill="#000000" fill-opacity="0.0" clip-path="url(#id_0)" d="M338.82916 140.45667C338.82916 142.11353 337.48602 143.45667 335.82916 143.45667C334.1723 143.45667 332.82916 142.11353 332.82916 140.45667C332.82916 138.79982 334.1723 137.45667 335.82916 137.45667C337.48602 137.45667 338.82916 138.79982 338.82916 140.45667Z" fill-rule="nonzero"/><path fill="#000000" fill-opacity="0.0" clip-path="url(#id_0)" d="M361.15833 140.612C361.15833 142.26886 359.8152 143.612 358.15833 143.612C356.50146 143.612 355.15833 142.26886 355.15833 140.612C355.15833 138.95514 356.50146 137.612 358.15833 137.612C359.8152 137.612 361.15833 138.95514 361.15833 140.612Z" fill-rule="nonzero"/><path fill="#000000" fill-opacity="0.0" clip-path="url(#id_0)" d="M383.4875 138.81013C383.4875 140.46698 382.14435 141.81013 380.4875 141.81013C378.83066 141.81013 377.4875 140.46698 377.4875 138.81013C377.4875 137.15327 378.83066 135.81013 380.4875 135.81013C382.14435 135.81013 383.4875 137.15327 383.4875 138.81013Z" fill-rule="nonzero"/><path fill="#000000" fill-opacity="0.0" clip-path="url(#id_0)" d="M405.81668 137.00827C405.81668 138.66512 404.4735 140.00827 402.81668 140.00827C401.15982 140.00827 399.81668 138.66512 399.81668 137.00827C399.81668 135.35141 401.15982 134.00827 402.81668 134.00827C404.4735 134.00827 405.81668 135.35141 405.81668 137.00827Z" fill-rule="nonzero"/><path fill="#000000" fill-opacity="0.0" clip-path="url(#id_0)" d="M428.14584 135.08214C428.14584 136.73898 426.80267 138.08214 425.14584 138.08214C423.48898 138.08214 422.14584 136.73898 422.14584 135.08214C422.14584 133.42528 423.48898 132.08214 425.14584 132.08214C426.80267 132.08214 428.14584 133.42528 428.14584 135.08214Z" fill-rule="nonzero"/><path fill="#000000" fill-opacity="0.0" clip-path="url(#id_0)" d="M450.475 133.83946C450.475 135.49632 449.13187 136.83946 447.475 136.83946C445.81815 136.83946 444.475 135.49632 444.475 133.83946C444.475 132.18262 445.81815 130.83946 447.475 130.83946C449.13187 130.83946 450.475 132.18262 450.475 133.83946Z" fill-rule="nonzero"/><path fill="#000000" fill-opacity="0.0" clip-path="url(#id_0)" d="M472.80417 134.95787C472.80417 136.61472 471.46103 137.95787 469.80417 137.95787C468.1473 137.95787 466.80417 136.61472 466.80417 134.95787C466.80417 133.30101 468.1473 131.95787 469.80417 131.95787C471.46103 131.95787 472.80417 133.30101 472.80417 134.95787Z" fill-rule="nonzero"/><path fill="#000000" fill-opacity="0.0" clip-path="url(#id_0)" d="M495.13333 134.70934C495.13333 136.36618 493.7902 137.70934 492.13333 137.70934C490.47647 137.70934 489.13333 136.36618 489.13333 134.70934C489.13333 133.05247 490.47647 131.70934 492.13333 131.70934C493.7902 131.70934 495.13333 133.05247 495.13333 134.70934Z" fill-rule="nonzero"/><path fill="#000000" fill-opacity="0.0" clip-path="url(#id_0)" d="M517.4625 138.40627C517.4625 140.06313 516.1194 141.40627 514.4625 141.40627C512.80566 141.40627 511.4625 140.06313 511.4625 138.40627C511.4625 136.7494 512.80566 135.40627 514.4625 135.40627C516.1194 135.40627 517.4625 136.7494 517.4625 138.40627Z" fill-rule="nonzero"/><path fill="#000000" fill-opacity="0.0" clip-path="url(#id_0)" d="M539.7917 140.612C539.7917 142.26886 538.44855 143.612 536.7917 143.612C535.1348 143.612 533.7917 142.26886 533.7917 140.612C533.7917 138.95514 535.1348 137.612 536.7917 137.612C538.44855 137.612 539.7917 138.95514 539.7917 140.612Z" fill-rule="nonzero"/><path fill="#000000" fill-opacity="0.0" clip-path="url(#id_0)" d="M562.12085 142.13426C562.12085 143.79112 560.7777 145.13426 559.12085 145.13426C557.464 145.13426 556.12085 143.79112 556.12085 142.13426C556.12085 140.47742 557.464 139.13426 559.12085 139.13426C560.7777 139.13426 562.12085 140.47742 562.12085 142.13426Z" fill-rule="nonzero"/><path fill="#000000" fill-opacity="0.0" clip-path="url(#id_0)" d="M584.45 142.32066C584.45 143.97752 583.1069 145.32066 581.45 145.32066C579.79315 145.32066 578.45 143.97752 578.45 142.32066C578.45 140.66382 579.79315 139.32066 581.45 139.32066C583.1069 139.32066 584.45 140.66382 584.45 142.32066Z" fill-rule="nonzero"/><path fill="#000000" fill-opacity="0.0" clip-path="url(#id_0)" d="M48.55 211.75467C48.55 213.41151 47.206856 214.75467 45.55 214.75467C43.893147 214.75467 42.55 213.41151 42.55 211.75467C42.55 210.09781 43.893147 208.75467 45.55 208.75467C47.206856 208.75467 48.55 210.09781 48.55 211.75467Z" fill-rule="nonzero"/><path fill="#000000" fill-opacity="0.0" clip-path="url(#id_0)" d="M70.879166 193.42534C70.879166 195.08218 69.53602 196.42534 67.879166 196.42534C66.22231 196.42534 64.879166 195.08218 64.879166 193.42534C64.879166 191.76848 66.22231 190.42534 67.879166 190.42534C69.53602 190.42534 70.879166 191.76848 70.879166 193.42534Z" fill-rule="nonzero"/><path fill="#000000" fill-opacity="0.0" clip-path="url(#id_0)" d="M93.208336 194.202C93.208336 195.85886 91.86519 197.202 90.208336 197.202C88.551476 197.202 87.208336 195.85886 87.208336 194.202C87.208336 192.54515 88.551476 191.202 90.208336 191.202C91.86519 191.202 93.208336 192.54515 93.208336 194.202Z" fill-rule="nonzero"/><path fill="#000000" fill-opacity="0.0" clip-path="url(#id_0)" d="M115.5375 195.19614C115.5375 196.85298 114.19435 198.19614 112.5375 198.19614C110.880646 198.19614 109.5375 196.85298 109.5375 195.19614C109.5375 193.53928 110.880646 192.19614 112.5375 192.19614C114.19435 192.19614 115.5375 193.53928 115.5375 195.19614Z" fill-rule="nonzero"/><path fill="#000000" fill-opacity="0.0" clip-path="url(#id_0)" d="M137.86667 197.68147C137.86667 199.33832 136.52351 200.68147 134.86667 200.68147C133.20981 200.68147 131.86667 199.33832 131.86667 197.68147C131.86667 196.02461 133.20981 194.68147 134.86667 194.68147C136.52351 194.68147 137.86667 196.02461 137.86667 197.68147Z" fill-rule="nonzero"/><path fill="#000000" fill-opacity="0.0" clip-path="url(#id_0)" d="M160.19583 197.8368C160.19583 199.49365 158.85269 200.8368 157.19583 200.8368C155.53899 200.8368 154.19583 199.49365 154.19583 197.8368C154.19583 196.17995 155.53899 194.8368 157.19583 194.8368C158.85269 194.8368 160.19583 196.17995 160.19583 197.8368Z" fill-rule="nonzero"/><path fill="#000000" fill-opacity="0.0" clip-path="url(#id_0)" d="M182.525 198.61346C182.525 200.27032 181.18185 201.61346 179.525 201.61346C177.86815 201.61346 176.525 200.27032 176.525 198.61346C176.525 196.95662 177.86815 195.61346 179.525 195.61346C181.18185 195.61346 182.525 196.95662 182.525 198.61346Z" fill-rule="nonzero"/><path fill="#000000" fill-opacity="0.0" clip-path="url(#id_0)" d="M204.85417 198.7688C204.85417 200.42566 203.51102 201.7688 201.85417 201.7688C200.19731 201.7688 198.85417 200.42566 198.85417 198.7688C198.85417 197.11194 200.19731 195.7688 201.85417 195.7688C203.51102 195.7688 204.85417 197.11194 204.85417 198.7688Z" fill-rule="nonzero"/><path fill="#000000" fill-opacity="0.0" clip-path="url(#id_0)" d="M227.18333 196.93587C227.18333 198.59273 225.8402 199.93587 224.18333 199.93587C222.52647 199.93587 221.18333 198.59273 221.18333 196.93587C221.18333 195.279 222.52647 193.93587 224.18333 193.93587C225.8402 193.93587 227.18333 195.279 227.18333 196.93587Z" fill-rule="nonzero"/><path fill="#000000" fill-opacity="0.0" clip-path="url(#id_0)" d="M249.5125 193.70494C249.5125 195.36179 248.16936 196.70494 246.5125 196.70494C244.85565 196.70494 243.5125 195.36179 243.5125 193.70494C243.5125 192.04808 244.85565 190.70494 246.5125 190.70494C248.16936 190.70494 249.5125 192.04808 249.5125 193.70494Z" fill-rule="nonzero"/><path fill="#000000" fill-opacity="0.0" clip-path="url(#id_0)" d="M271.84167 191.74773C271.84167 193.40459 270.49854 194.74773 268.84167 194.74773C267.1848 194.74773 265.84167 193.40459 265.84167 191.74773C265.84167 190.09088 267.1848 188.74773 268.84167 188.74773C270.49854 188.74773 271.84167 190.09088 271.84167 191.74773Z" fill-rule="nonzero"/><path fill="#000000" fill-opacity="0.0" clip-path="url(#id_0)" d="M294.17084 189.2624C294.17084 190.91925 292.8277 192.2624 291.17084 192.2624C289.51398 192.2624 288.17084 190.91925 288.17084 189.2624C288.17084 187.60555 289.51398 186.2624 291.17084 186.2624C292.8277 186.2624 294.17084 187.60555 294.17084 189.2624Z" fill-rule="nonzero"/><path fill="#000000" fill-opacity="0.0" clip-path="url(#id_0)" d="M316.5 187.212C316.5 188.86885 315.15686 190.212 313.5 190.212C311.84314 190.212 310.5 188.86885 310.5 187.212C310.5 185.55515 311.84314 184.212 313.5 184.212C315.15686 184.212 316.5 185.55515 316.5 187.212Z" fill-rule="nonzero"/><path fill="#000000" fill-opacity="0.0" clip-path="url(#id_0)" d="M338.82916 187.14987C338.82916 188.80672 337.48602 190.14987 335.82916 190.14987C334.1723 190.14987 332.82916 188.80672 332.82916 187.14987C332.82916 185.49301 334.1723 184.14987 335.82916 184.14987C337.48602 184.14987 338.82916 185.49301 338.82916 187.14987Z" fill-rule="nonzero"/><path fill="#000000" fill-opacity="0.0" clip-path="url(#id_0)" d="M361.15833 186.77707C361.15833 188.43391 359.8152 189.77707 358.15833 189.77707C356.50146 189.77707 355.15833 188.43391 355.15833 186.77707C355.15833 185.12021 356.50146 183.77707 358.15833 183.77707C359.8152 183.77707 361.15833 185.12021 361.15833 186.77707Z" fill-rule="nonzero"/><path fill="#000000" fill-opacity="0.0" clip-path="url(#id_0)" d="M383.4875 186.71494C383.4875 188.37178 382.14435 189.71494 380.4875 189.71494C378.83066 189.71494 377.4875 188.37178 377.4875 186.71494C377.4875 185.05807 378.83066 183.71494 380.4875 183.71494C382.14435 183.71494 383.4875 185.05807 383.4875 186.71494Z" fill-rule="nonzero"/><path fill="#000000" fill-opacity="0.0" clip-path="url(#id_0)" d="M405.81668 182.98694C405.81668 184.64378 404.4735 185.98694 402.81668 185.98694C401.15982 185.98694 399.81668 184.64378 399.81668 182.98694C399.81668 181.33008 401.15982 179.98694 402.81668 179.98694C404.4735 179.98694 405.81668 181.33008 405.81668 182.98694Z" fill-rule="nonzero"/><path fill="#000000" fill-opacity="0.0" clip-path="url(#id_0)" d="M428.14584 180.99867C428.14584 182.65552 426.80267 183.99867 425.14584 183.99867C423.48898 183.99867 422.14584 182.65552 422.14584 180.99867C422.14584 179.34181 423.48898 177.99867 425.14584 177.99867C426.80267 177.99867 428.14584 179.34181 428.14584 180.99867Z" fill-rule="nonzero"/><path fill="#000000" fill-opacity="0.0" clip-path="url(#id_0)" d="M450.475 175.22026C450.475 176.87712 449.13187 178.22026 447.475 178.22026C445.81815 178.22026 444.475 176.87712 444.475 175.22026C444.475 173.56342 445.81815 172.22026 447.475 172.22026C449.13187 172.22026 450.475 173.56342 450.475 175.22026Z" fill-rule="nonzero"/><path fill="#000000" fill-opacity="0.0" clip-path="url(#id_0)" d="M472.80417 174.19507C472.80417 175.85191 471.46103 177.19507 469.80417 177.19507C468.1473 177.19507 466.80417 175.85191 466.80417 174.19507C466.80417 172.53821 468.1473 171.19507 469.80417 171.19507C471.46103 171.19507 472.80417 172.53821 472.80417 174.19507Z" fill-rule="nonzero"/><path fill="#000000" fill-opacity="0.0" clip-path="url(#id_0)" d="M495.13333 171.05733C495.13333 172.71419 493.7902 174.05733 492.13333 174.05733C490.47647 174.05733 489.13333 172.71419 489.13333 171.05733C489.13333 169.40048 490.47647 168.05733 492.13333 168.05733C493.7902 168.05733 495.13333 169.40048 495.13333 171.05733Z" fill-rule="nonzero"/><path fill="#000000" fill-opacity="0.0" clip-path="url(#id_0)" d="M517.4625 172.23787C517.4625 173.89471 516.1194 175.23787 514.4625 175.23787C512.80566 175.23787 511.4625 173.89471 511.4625 172.23787C511.4625 170.58101 512.80566 169.23787 514.4625 169.23787C516.1194 169.23787 517.4625 170.58101 517.4625 172.23787Z" fill-rule="nonzero"/><path fill="#000000" fill-opacity="0.0" clip-path="url(#id_0)" d="M539.7917 175.4688C539.7917 177.12566 538.44855 178.4688 536.7917 178.4688C535.1348 178.4688 533.7917 177.12566 533.7917 175.4688C533.7917 173.81195 535.1348 172.4688 536.7917 172.4688C538.44855 172.4688 539.7917 173.81195 539.7917 175.4688Z" fill-rule="nonzero"/><path fill="#000000" fill-opacity="0.0" clip-path="url(#id_0)" d="M562.12085 176.15227C562.12085 177.80913 560.7777 179.15227 559.12085 179.15227C557.464 179.15227 556.12085 177.80913 556.12085 176.15227C556.12085 174.4954 557.464 173.15227 559.12085 173.15227C560.7777 173.15227 562.12085 174.4954 562.12085 176.15227Z" fill-rule="nonzero"/><path fill="#000000" fill-opacity="0.0" clip-path="url(#id_0)" d="M584.45 175.562C584.45 177.21886 583.1069 178.562 581.45 178.562C579.79315 178.562 578.45 177.21886 578.45 175.562C578.45 173.90515 579.79315 172.562 581.45 172.562C583.1069 172.562 584.45 173.90515 584.45 175.562Z" fill-rule="nonzero"/><path fill="#000000" d="M298.875 349.45L298.875 340.85626L300.01562 340.85626L300.01562 348.4344L304.25 348.4344L304.25 349.45L298.875 349.45ZM309.85938 348.6844Q309.26562 349.1844 308.71875 349.3875Q308.1875 349.59064 307.5625 349.59064Q306.53125 349.59064 305.98438 349.09064Q305.4375 348.59064 305.4375 347.8094Q305.4375 347.35626 305.64062 346.98126Q305.84375 346.59064 306.1875 346.3719Q306.53125 346.1375 306.95312 346.02814Q307.25 345.9344 307.89062 345.85626Q309.15625 345.71564 309.76562 345.4969Q309.76562 345.27814 309.76562 345.23126Q309.76562 344.575 309.46875 344.3094Q309.0625 343.96564 308.26562 343.96564Q307.53125 343.96564 307.17188 344.23126Q306.8125 344.48126 306.64062 345.1375L305.60938 344.9969Q305.75 344.34064 306.07812 343.9344Q306.40625 343.52814 307.01562 343.3094Q307.625 343.09064 308.42188 343.09064Q309.21875 343.09064 309.71875 343.27814Q310.21875 343.46564 310.45312 343.7469Q310.6875 344.02814 310.78125 344.46564Q310.82812 344.73126 310.82812 345.4344L310.82812 346.84064Q310.82812 348.3094 310.89062 348.7Q310.96875 349.09064 311.17188 349.45L310.0625 349.45Q309.90625 349.1219 309.85938 348.6844ZM309.76562 346.325Q309.1875 346.5594 308.04688 346.73126Q307.39062 346.825 307.125 346.95Q306.85938 347.0594 306.70312 347.27814Q306.5625 347.4969 306.5625 347.77814Q306.5625 348.2 306.875 348.48126Q307.20312 348.7625 307.8125 348.7625Q308.42188 348.7625 308.89062 348.4969Q309.375 348.23126 309.59375 347.7625Q309.76562 347.40314 309.76562 346.71564L309.76562 346.325ZM312.75 351.84064L312.625 350.85626Q312.96875 350.95 313.23438 350.95Q313.57812 350.95 313.78125 350.825Q314.0 350.71564 314.14062 350.5125Q314.23438 350.34064 314.46875 349.71564Q314.48438 349.6375 314.5625 349.46564L312.1875 343.23126L313.32812 343.23126L314.625 346.825Q314.875 347.5125 315.07812 348.27814Q315.26562 347.54376 315.51562 346.85626L316.84375 343.23126L317.89062 343.23126L315.53125 349.5594Q315.14062 350.575 314.9375 350.96564Q314.65625 351.4969 314.28125 351.73126Q313.92188 351.98126 313.42188 351.98126Q313.125 351.98126 312.75 351.84064ZM323.04688 347.45L324.14062 347.575Q323.89062 348.52814 323.1875 349.0594Q322.48438 349.59064 321.40625 349.59064Q320.04688 349.59064 319.23438 348.7469Q318.4375 347.90314 318.4375 346.3875Q318.4375 344.825 319.25 343.96564Q320.0625 343.09064 321.34375 343.09064Q322.59375 343.09064 323.375 343.9344Q324.17188 344.77814 324.17188 346.325Q324.17188 346.41876 324.17188 346.60626L319.53125 346.60626Q319.59375 347.6375 320.10938 348.1844Q320.625 348.71564 321.40625 348.71564Q321.98438 348.71564 322.39062 348.41876Q322.8125 348.10626 323.04688 347.45ZM319.59375 345.7469L323.0625 345.7469Q323.0 344.95 322.67188 344.5594Q322.15625 343.95 321.35938 343.95Q320.625 343.95 320.125 344.4344Q319.64062 344.91876 319.59375 345.7469ZM325.78125 349.45L325.78125 343.23126L326.73438 343.23126L326.73438 344.16876Q327.09375 343.5125 327.39062 343.3094Q327.70312 343.09064 328.07812 343.09064Q328.60938 343.09064 329.15625 343.41876L328.79688 344.40314Q328.40625 344.16876 328.03125 344.16876Q327.67188 344.16876 327.39062 344.3875Q327.125 344.59064 327.01562 344.96564Q326.82812 345.52814 326.82812 346.1844L326.82812 349.45L325.78125 349.45Z" fill-rule="nonzero"/><path fill="#000000" d="M33.05 300.21564Q33.05 298.6844 33.3625 297.7625Q33.675 296.825 34.284374 296.325Q34.909374 295.825 35.846874 295.825Q36.534374 295.825 37.05 296.10626Q37.58125 296.3875 37.925 296.91876Q38.26875 297.4344 38.45625 298.1844Q38.64375 298.9344 38.64375 300.21564Q38.64375 301.73126 38.33125 302.65314Q38.034374 303.575 37.409374 304.09064Q36.8 304.59064 35.846874 304.59064Q34.6125 304.59064 33.89375 303.7Q33.05 302.6375 33.05 300.21564ZM34.128124 300.21564Q34.128124 302.325 34.628124 303.02814Q35.128124 303.73126 35.846874 303.73126Q36.58125 303.73126 37.065624 303.02814Q37.565624 302.325 37.565624 300.21564Q37.565624 298.09064 37.065624 297.40314Q36.58125 296.7 35.83125 296.7Q35.1125 296.7 34.675 297.3094Q34.128124 298.09064 34.128124 300.21564Z" fill-rule="nonzero"/><path fill="#000000" d="M31.596874 241.30104L31.596874 242.31667L25.909374 242.31667Q25.909374 241.94167 26.034374 241.58229Q26.253124 241.00417 26.721874 240.44167Q27.20625 239.87917 28.1125 239.14479Q29.51875 237.98854 30.003124 237.31667Q30.503124 236.64479 30.503124 236.05104Q30.503124 235.42604 30.05 235.00417Q29.596874 234.56667 28.878124 234.56667Q28.1125 234.56667 27.659374 235.01979Q27.20625 235.47292 27.190624 236.28542L26.1125 236.17604Q26.221874 234.95729 26.940624 234.33229Q27.675 233.69167 28.909374 233.69167Q30.14375 233.69167 30.8625 234.37917Q31.58125 235.06667 31.58125 236.08229Q31.58125 236.59792 31.3625 237.09792Q31.159374 237.58229 30.659374 238.14479Q30.175 238.69167 29.05 239.64479Q28.096874 240.44167 27.815624 240.73854Q27.55 241.01979 27.378124 241.30104L31.596874 241.30104ZM33.05 238.08229Q33.05 236.55104 33.3625 235.62917Q33.675 234.69167 34.284374 234.19167Q34.909374 233.69167 35.846874 233.69167Q36.534374 233.69167 37.05 233.97292Q37.58125 234.25417 37.925 234.78542Q38.26875 235.30104 38.45625 236.05104Q38.64375 236.80104 38.64375 238.08229Q38.64375 239.59792 38.33125 240.51979Q38.034374 241.44167 37.409374 241.95729Q36.8 242.45729 35.846874 242.45729Q34.6125 242.45729 33.89375 241.56667Q33.05 240.50417 33.05 238.08229ZM34.128124 238.08229Q34.128124 240.19167 34.628124 240.89479Q35.128124 241.59792 35.846874 241.59792Q36.58125 241.59792 37.065624 240.89479Q37.565624 240.19167 37.565624 238.08229Q37.565624 235.95729 37.065624 235.26979Q36.58125 234.56667 35.83125 234.56667Q35.1125 234.56667 34.675 235.17604Q34.128124 235.95729 34.128124 238.08229Z" fill-rule="nonzero"/><path fill="#000000" d="M29.425 180.18333L29.425 178.12083L25.70625 178.12083L25.70625 177.15208L29.628124 171.58958L30.4875 171.58958L30.4875 177.15208L31.64375 177.15208L31.64375 178.12083L30.4875 178.12083L30.4875 180.18333L29.425 180.18333ZM29.425 177.15208L29.425 173.29271L26.7375 177.15208L29.425 177.15208ZM33.05 175.94896Q33.05 174.41771 33.3625 173.49583Q33.675 172.55833 34.284374 172.05833Q34.909374 171.55833 35.846874 171.55833Q36.534374 171.55833 37.05 171.83958Q37.58125 172.12083 37.925 172.65208Q38.26875 173.16771 38.45625 173.91771Q38.64375 174.66771 38.64375 175.94896Q38.64375 177.46458 38.33125 178.38646Q38.034374 179.30833 37.409374 179.82396Q36.8 180.32396 35.846874 180.32396Q34.6125 180.32396 33.89375 179.43333Q33.05 178.37083 33.05 175.94896ZM34.128124 175.94896Q34.128124 178.05833 34.628124 178.76146Q35.128124 179.46458 35.846874 179.46458Q36.58125 179.46458 37.065624 178.76146Q37.565624 178.05833 37.565624 175.94896Q37.565624 173.82396 37.065624 173.13646Q36.58125 172.43333 35.83125 172.43333Q35.1125 172.43333 34.675 173.04271Q34.128124 173.82396 34.128124 175.94896Z" fill-rule="nonzero"/><path fill="#000000" d="M31.51875 111.56563L30.471874 111.64375Q30.33125 111.01875 30.08125 110.7375Q29.64375 110.28438 29.01875 110.28438Q28.51875 110.28438 28.128124 110.56563Q27.64375 110.94063 27.346874 111.64375Q27.065624 112.33125 27.05 113.6125Q27.425 113.03438 27.971874 112.75313Q28.534374 112.47188 29.14375 112.47188Q30.190624 112.47188 30.925 113.25313Q31.675 114.03438 31.675 115.25313Q31.675 116.06563 31.315624 116.76875Q30.971874 117.45625 30.3625 117.83125Q29.753124 118.19063 28.9875 118.19063Q27.659374 118.19063 26.83125 117.22188Q26.003124 116.25313 26.003124 114.03438Q26.003124 111.53438 26.925 110.40938Q27.721874 109.425 29.08125 109.425Q30.096874 109.425 30.7375 110.00313Q31.39375 110.56563 31.51875 111.56563ZM27.221874 115.26875Q27.221874 115.81563 27.440624 116.31563Q27.675 116.8 28.08125 117.06563Q28.503124 117.33125 28.971874 117.33125Q29.628124 117.33125 30.1125 116.8Q30.596874 116.25313 30.596874 115.33125Q30.596874 114.44063 30.1125 113.925Q29.64375 113.40938 28.925 113.40938Q28.20625 113.40938 27.70625 113.925Q27.221874 114.44063 27.221874 115.26875ZM33.05 113.81563Q33.05 112.28438 33.3625 111.3625Q33.675 110.425 34.284374 109.925Q34.909374 109.425 35.846874 109.425Q36.534374 109.425 37.05 109.70625Q37.58125 109.9875 37.925 110.51875Q38.26875 111.03438 38.45625 111.78438Q38.64375 112.53438 38.64375 113.81563Q38.64375 115.33125 38.33125 116.25313Q38.034374 117.175 37.409374 117.69063Q36.8 118.19063 35.846874 118.19063Q34.6125 118.19063 33.89375 117.3Q33.05 116.2375 33.05 113.81563ZM34.128124 113.81563Q34.128124 115.925 34.628124 116.62813Q35.128124 117.33125 35.846874 117.33125Q36.58125 117.33125 37.065624 116.62813Q37.565624 115.925 37.565624 113.81563Q37.565624 111.69063 37.065624 111.00313Q36.58125 110.3 35.83125 110.3Q35.1125 110.3 34.675 110.90938Q34.128124 111.69063 34.128124 113.81563Z" fill-rule="nonzero"/><path fill="#000000" d="M27.675 51.260418Q27.01875 51.010418 26.690624 50.572918Q26.378124 50.119793 26.378124 49.510418Q26.378124 48.572918 27.05 47.932293Q27.7375 47.291668 28.846874 47.291668Q29.971874 47.291668 30.659374 47.947918Q31.346874 48.604168 31.346874 49.541668Q31.346874 50.135418 31.034374 50.572918Q30.721874 51.010418 30.08125 51.260418Q30.878124 51.510418 31.284374 52.088543Q31.690624 52.666668 31.690624 53.463543Q31.690624 54.557293 30.909374 55.307293Q30.14375 56.057293 28.8625 56.057293Q27.596874 56.057293 26.815624 55.307293Q26.034374 54.557293 26.034374 53.432293Q26.034374 52.588543 26.45625 52.026043Q26.89375 51.463543 27.675 51.260418ZM27.45625 49.463543Q27.45625 50.072918 27.846874 50.463543Q28.253124 50.854168 28.878124 50.854168Q29.4875 50.854168 29.878124 50.479168Q30.26875 50.088543 30.26875 49.526043Q30.26875 48.947918 29.8625 48.557293Q29.45625 48.151043 28.8625 48.151043Q28.253124 48.151043 27.846874 48.541668Q27.45625 48.932293 27.45625 49.463543ZM27.128124 53.432293Q27.128124 53.885418 27.33125 54.307293Q27.55 54.729168 27.971874 54.963543Q28.39375 55.197918 28.878124 55.197918Q29.628124 55.197918 30.1125 54.713543Q30.6125 54.229168 30.6125 53.479168Q30.6125 52.713543 30.1125 52.213543Q29.6125 51.713543 28.846874 51.713543Q28.096874 51.713543 27.6125 52.213543Q27.128124 52.697918 27.128124 53.432293ZM33.05 51.682293Q33.05 50.151043 33.3625 49.229168Q33.675 48.291668 34.284374 47.791668Q34.909374 47.291668 35.846874 47.291668Q36.534374 47.291668 37.05 47.572918Q37.58125 47.854168 37.925 48.385418Q38.26875 48.901043 38.45625 49.651043Q38.64375 50.401043 38.64375 51.682293Q38.64375 53.197918 38.33125 54.119793Q38.034374 55.041668 37.409374 55.557293Q36.8 56.057293 35.846874 56.057293Q34.6125 56.057293 33.89375 55.166668Q33.05 54.104168 33.05 51.682293ZM34.128124 51.682293Q34.128124 53.791668 34.628124 54.494793Q35.128124 55.197918 35.846874 55.197918Q36.58125 55.197918 37.065624 54.494793Q37.565624 53.791668 37.565624 51.682293Q37.565624 49.557293 37.065624 48.869793Q36.58125 48.166668 35.83125 48.166668Q35.1125 48.166668 34.675 48.776043Q34.128124 49.557293 34.128124 51.682293Z" fill-rule="nonzero"/><path fill="#000000" d="M42.55 313.21564Q42.55 311.6844 42.8625 310.7625Q43.175 309.825 43.784374 309.325Q44.409374 308.825 45.346874 308.825Q46.034374 308.825 46.55 309.10626Q47.08125 309.3875 47.425 309.91876Q47.76875 310.4344 47.95625 311.1844Q48.14375 311.9344 48.14375 313.21564Q48.14375 314.73126 47.83125 315.65314Q47.534374 316.575 46.909374 317.09064Q46.3 317.59064 45.346874 317.59064Q44.1125 317.59064 43.39375 316.7Q42.55 315.6375 42.55 313.21564ZM43.628124 313.21564Q43.628124 315.325 44.128124 316.02814Q44.628124 316.73126 45.346874 316.73126Q46.08125 316.73126 46.565624 316.02814Q47.065624 315.325 47.065624 313.21564Q47.065624 311.09064 46.565624 310.40314Q46.08125 309.7 45.33125 309.7Q44.6125 309.7 44.175 310.3094Q43.628124 311.09064 43.628124 313.21564Z" fill-rule="nonzero"/><path fill="#000000" d="M154.19583 315.2L155.3052 315.10626Q155.4302 315.91876 155.8677 316.325Q156.32083 316.73126 156.96146 316.73126Q157.71146 316.73126 158.2427 316.15314Q158.77396 315.575 158.77396 314.6375Q158.77396 313.73126 158.25833 313.21564Q157.75833 312.6844 156.9302 312.6844Q156.4302 312.6844 156.00833 312.91876Q155.60208 313.15314 155.3677 313.5125L154.38333 313.3875L155.21146 308.98126L159.4927 308.98126L159.4927 309.98126L156.0552 309.98126L155.60208 312.29376Q156.3677 311.7469 157.21146 311.7469Q158.33646 311.7469 159.10208 312.52814Q159.88333 313.3094 159.88333 314.54376Q159.88333 315.7 159.21146 316.5594Q158.38333 317.59064 156.96146 317.59064Q155.78958 317.59064 155.03958 316.9344Q154.3052 316.27814 154.19583 315.2Z" fill-rule="nonzero"/><path fill="#000000" d="M266.31042 317.45L265.26355 317.45L265.26355 310.73126Q264.87292 311.09064 264.24792 311.46564Q263.63855 311.825 263.15417 311.9969L263.15417 310.98126Q264.02917 310.5594 264.68542 309.98126Q265.3573 309.3875 265.63855 308.825L266.31042 308.825L266.31042 317.45ZM269.34167 313.21564Q269.34167 311.6844 269.65417 310.7625Q269.96667 309.825 270.57605 309.325Q271.20105 308.825 272.13855 308.825Q272.82605 308.825 273.34167 309.10626Q273.87292 309.3875 274.21667 309.91876Q274.56042 310.4344 274.74792 311.1844Q274.93542 311.9344 274.93542 313.21564Q274.93542 314.73126 274.62292 315.65314Q274.32605 316.575 273.70105 317.09064Q273.09167 317.59064 272.13855 317.59064Q270.90417 317.59064 270.18542 316.7Q269.34167 315.6375 269.34167 313.21564ZM270.4198 313.21564Q270.4198 315.325 270.9198 316.02814Q271.4198 316.73126 272.13855 316.73126Q272.87292 316.73126 273.3573 316.02814Q273.8573 315.325 273.8573 313.21564Q273.8573 311.09064 273.3573 310.40314Q272.87292 309.7 272.12292 309.7Q271.40417 309.7 270.96667 310.3094Q270.4198 311.09064 270.4198 313.21564Z" fill-rule="nonzero"/><path fill="#000000" d="M377.95624 317.45L376.90936 317.45L376.90936 310.73126Q376.51874 311.09064 375.89374 311.46564Q375.28436 311.825 374.8 311.9969L374.8 310.98126Q375.675 310.5594 376.33124 309.98126Q377.0031 309.3875 377.28436 308.825L377.95624 308.825L377.95624 317.45ZM380.9875 315.2L382.09686 315.10626Q382.22186 315.91876 382.65936 316.325Q383.1125 316.73126 383.7531 316.73126Q384.5031 316.73126 385.03436 316.15314Q385.5656 315.575 385.5656 314.6375Q385.5656 313.73126 385.05 313.21564Q384.55 312.6844 383.72186 312.6844Q383.22186 312.6844 382.8 312.91876Q382.39374 313.15314 382.15936 313.5125L381.175 313.3875L382.0031 308.98126L386.28436 308.98126L386.28436 309.98126L382.84686 309.98126L382.39374 312.29376Q383.15936 311.7469 384.0031 311.7469Q385.1281 311.7469 385.89374 312.52814Q386.675 313.3094 386.675 314.54376Q386.675 315.7 386.0031 316.5594Q385.175 317.59064 383.7531 317.59064Q382.58124 317.59064 381.83124 316.9344Q381.09686 316.27814 380.9875 315.2Z" fill-rule="nonzero"/><path fill="#000000" d="M491.1802 316.4344L491.1802 317.45L485.4927 317.45Q485.4927 317.075 485.6177 316.71564Q485.83646 316.1375 486.3052 315.575Q486.78958 315.0125 487.69583 314.27814Q489.10208 313.1219 489.58646 312.45Q490.08646 311.77814 490.08646 311.1844Q490.08646 310.5594 489.63333 310.1375Q489.1802 309.7 488.46146 309.7Q487.69583 309.7 487.2427 310.15314Q486.78958 310.60626 486.77396 311.41876L485.69583 311.3094Q485.8052 310.09064 486.52396 309.46564Q487.25833 308.825 488.4927 308.825Q489.72708 308.825 490.44583 309.5125Q491.16458 310.2 491.16458 311.21564Q491.16458 311.73126 490.94583 312.23126Q490.7427 312.71564 490.2427 313.27814Q489.75833 313.825 488.63333 314.77814Q487.6802 315.575 487.39896 315.8719Q487.13333 316.15314 486.96146 316.4344L491.1802 316.4344ZM492.63333 313.21564Q492.63333 311.6844 492.94583 310.7625Q493.25833 309.825 493.8677 309.325Q494.4927 308.825 495.4302 308.825Q496.1177 308.825 496.63333 309.10626Q497.16458 309.3875 497.50833 309.91876Q497.85208 310.4344 498.03958 311.1844Q498.22708 311.9344 498.22708 313.21564Q498.22708 314.73126 497.91458 315.65314Q497.6177 316.575 496.9927 317.09064Q496.38333 317.59064 495.4302 317.59064Q494.19583 317.59064 493.47708 316.7Q492.63333 315.6375 492.63333 313.21564ZM493.71146 313.21564Q493.71146 315.325 494.21146 316.02814Q494.71146 316.73126 495.4302 316.73126Q496.16458 316.73126 496.64896 316.02814Q497.14896 315.325 497.14896 313.21564Q497.14896 311.09064 496.64896 310.40314Q496.16458 309.7 495.41458 309.7Q494.69583 309.7 494.25833 310.3094Q493.71146 311.09064 493.71146 313.21564Z" fill-rule="nonzero"/><path stroke="#4285f4" stroke-width="4.0" stroke-linecap="butt" d="M155.5 25.55L167.5 25.55" fill-rule="nonzero"/><path fill="#1a1a1a" d="M176.42188 29.55L176.42188 20.95625L179.67188 20.95625Q180.51562 20.95625 180.96875 21.034374Q181.60938 21.14375 182.03125 21.440624Q182.46875 21.7375 182.71875 22.26875Q182.98438 22.8 182.98438 23.440624Q182.98438 24.534374 182.28125 25.3Q181.59375 26.05 179.76562 26.05L177.5625 26.05L177.5625 29.55L176.42188 29.55ZM177.5625 25.05L179.78125 25.05Q180.89062 25.05 181.34375 24.64375Q181.8125 24.221874 181.8125 23.471874Q181.8125 22.940624 181.53125 22.565624Q181.26562 22.175 180.82812 22.05Q180.53125 21.971874 179.76562 21.971874L177.5625 21.971874L177.5625 25.05ZM188.35938 28.784374Q187.76562 29.284374 187.21875 29.4875Q186.6875 29.690624 186.0625 29.690624Q185.03125 29.690624 184.48438 29.190624Q183.9375 28.690624 183.9375 27.909374Q183.9375 27.45625 184.14062 27.08125Q184.34375 26.690624 184.6875 26.471874Q185.03125 26.2375 185.45312 26.128124Q185.75 26.034374 186.39062 25.95625Q187.65625 25.815624 188.26562 25.596874Q188.26562 25.378124 188.26562 25.33125Q188.26562 24.675 187.96875 24.409374Q187.5625 24.065624 186.76562 24.065624Q186.03125 24.065624 185.67188 24.33125Q185.3125 24.58125 185.14062 25.2375L184.10938 25.096874Q184.25 24.440624 184.57812 24.034374Q184.90625 23.628124 185.51562 23.409374Q186.125 23.190624 186.92188 23.190624Q187.71875 23.190624 188.21875 23.378124Q188.71875 23.565624 188.95312 23.846874Q189.1875 24.128124 189.28125 24.565624Q189.32812 24.83125 189.32812 25.534374L189.32812 26.940624Q189.32812 28.409374 189.39062 28.8Q189.46875 29.190624 189.67188 29.55L188.5625 29.55Q188.40625 29.221874 188.35938 28.784374ZM188.26562 26.425Q187.6875 26.659374 186.54688 26.83125Q185.89062 26.925 185.625 27.05Q185.35938 27.159374 185.20312 27.378124Q185.0625 27.596874 185.0625 27.878124Q185.0625 28.3 185.375 28.58125Q185.70312 28.8625 186.3125 28.8625Q186.92188 28.8625 187.39062 28.596874Q187.875 28.33125 188.09375 27.8625Q188.26562 27.503124 188.26562 26.815624L188.26562 26.425ZM191.28125 29.55L191.28125 23.33125L192.23438 23.33125L192.23438 24.26875Q192.59375 23.6125 192.89062 23.409374Q193.20312 23.190624 193.57812 23.190624Q194.10938 23.190624 194.65625 23.51875L194.29688 24.503124Q193.90625 24.26875 193.53125 24.26875Q193.17188 24.26875 192.89062 24.4875Q192.625 24.690624 192.51562 25.065624Q192.32812 25.628124 192.32812 26.284374L192.32812 29.55L191.28125 29.55ZM199.54688 27.55L200.64062 27.675Q200.39062 28.628124 199.6875 29.159374Q198.98438 29.690624 197.90625 29.690624Q196.54688 29.690624 195.73438 28.846874Q194.9375 28.003124 194.9375 26.4875Q194.9375 24.925 195.75 24.065624Q196.5625 23.190624 197.84375 23.190624Q199.09375 23.190624 199.875 24.034374Q200.67188 24.878124 200.67188 26.425Q200.67188 26.51875 200.67188 26.70625L196.03125 26.70625Q196.09375 27.7375 196.60938 28.284374Q197.125 28.815624 197.90625 28.815624Q198.48438 28.815624 198.89062 28.51875Q199.3125 28.20625 199.54688 27.55ZM196.09375 25.846874L199.5625 25.846874Q199.5 25.05 199.17188 24.659374Q198.65625 24.05 197.85938 24.05Q197.125 24.05 196.625 24.534374Q196.14062 25.01875 196.09375 25.846874ZM202.29688 29.55L202.29688 23.33125L203.23438 23.33125L203.23438 24.20625Q203.92188 23.190624 205.21875 23.190624Q205.78125 23.190624 206.25 23.39375Q206.73438 23.596874 206.96875 23.925Q207.20312 24.253124 207.29688 24.690624Q207.34375 24.9875 207.34375 25.721874L207.34375 29.55L206.29688 29.55L206.29688 25.76875Q206.29688 25.1125 206.17188 24.8Q206.04688 24.4875 205.73438 24.3Q205.42188 24.096874 205.0 24.096874Q204.32812 24.096874 203.82812 24.534374Q203.34375 24.95625 203.34375 26.14375L203.34375 29.55L202.29688 29.55ZM211.59375 28.6125L211.75 29.534374Q211.29688 29.628124 210.95312 29.628124Q210.375 29.628124 210.0625 29.45625Q209.75 29.26875 209.60938 28.971874Q209.48438 28.675 209.48438 27.721874L209.48438 24.14375L208.71875 24.14375L208.71875 23.33125L209.48438 23.33125L209.48438 21.784374L210.53125 21.159374L210.53125 23.33125L211.59375 23.33125L211.59375 24.14375L210.53125 24.14375L210.53125 27.784374Q210.53125 28.2375 210.57812 28.3625Q210.64062 28.4875 210.76562 28.565624Q210.89062 28.64375 211.125 28.64375Q211.3125 28.64375 211.59375 28.6125Z" fill-rule="nonzero"/><path stroke="#ea4335" stroke-width="4.0" stroke-linecap="butt" d="M227.5 25.55L239.5 25.55" fill-rule="nonzero"/><path fill="#1a1a1a" d="M252.45312 26.175L252.45312 25.175L256.07812 25.159374L256.07812 28.346874Q255.25 29.01875 254.35938 29.3625Q253.46875 29.690624 252.53125 29.690624Q251.26562 29.690624 250.21875 29.159374Q249.1875 28.6125 248.65625 27.596874Q248.14062 26.565624 248.14062 25.3Q248.14062 24.034374 248.65625 22.95625Q249.1875 21.8625 250.17188 21.346874Q251.15625 20.815624 252.4375 20.815624Q253.375 20.815624 254.125 21.1125Q254.875 21.409374 255.29688 21.95625Q255.73438 22.4875 255.95312 23.3625L254.9375 23.64375Q254.73438 22.9875 254.4375 22.6125Q254.15625 22.2375 253.625 22.01875Q253.09375 21.784374 252.45312 21.784374Q251.67188 21.784374 251.09375 22.01875Q250.53125 22.253124 250.17188 22.64375Q249.82812 23.034374 249.64062 23.503124Q249.3125 24.3 249.3125 25.221874Q249.3125 26.378124 249.70312 27.159374Q250.10938 27.925 250.85938 28.3Q251.60938 28.675 252.46875 28.675Q253.20312 28.675 253.90625 28.39375Q254.60938 28.096874 254.96875 27.784374L254.96875 26.175L252.45312 26.175ZM257.42188 29.55L257.42188 20.95625L260.67188 20.95625Q261.51562 20.95625 261.96875 21.034374Q262.60938 21.14375 263.03125 21.440624Q263.46875 21.7375 263.71875 22.26875Q263.98438 22.8 263.98438 23.440624Q263.98438 24.534374 263.28125 25.3Q262.59375 26.05 260.76562 26.05L258.5625 26.05L258.5625 29.55L257.42188 29.55ZM258.5625 25.05L260.78125 25.05Q261.89062 25.05 262.34375 24.64375Q262.8125 24.221874 262.8125 23.471874Q262.8125 22.940624 262.53125 22.565624Q262.26562 22.175 261.82812 22.05Q261.53125 21.971874 260.76562 21.971874L258.5625 21.971874L258.5625 25.05ZM269.35938 28.784374Q268.76562 29.284374 268.21875 29.4875Q267.6875 29.690624 267.0625 29.690624Q266.03125 29.690624 265.48438 29.190624Q264.9375 28.690624 264.9375 27.909374Q264.9375 27.45625 265.14062 27.08125Q265.34375 26.690624 265.6875 26.471874Q266.03125 26.2375 266.45312 26.128124Q266.75 26.034374 267.39062 25.95625Q268.65625 25.815624 269.26562 25.596874Q269.26562 25.378124 269.26562 25.33125Q269.26562 24.675 268.96875 24.409374Q268.5625 24.065624 267.76562 24.065624Q267.03125 24.065624 266.67188 24.33125Q266.3125 24.58125 266.14062 25.2375L265.10938 25.096874Q265.25 24.440624 265.57812 24.034374Q265.90625 23.628124 266.51562 23.409374Q267.125 23.190624 267.92188 23.190624Q268.71875 23.190624 269.21875 23.378124Q269.71875 23.565624 269.95312 23.846874Q270.1875 24.128124 270.28125 24.565624Q270.32812 24.83125 270.32812 25.534374L270.32812 26.940624Q270.32812 28.409374 270.39062 28.8Q270.46875 29.190624 270.67188 29.55L269.5625 29.55Q269.40625 29.221874 269.35938 28.784374ZM269.26562 26.425Q268.6875 26.659374 267.54688 26.83125Q266.89062 26.925 266.625 27.05Q266.35938 27.159374 266.20312 27.378124Q266.0625 27.596874 266.0625 27.878124Q266.0625 28.3 266.375 28.58125Q266.70312 28.8625 267.3125 28.8625Q267.92188 28.8625 268.39062 28.596874Q268.875 28.33125 269.09375 27.8625Q269.26562 27.503124 269.26562 26.815624L269.26562 26.425ZM272.28125 29.55L272.28125 23.33125L273.23438 23.33125L273.23438 24.26875Q273.59375 23.6125 273.89062 23.409374Q274.20312 23.190624 274.57812 23.190624Q275.10938 23.190624 275.65625 23.51875L275.29688 24.503124Q274.90625 24.26875 274.53125 24.26875Q274.17188 24.26875 273.89062 24.4875Q273.625 24.690624 273.51562 25.065624Q273.32812 25.628124 273.32812 26.284374L273.32812 29.55L272.28125 29.55ZM280.54688 27.55L281.64062 27.675Q281.39062 28.628124 280.6875 29.159374Q279.98438 29.690624 278.90625 29.690624Q277.54688 29.690624 276.73438 28.846874Q275.9375 28.003124 275.9375 26.4875Q275.9375 24.925 276.75 24.065624Q277.5625 23.190624 278.84375 23.190624Q280.09375 23.190624 280.875 24.034374Q281.67188 24.878124 281.67188 26.425Q281.67188 26.51875 281.67188 26.70625L277.03125 26.70625Q277.09375 27.7375 277.60938 28.284374Q278.125 28.815624 278.90625 28.815624Q279.48438 28.815624 279.89062 28.51875Q280.3125 28.20625 280.54688 27.55ZM277.09375 25.846874L280.5625 25.846874Q280.5 25.05 280.17188 24.659374Q279.65625 24.05 278.85938 24.05Q278.125 24.05 277.625 24.534374Q277.14062 25.01875 277.09375 25.846874ZM283.29688 29.55L283.29688 23.33125L284.23438 23.33125L284.23438 24.20625Q284.92188 23.190624 286.21875 23.190624Q286.78125 23.190624 287.25 23.39375Q287.73438 23.596874 287.96875 23.925Q288.20312 24.253124 288.29688 24.690624Q288.34375 24.9875 288.34375 25.721874L288.34375 29.55L287.29688 29.55L287.29688 25.76875Q287.29688 25.1125 287.17188 24.8Q287.04688 24.4875 286.73438 24.3Q286.42188 24.096874 286.0 24.096874Q285.32812 24.096874 284.82812 24.534374Q284.34375 24.95625 284.34375 26.14375L284.34375 29.55L283.29688 29.55ZM292.59375 28.6125L292.75 29.534374Q292.29688 29.628124 291.95312 29.628124Q291.375 29.628124 291.0625 29.45625Q290.75 29.26875 290.60938 28.971874Q290.48438 28.675 290.48438 27.721874L290.48438 24.14375L289.71875 24.14375L289.71875 23.33125L290.48438 23.33125L290.48438 21.784374L291.53125 21.159374L291.53125 23.33125L292.59375 23.33125L292.59375 24.14375L291.53125 24.14375L291.53125 27.784374Q291.53125 28.2375 291.57812 28.3625Q291.64062 28.4875 291.76562 28.565624Q291.89062 28.64375 292.125 28.64375Q292.3125 28.64375 292.59375 28.6125Z" fill-rule="nonzero"/><path stroke="#fbbc04" stroke-width="4.0" stroke-linecap="butt" d="M308.5 25.55L320.5 25.55" fill-rule="nonzero"/><path fill="#1a1a1a" d="M333.45312 26.175L333.45312 25.175L337.07812 25.159374L337.07812 28.346874Q336.25 29.01875 335.35938 29.3625Q334.46875 29.690624 333.53125 29.690624Q332.26562 29.690624 331.21875 29.159374Q330.1875 28.6125 329.65625 27.596874Q329.14062 26.565624 329.14062 25.3Q329.14062 24.034374 329.65625 22.95625Q330.1875 21.8625 331.17188 21.346874Q332.15625 20.815624 333.4375 20.815624Q334.375 20.815624 335.125 21.1125Q335.875 21.409374 336.29688 21.95625Q336.73438 22.4875 336.95312 23.3625L335.9375 23.64375Q335.73438 22.9875 335.4375 22.6125Q335.15625 22.2375 334.625 22.01875Q334.09375 21.784374 333.45312 21.784374Q332.67188 21.784374 332.09375 22.01875Q331.53125 22.253124 331.17188 22.64375Q330.82812 23.034374 330.64062 23.503124Q330.3125 24.3 330.3125 25.221874Q330.3125 26.378124 330.70312 27.159374Q331.10938 27.925 331.85938 28.3Q332.60938 28.675 333.46875 28.675Q334.20312 28.675 334.90625 28.39375Q335.60938 28.096874 335.96875 27.784374L335.96875 26.175L333.45312 26.175ZM342.45312 26.175L342.45312 25.175L346.07812 25.159374L346.07812 28.346874Q345.25 29.01875 344.35938 29.3625Q343.46875 29.690624 342.53125 29.690624Q341.26562 29.690624 340.21875 29.159374Q339.1875 28.6125 338.65625 27.596874Q338.14062 26.565624 338.14062 25.3Q338.14062 24.034374 338.65625 22.95625Q339.1875 21.8625 340.17188 21.346874Q341.15625 20.815624 342.4375 20.815624Q343.375 20.815624 344.125 21.1125Q344.875 21.409374 345.29688 21.95625Q345.73438 22.4875 345.95312 23.3625L344.9375 23.64375Q344.73438 22.9875 344.4375 22.6125Q344.15625 22.2375 343.625 22.01875Q343.09375 21.784374 342.45312 21.784374Q341.67188 21.784374 341.09375 22.01875Q340.53125 22.253124 340.17188 22.64375Q339.82812 23.034374 339.64062 23.503124Q339.3125 24.3 339.3125 25.221874Q339.3125 26.378124 339.70312 27.159374Q340.10938 27.925 340.85938 28.3Q341.60938 28.675 342.46875 28.675Q343.20312 28.675 343.90625 28.39375Q344.60938 28.096874 344.96875 27.784374L344.96875 26.175L342.45312 26.175ZM347.42188 29.55L347.42188 20.95625L350.67188 20.95625Q351.51562 20.95625 351.96875 21.034374Q352.60938 21.14375 353.03125 21.440624Q353.46875 21.7375 353.71875 22.26875Q353.98438 22.8 353.98438 23.440624Q353.98438 24.534374 353.28125 25.3Q352.59375 26.05 350.76562 26.05L348.5625 26.05L348.5625 29.55L347.42188 29.55ZM348.5625 25.05L350.78125 25.05Q351.89062 25.05 352.34375 24.64375Q352.8125 24.221874 352.8125 23.471874Q352.8125 22.940624 352.53125 22.565624Q352.26562 22.175 351.82812 22.05Q351.53125 21.971874 350.76562 21.971874L348.5625 21.971874L348.5625 25.05ZM359.35938 28.784374Q358.76562 29.284374 358.21875 29.4875Q357.6875 29.690624 357.0625 29.690624Q356.03125 29.690624 355.48438 29.190624Q354.9375 28.690624 354.9375 27.909374Q354.9375 27.45625 355.14062 27.08125Q355.34375 26.690624 355.6875 26.471874Q356.03125 26.2375 356.45312 26.128124Q356.75 26.034374 357.39062 25.95625Q358.65625 25.815624 359.26562 25.596874Q359.26562 25.378124 359.26562 25.33125Q359.26562 24.675 358.96875 24.409374Q358.5625 24.065624 357.76562 24.065624Q357.03125 24.065624 356.67188 24.33125Q356.3125 24.58125 356.14062 25.2375L355.10938 25.096874Q355.25 24.440624 355.57812 24.034374Q355.90625 23.628124 356.51562 23.409374Q357.125 23.190624 357.92188 23.190624Q358.71875 23.190624 359.21875 23.378124Q359.71875 23.565624 359.95312 23.846874Q360.1875 24.128124 360.28125 24.565624Q360.32812 24.83125 360.32812 25.534374L360.32812 26.940624Q360.32812 28.409374 360.39062 28.8Q360.46875 29.190624 360.67188 29.55L359.5625 29.55Q359.40625 29.221874 359.35938 28.784374ZM359.26562 26.425Q358.6875 26.659374 357.54688 26.83125Q356.89062 26.925 356.625 27.05Q356.35938 27.159374 356.20312 27.378124Q356.0625 27.596874 356.0625 27.878124Q356.0625 28.3 356.375 28.58125Q356.70312 28.8625 357.3125 28.8625Q357.92188 28.8625 358.39062 28.596874Q358.875 28.33125 359.09375 27.8625Q359.26562 27.503124 359.26562 26.815624L359.26562 26.425ZM362.28125 29.55L362.28125 23.33125L363.23438 23.33125L363.23438 24.26875Q363.59375 23.6125 363.89062 23.409374Q364.20312 23.190624 364.57812 23.190624Q365.10938 23.190624 365.65625 23.51875L365.29688 24.503124Q364.90625 24.26875 364.53125 24.26875Q364.17188 24.26875 363.89062 24.4875Q363.625 24.690624 363.51562 25.065624Q363.32812 25.628124 363.32812 26.284374L363.32812 29.55L362.28125 29.55ZM370.54688 27.55L371.64062 27.675Q371.39062 28.628124 370.6875 29.159374Q369.98438 29.690624 368.90625 29.690624Q367.54688 29.690624 366.73438 28.846874Q365.9375 28.003124 365.9375 26.4875Q365.9375 24.925 366.75 24.065624Q367.5625 23.190624 368.84375 23.190624Q370.09375 23.190624 370.875 24.034374Q371.67188 24.878124 371.67188 26.425Q371.67188 26.51875 371.67188 26.70625L367.03125 26.70625Q367.09375 27.7375 367.60938 28.284374Q368.125 28.815624 368.90625 28.815624Q369.48438 28.815624 369.89062 28.51875Q370.3125 28.20625 370.54688 27.55ZM367.09375 25.846874L370.5625 25.846874Q370.5 25.05 370.17188 24.659374Q369.65625 24.05 368.85938 24.05Q368.125 24.05 367.625 24.534374Q367.14062 25.01875 367.09375 25.846874ZM373.29688 29.55L373.29688 23.33125L374.23438 23.33125L374.23438 24.20625Q374.92188 23.190624 376.21875 23.190624Q376.78125 23.190624 377.25 23.39375Q377.73438 23.596874 377.96875 23.925Q378.20312 24.253124 378.29688 24.690624Q378.34375 24.9875 378.34375 25.721874L378.34375 29.55L377.29688 29.55L377.29688 25.76875Q377.29688 25.1125 377.17188 24.8Q377.04688 24.4875 376.73438 24.3Q376.42188 24.096874 376.0 24.096874Q375.32812 24.096874 374.82812 24.534374Q374.34375 24.95625 374.34375 26.14375L374.34375 29.55L373.29688 29.55ZM382.59375 28.6125L382.75 29.534374Q382.29688 29.628124 381.95312 29.628124Q381.375 29.628124 381.0625 29.45625Q380.75 29.26875 380.60938 28.971874Q380.48438 28.675 380.48438 27.721874L380.48438 24.14375L379.71875 24.14375L379.71875 23.33125L380.48438 23.33125L380.48438 21.784374L381.53125 21.159374L381.53125 23.33125L382.59375 23.33125L382.59375 24.14375L381.53125 24.14375L381.53125 27.784374Q381.53125 28.2375 381.57812 28.3625Q381.64062 28.4875 381.76562 28.565624Q381.89062 28.64375 382.125 28.64375Q382.3125 28.64375 382.59375 28.6125Z" fill-rule="nonzero"/><path stroke="#34a853" stroke-width="4.0" stroke-linecap="butt" d="M398.5 25.55L410.5 25.55" fill-rule="nonzero"/><path fill="#1a1a1a" d="M419.4375 29.55L419.4375 20.95625L423.25 20.95625Q424.40625 20.95625 425.0 21.190624Q425.59375 21.425 425.95312 22.01875Q426.3125 22.596874 426.3125 23.3Q426.3125 24.221874 425.71875 24.846874Q425.125 25.471874 423.89062 25.64375Q424.34375 25.8625 424.57812 26.065624Q425.07812 26.51875 425.51562 27.20625L427.01562 29.55L425.57812 29.55L424.45312 27.76875Q423.95312 26.9875 423.625 26.58125Q423.3125 26.175 423.04688 26.01875Q422.79688 25.846874 422.53125 25.76875Q422.34375 25.7375 421.90625 25.7375L420.57812 25.7375L420.57812 29.55L419.4375 29.55ZM420.57812 24.753124L423.03125 24.753124Q423.79688 24.753124 424.23438 24.596874Q424.6875 24.425 424.90625 24.08125Q425.14062 23.721874 425.14062 23.3Q425.14062 22.690624 424.6875 22.3Q424.25 21.909374 423.29688 21.909374L420.57812 21.909374L420.57812 24.753124ZM427.90625 26.440624Q427.90625 24.70625 428.85938 23.878124Q429.65625 23.190624 430.8125 23.190624Q432.09375 23.190624 432.90625 24.034374Q433.73438 24.8625 433.73438 26.346874Q433.73438 27.55 433.375 28.2375Q433.01562 28.925 432.3125 29.315624Q431.625 29.690624 430.8125 29.690624Q429.51562 29.690624 428.70312 28.8625Q427.90625 28.01875 427.90625 26.440624ZM428.98438 26.440624Q428.98438 27.628124 429.5 28.221874Q430.03125 28.815624 430.8125 28.815624Q431.60938 28.815624 432.125 28.221874Q432.64062 27.628124 432.64062 26.409374Q432.64062 25.253124 432.10938 24.659374Q431.59375 24.065624 430.8125 24.065624Q430.03125 24.065624 429.5 24.659374Q428.98438 25.2375 428.98438 26.440624ZM434.90625 26.440624Q434.90625 24.70625 435.85938 23.878124Q436.65625 23.190624 437.8125 23.190624Q439.09375 23.190624 439.90625 24.034374Q440.73438 24.8625 440.73438 26.346874Q440.73438 27.55 440.375 28.2375Q440.01562 28.925 439.3125 29.315624Q438.625 29.690624 437.8125 29.690624Q436.51562 29.690624 435.70312 28.8625Q434.90625 28.01875 434.90625 26.440624ZM435.98438 26.440624Q435.98438 27.628124 436.5 28.221874Q437.03125 28.815624 437.8125 28.815624Q438.60938 28.815624 439.125 28.221874Q439.64062 27.628124 439.64062 26.409374Q439.64062 25.253124 439.10938 24.659374Q438.59375 24.065624 437.8125 24.065624Q437.03125 24.065624 436.5 24.659374Q435.98438 25.2375 435.98438 26.440624ZM444.59375 28.6125L444.75 29.534374Q444.29688 29.628124 443.95312 29.628124Q443.375 29.628124 443.0625 29.45625Q442.75 29.26875 442.60938 28.971874Q442.48438 28.675 442.48438 27.721874L442.48438 24.14375L441.71875 24.14375L441.71875 23.33125L442.48438 23.33125L442.48438 21.784374L443.53125 21.159374L443.53125 23.33125L444.59375 23.33125L444.59375 24.14375L443.53125 24.14375L443.53125 27.784374Q443.53125 28.2375 443.57812 28.3625Q443.64062 28.4875 443.76562 28.565624Q443.89062 28.64375 444.125 28.64375Q444.3125 28.64375 444.59375 28.6125Z" fill-rule="nonzero"/></svg>