<svg version="1.1" viewBox="0.0 0.0 525.0 371.0" fill="none" stroke="none" stroke-linecap="square" stroke-miterlimit="10" width="525" height="371" xmlns:xlink="http://www.w3.org/1999/xlink" xmlns="http://www.w3.org/2000/svg"><path fill="#ffffff" d="M0 0L525.0 0L525.0 371.0L0 371.0L0 0Z" fill-rule="nonzero"/><path stroke="#333333" stroke-width="1.0" stroke-linecap="butt" d="M45.5 51.5L45.5 332.5" fill-rule="nonzero"/><path stroke="#cccccc" stroke-width="1.0" stroke-linecap="butt" d="M122.5 51.5L122.5 332.5" fill-rule="nonzero"/><path stroke="#cccccc" stroke-width="1.0" stroke-linecap="butt" d="M199.5 51.5L199.5 332.5" fill-rule="nonzero"/><path stroke="#cccccc" stroke-width="1.0" stroke-linecap="butt" d="M276.5 51.5L276.5 332.5" fill-rule="nonzero"/><path stroke="#cccccc" stroke-width="1.0" stroke-linecap="butt" d="M352.5 51.5L352.5 332.5" fill-rule="nonzero"/><path stroke="#cccccc" stroke-width="1.0" stroke-linecap="butt" d="M429.5 51.5L429.5 332.5" fill-rule="nonzero"/><path stroke="#cccccc" stroke-width="1.0" stroke-linecap="butt" d="M506.5 51.5L506.5 332.5" fill-rule="nonzero"/><path stroke="#333333" stroke-width="1.0" stroke-linecap="butt" d="M45.5 332.5L506.5 332.5" fill-rule="nonzero"/><path stroke="#cccccc" stroke-width="1.0" stroke-linecap="butt" d="M45.5 262.5L506.5 262.5" fill-rule="nonzero"/><path stroke="#cccccc" stroke-width="1.0" stroke-linecap="butt" d="M45.5 192.5L506.5 192.5" fill-rule="nonzero"/><path stroke="#cccccc" stroke-width="1.0" stroke-linecap="butt" d="M45.5 122.5L506.5 122.5" fill-rule="nonzero"/><path stroke="#cccccc" stroke-width="1.0" stroke-linecap="butt" d="M45.5 51.5L506.5 51.5" fill-rule="nonzero"/><clipPath id="id_0"><path d="M45.55 51.916668L506.45 51.916668L506.45 332.45L45.55 332.45L45.55 51.916668Z" clip-rule="nonzero"/></clipPath><path stroke="#4285f4" stroke-width="2.0" stroke-linecap="butt" clip-path="url(#id_0)" d="M506.45 112.606544L468.04166 111.76144L429.63333 111.09868L391.225 110.2711L352.81668 110.61125L314.40833 111.14777L276.0 112.81344L237.59166 114.89991L199.18333 115.709946L160.775 116.88818L122.36667 117.35808L83.958336 119.77768L45.55 121.68881" fill-rule="nonzero"/><path stroke="#ea4335" stroke-width="2.0" stroke-linecap="butt" clip-path="url(#id_0)" d="M506.45 145.58324L468.04166 145.39388L429.63333 144.30681L391.225 143.28287L352.81668 144.91347L314.40833 146.22145L276.0 148.86197L237.59166 152.53696L199.18333 154.45862L160.775 156.11375L122.36667 157.20784L83.958336 160.94945L45.55 165.90086" fill-rule="nonzero"/><path stroke="#fbbc04" stroke-width="2.0" stroke-linecap="butt" clip-path="url(#id_0)" d="M506.45 163.58997L468.04166 163.5514L429.63333 163.1762L391.225 162.84656L352.81668 165.67644L314.40833 167.0756L276.0 169.5513L237.59166 172.71432L199.18333 174.94106L160.775 177.13623L122.36667 178.67566L83.958336 183.38861L45.55 192.36919" fill-rule="nonzero"/><path stroke="#34a853" stroke-width="2.0" stroke-linecap="butt" clip-path="url(#id_0)" d="M506.45 188.13313L468.04166 188.75381L429.63333 187.77896L391.225 189.30086L352.81668 190.87184L314.40833 191.45746L276.0 194.23824L237.59166 195.3709L199.18333 199.50876L160.775 198.48833L122.36667 202.75945L83.958336 202.4263L45.55 219.32494" fill-rule="nonzero"/><path fill="#000000" fill-opacity="0.0" clip-path="url(#id_0)" d="M509.45 112.606544C509.45 114.2634 508.10684 115.606544 506.45 115.606544C504.79315 115.606544 503.45 114.2634 503.45 112.606544C503.45 110.94969 504.79315 109.606544 506.45 109.606544C508.10684 109.606544 509.45 110.94969 509.45 112.606544Z" fill-rule="nonzero"/><path fill="#000000" fill-opacity="0.0" clip-path="url(#id_0)" d="M471.04166 111.76144C471.04166 113.4183 469.69852 114.76144 468.04166 114.76144C466.38483 114.76144 465.04166 113.4183 465.04166 111.76144C465.04166 110.10458 466.38483 108.76144 468.04166 108.76144C469.69852 108.76144 471.04166 110.10458 471.04166 111.76144Z" fill-rule="nonzero"/><path fill="#000000" fill-opacity="0.0" clip-path="url(#id_0)" d="M432.63333 111.09868C432.63333 112.75553 431.2902 114.09868 429.63333 114.09868C427.97647 114.09868 426.63333 112.75553 426.63333 111.09868C426.63333 109.441826 427.97647 108.09868 429.63333 108.09868C431.2902 108.09868 432.63333 109.441826 432.63333 111.09868Z" fill-rule="nonzero"/><path fill="#000000" fill-opacity="0.0" clip-path="url(#id_0)" d="M394.225 110.2711C394.225 111.92796 392.88187 113.2711 391.225 113.2711C389.56815 113.2711 388.225 111.92796 388.225 110.2711C388.225 108.61425 389.56815 107.2711 391.225 107.2711C392.88187 107.2711 394.225 108.61425 394.225 110.2711Z" fill-rule="nonzero"/><path fill="#000000" fill-opacity="0.0" clip-path="url(#id_0)" d="M355.81668 110.61125C355.81668 112.268105 354.4735 113.61125 352.81668 113.61125C351.15982 113.61125 349.81668 112.268105 349.81668 110.61125C349.81668 108.9544 351.15982 107.61125 352.81668 107.61125C354.4735 107.61125 355.81668 108.9544 355.81668 110.61125Z" fill-rule="nonzero"/><path fill="#000000" fill-opacity="0.0" clip-path="url(#id_0)" d="M317.40833 111.14777C317.40833 112.80463 316.0652 114.14777 314.40833 114.14777C312.75146 114.14777 311.40833 112.80463 311.40833 111.14777C311.40833 109.49092 312.75146 108.14777 314.40833 108.14777C316.0652 108.14777 317.40833 109.49092 317.40833 111.14777Z" fill-rule="nonzero"/><path fill="#000000" fill-opacity="0.0" clip-path="url(#id_0)" d="M279.0 112.81344C279.0 114.47029 277.65686 115.81344 276.0 115.81344C274.34314 115.81344 273.0 114.47029 273.0 112.81344C273.0 111.156586 274.34314 109.81344 276.0 109.81344C277.65686 109.81344 279.0 111.156586 279.0 112.81344Z" fill-rule="nonzero"/><path fill="#000000" fill-opacity="0.0" clip-path="url(#id_0)" d="M240.59166 114.89991C240.59166 116.55676 239.24852 117.89991 237.59166 117.89991C235.93481 117.89991 234.59166 116.55676 234.59166 114.89991C234.59166 113.24305 235.93481 111.89991 237.59166 111.89991C239.24852 111.89991 240.59166 113.24305 240.59166 114.89991Z" fill-rule="nonzero"/><path fill="#000000" fill-opacity="0.0" clip-path="url(#id_0)" d="M202.18333 115.709946C202.18333 117.3668 200.8402 118.709946 199.18333 118.709946C197.52647 118.709946 196.18333 117.3668 196.18333 115.709946C196.18333 114.05309 197.52647 112.709946 199.18333 112.709946C200.8402 112.709946 202.18333 114.05309 202.18333 115.709946Z" fill-rule="nonzero"/><path fill="#000000" fill-opacity="0.0" clip-path="url(#id_0)" d="M163.775 116.88818C163.775 118.545044 162.43185 119.88818 160.775 119.88818C159.11815 119.88818 157.775 118.545044 157.775 116.88818C157.775 115.23133 159.11815 113.88818 160.775 113.88818C162.43185 113.88818 163.775 115.23133 163.775 116.88818Z" fill-rule="nonzero"/><path fill="#000000" fill-opacity="0.0" clip-path="url(#id_0)" d="M125.36667 117.35808C125.36667 119.01493 124.02352 120.35808 122.36667 120.35808C120.709816 120.35808 119.36667 119.01493 119.36667 117.35808C119.36667 115.701225 120.709816 114.35808 122.36667 114.35808C124.02352 114.35808 125.36667 115.701225 125.36667 117.35808Z" fill-rule="nonzero"/><path fill="#000000" fill-opacity="0.0" clip-path="url(#id_0)" d="M86.958336 119.77768C86.958336 121.43453 85.61519 122.77768 83.958336 122.77768C82.301476 122.77768 80.958336 121.43453 80.958336 119.77768C80.958336 118.12083 82.301476 116.77768 83.958336 116.77768C85.61519 116.77768 86.958336 118.12083 86.958336 119.77768Z" fill-rule="nonzero"/><path fill="#000000" fill-opacity="0.0" clip-path="url(#id_0)" d="M48.55 121.68881C48.55 123.345665 47.206856 124.68881 45.55 124.68881C43.893147 124.68881 42.55 123.345665 42.55 121.68881C42.55 120.03196 43.893147 118.68881 45.55 118.68881C47.206856 118.68881 48.55 120.03196 48.55 121.68881Z" fill-rule="nonzero"/><path fill="#000000" fill-opacity="0.0" clip-path="url(#id_0)" d="M509.45 145.58324C509.45 147.2401 508.10684 148.58324 506.45 148.58324C504.79315 148.58324 503.45 147.2401 503.45 145.58324C503.45 143.92639 504.79315 142.58324 506.45 142.58324C508.10684 142.58324 509.45 143.92639 509.45 145.58324Z" fill-rule="nonzero"/><path fill="#000000" fill-opacity="0.0" clip-path="url(#id_0)" d="M471.04166 145.39388C471.04166 147.05074 469.69852 148.39388 468.04166 148.39388C466.38483 148.39388 465.04166 147.05074 465.04166 145.39388C465.04166 143.73703 466.38483 142.39388 468.04166 142.39388C469.69852 142.39388 471.04166 143.73703 471.04166 145.39388Z" fill-rule="nonzero"/><path fill="#000000" fill-opacity="0.0" clip-path="url(#id_0)" d="M432.63333 144.30681C432.63333 145.96367 431.2902 147.30681 429.63333 147.30681C427.97647 147.30681 426.63333 145.96367 426.63333 144.30681C426.63333 142.64996 427.97647 141.30681 429.63333 141.30681C431.2902 141.30681 432.63333 142.64996 432.63333 144.30681Z" fill-rule="nonzero"/><path fill="#000000" fill-opacity="0.0" clip-path="url(#id_0)" d="M394.225 143.28287C394.225 144.93973 392.88187 146.28287 391.225 146.28287C389.56815 146.28287 388.225 144.93973 388.225 143.28287C388.225 141.626 389.56815 140.28287 391.225 140.28287C392.88187 140.28287 394.225 141.626 394.225 143.28287Z" fill-rule="nonzero"/><path fill="#000000" fill-opacity="0.0" clip-path="url(#id_0)" d="M355.81668 144.91347C355.81668 146.57033 354.4735 147.91347 352.81668 147.91347C351.15982 147.91347 349.81668 146.57033 349.81668 144.91347C349.81668 143.2566 351.15982 141.91347 352.81668 141.91347C354.4735 141.91347 355.81668 143.2566 355.81668 144.91347Z" fill-rule="nonzero"/><path fill="#000000" fill-opacity="0.0" clip-path="url(#id_0)" d="M317.40833 146.22145C317.40833 147.87831 316.0652 149.22145 314.40833 149.22145C312.75146 149.22145 311.40833 147.87831 311.40833 146.22145C311.40833 144.5646 312.75146 143.22145 314.40833 143.22145C316.0652 143.22145 317.40833 144.5646 317.40833 146.22145Z" fill-rule="nonzero"/><path fill="#000000" fill-opacity="0.0" clip-path="url(#id_0)" d="M279.0 148.86197C279.0 150.51883 277.65686 151.86197 276.0 151.86197C274.34314 151.86197 273.0 150.51883 273.0 148.86197C273.0 147.20512 274.34314 145.86197 276.0 145.86197C277.65686 145.86197 279.0 147.20512 279.0 148.86197Z" fill-rule="nonzero"/><path fill="#000000" fill-opacity="0.0" clip-path="url(#id_0)" d="M240.59166 152.53696C240.59166 154.19382 239.24852 155.53696 237.59166 155.53696C235.93481 155.53696 234.59166 154.19382 234.59166 152.53696C234.59166 150.88011 235.93481 149.53696 237.59166 149.53696C239.24852 149.53696 240.59166 150.88011 240.59166 152.53696Z" fill-rule="nonzero"/><path fill="#000000" fill-opacity="0.0" clip-path="url(#id_0)" d="M202.18333 154.45862C202.18333 156.11546 200.8402 157.45862 199.18333 157.45862C197.52647 157.45862 196.18333 156.11546 196.18333 154.45862C196.18333 152.80176 197.52647 151.45862 199.18333 151.45862C200.8402 151.45862 202.18333 152.80176 202.18333 154.45862Z" fill-rule="nonzero"/><path fill="#000000" fill-opacity="0.0" clip-path="url(#id_0)" d="M163.775 156.11375C163.775 157.77061 162.43185 159.11375 160.775 159.11375C159.11815 159.11375 157.775 157.77061 157.775 156.11375C157.775 154.45691 159.11815 153.11375 160.775 153.11375C162.43185 153.11375 163.775 154.45691 163.775 156.11375Z" fill-rule="nonzero"/><path fill="#000000" fill-opacity="0.0" clip-path="url(#id_0)" d="M125.36667 157.20784C125.36667 158.8647 124.02352 160.20784 122.36667 160.20784C120.709816 160.20784 119.36667 158.8647 119.36667 157.20784C119.36667 155.55098 120.709816 154.20784 122.36667 154.20784C124.02352 154.20784 125.36667 155.55098 125.36667 157.20784Z" fill-rule="nonzero"/><path fill="#000000" fill-opacity="0.0" clip-path="url(#id_0)" d="M86.958336 160.94945C86.958336 162.60631 85.61519 163.94945 83.958336 163.94945C82.301476 163.94945 80.958336 162.60631 80.958336 160.94945C80.958336 159.2926 82.301476 157.94945 83.958336 157.94945C85.61519 157.94945 86.958336 159.2926 86.958336 160.94945Z" fill-rule="nonzero"/><path fill="#000000" fill-opacity="0.0" clip-path="url(#id_0)" d="M48.55 165.90086C48.55 167.55772 47.206856 168.90086 45.55 168.90086C43.893147 168.90086 42.55 167.55772 42.55 165.90086C42.55 164.24402 43.893147 162.90086 45.55 162.90086C47.206856 162.90086 48.55 164.24402 48.55 165.90086Z" fill-rule="nonzero"/><path fill="#000000" fill-opacity="0.0" clip-path="url(#id_0)" d="M509.45 163.58997C509.45 165.24683 508.10684 166.58997 506.45 166.58997C504.79315 166.58997 503.45 165.24683 503.45 163.58997C503.45 161.93312 504.79315 160.58997 506.45 160.58997C508.10684 160.58997 509.45 161.93312 509.45 163.58997Z" fill-rule="nonzero"/><path fill="#000000" fill-opacity="0.0" clip-path="url(#id_0)" d="M471.04166 163.5514C471.04166 165.20825 469.69852 166.5514 468.04166 166.5514C466.38483 166.5514 465.04166 165.20825 465.04166 163.5514C465.04166 161.89455 466.38483 160.5514 468.04166 160.5514C469.69852 160.5514 471.04166 161.89455 471.04166 163.5514Z" fill-rule="nonzero"/><path fill="#000000" fill-opacity="0.0" clip-path="url(#id_0)" d="M432.63333 163.1762C432.63333 164.83304 431.2902 166.1762 429.63333 166.1762C427.97647 166.1762 426.63333 164.83304 426.63333 163.1762C426.63333 161.51933 427.97647 160.1762 429.63333 160.1762C431.2902 160.1762 432.63333 161.51933 432.63333 163.1762Z" fill-rule="nonzero"/><path fill="#000000" fill-opacity="0.0" clip-path="url(#id_0)" d="M394.225 162.84656C394.225 164.50342 392.88187 165.84656 391.225 165.84656C389.56815 165.84656 388.225 164.50342 388.225 162.84656C388.225 161.18971 389.56815 159.84656 391.225 159.84656C392.88187 159.84656 394.225 161.18971 394.225 162.84656Z" fill-rule="nonzero"/><path fill="#000000" fill-opacity="0.0" clip-path="url(#id_0)" d="M355.81668 165.67644C355.81668 167.3333 354.4735 168.67644 352.81668 168.67644C351.15982 168.67644 349.81668 167.3333 349.81668 165.67644C349.81668 164.01959 351.15982 162.67644 352.81668 162.67644C354.4735 162.67644 355.81668 164.01959 355.81668 165.67644Z" fill-rule="nonzero"/><path fill="#000000" fill-opacity="0.0" clip-path="url(#id_0)" d="M317.40833 167.0756C317.40833 168.73245 316.0652 170.0756 314.40833 170.0756C312.75146 170.0756 311.40833 168.73245 311.40833 167.0756C311.40833 165.41875 312.75146 164.0756 314.40833 164.0756C316.0652 164.0756 317.40833 165.41875 317.40833 167.0756Z" fill-rule="nonzero"/><path fill="#000000" fill-opacity="0.0" clip-path="url(#id_0)" d="M279.0 169.5513C279.0 171.20816 277.65686 172.5513 276.0 172.5513C274.34314 172.5513 273.0 171.20816 273.0 169.5513C273.0 167.89445 274.34314 166.5513 276.0 166.5513C277.65686 166.5513 279.0 167.89445 279.0 169.5513Z" fill-rule="nonzero"/><path fill="#000000" fill-opacity="0.0" clip-path="url(#id_0)" d="M240.59166 172.71432C240.59166 174.37117 239.24852 175.71432 237.59166 175.71432C235.93481 175.71432 234.59166 174.37117 234.59166 172.71432C234.59166 171.05746 235.93481 169.71432 237.59166 169.71432C239.24852 169.71432 240.59166 171.05746 240.59166 172.71432Z" fill-rule="nonzero"/><path fill="#000000" fill-opacity="0.0" clip-path="url(#id_0)" d="M202.18333 174.94106C202.18333 176.5979 200.8402 177.94106 199.18333 177.94106C197.52647 177.94106 196.18333 176.5979 196.18333 174.94106C196.18333 173.2842 197.52647 171.94106 199.18333 171.94106C200.8402 171.94106 202.18333 173.2842 202.18333 174.94106Z" fill-rule="nonzero"/><path fill="#000000" fill-opacity="0.0" clip-path="url(#id_0)" d="M163.775 177.13623C163.775 178.79308 162.43185 180.13623 160.775 180.13623C159.11815 180.13623 157.775 178.79308 157.775 177.13623C157.775 175.47937 159.11815 174.13623 160.775 174.13623C162.43185 174.13623 163.775 175.47937 163.775 177.13623Z" fill-rule="nonzero"/><path fill="#000000" fill-opacity="0.0" clip-path="url(#id_0)" d="M125.36667 178.67566C125.36667 180.3325 124.02352 181.67566 122.36667 181.67566C120.709816 181.67566 119.36667 180.3325 119.36667 178.67566C119.36667 177.0188 120.709816 175.67566 122.36667 175.67566C124.02352 175.67566 125.36667 177.0188 125.36667 178.67566Z" fill-rule="nonzero"/><path fill="#000000" fill-opacity="0.0" clip-path="url(#id_0)" d="M86.958336 183.38861C86.958336 185.04547 85.61519 186.38861 83.958336 186.38861C82.301476 186.38861 80.958336 185.04547 80.958336 183.38861C80.958336 181.73177 82.301476 180.38861 83.958336 180.38861C85.61519 180.38861 86.958336 181.73177 86.958336 183.38861Z" fill-rule="nonzero"/><path fill="#000000" fill-opacity="0.0" clip-path="url(#id_0)" d="M48.55 192.36919C48.55 194.02605 47.206856 195.36919 45.55 195.36919C43.893147 195.36919 42.55 194.02605 42.55 192.36919C42.55 190.71233 43.893147 189.36919 45.55 189.36919C47.206856 189.36919 48.55 190.71233 48.55 192.36919Z" fill-rule="nonzero"/><path fill="#000000" fill-opacity="0.0" clip-path="url(#id_0)" d="M509.45 188.13313C509.45 189.79 508.10684 191.13313 506.45 191.13313C504.79315 191.13313 503.45 189.79 503.45 188.13313C503.45 186.47627 504.79315 185.13313 506.45 185.13313C508.10684 185.13313 509.45 186.47627 509.45 188.13313Z" fill-rule="nonzero"/><path fill="#000000" fill-opacity="0.0" clip-path="url(#id_0)" d="M471.04166 188.75381C471.04166 190.41068 469.69852 191.75381 468.04166 191.75381C466.38483 191.75381 465.04166 190.41068 465.04166 188.75381C465.04166 187.09695 466.38483 185.75381 468.04166 185.75381C469.69852 185.75381 471.04166 187.09695 471.04166 188.75381Z" fill-rule="nonzero"/><path fill="#000000" fill-opacity="0.0" clip-path="url(#id_0)" d="M432.63333 187.77896C432.63333 189.43582 431.2902 190.77896 429.63333 190.77896C427.97647 190.77896 426.63333 189.43582 426.63333 187.77896C426.63333 186.1221 427.97647 184.77896 429.63333 184.77896C431.2902 184.77896 432.63333 186.1221 432.63333 187.77896Z" fill-rule="nonzero"/><path fill="#000000" fill-opacity="0.0" clip-path="url(#id_0)" d="M394.225 189.30086C394.225 190.9577 392.88187 192.30086 391.225 192.30086C389.56815 192.30086 388.225 190.9577 388.225 189.30086C388.225 187.644 389.56815 186.30086 391.225 186.30086C392.88187 186.30086 394.225 187.644 394.225 189.30086Z" fill-rule="nonzero"/><path fill="#000000" fill-opacity="0.0" clip-path="url(#id_0)" d="M355.81668 190.87184C355.81668 192.5287 354.4735 193.87184 352.81668 193.87184C351.15982 193.87184 349.81668 192.5287 349.81668 190.87184C349.81668 189.21498 351.15982 187.87184 352.81668 187.87184C354.4735 187.87184 355.81668 189.21498 355.81668 190.87184Z" fill-rule="nonzero"/><path fill="#000000" fill-opacity="0.0" clip-path="url(#id_0)" d="M317.40833 191.45746C317.40833 193.1143 316.0652 194.45746 314.40833 194.45746C312.75146 194.45746 311.40833 193.1143 311.40833 191.45746C311.40833 189.8006 312.75146 188.45746 314.40833 188.45746C316.0652 188.45746 317.40833 189.8006 317.40833 191.45746Z" fill-rule="nonzero"/><path fill="#000000" fill-opacity="0.0" clip-path="url(#id_0)" d="M279.0 194.23824C279.0 195.8951 277.65686 197.23824 276.0 197.23824C274.34314 197.23824 273.0 195.8951 273.0 194.23824C273.0 192.58139 274.34314 191.23824 276.0 191.23824C277.65686 191.23824 279.0 192.58139 279.0 194.23824Z" fill-rule="nonzero"/><path fill="#000000" fill-opacity="0.0" clip-path="url(#id_0)" d="M240.59166 195.3709C240.59166 197.02774 239.24852 198.3709 237.59166 198.3709C235.93481 198.3709 234.59166 197.02774 234.59166 195.3709C234.59166 193.71404 235.93481 192.3709 237.59166 192.3709C239.24852 192.3709 240.59166 193.71404 240.59166 195.3709Z" fill-rule="nonzero"/><path fill="#000000" fill-opacity="0.0" clip-path="url(#id_0)" d="M202.18333 199.50876C202.18333 201.16562 200.8402 202.50876 199.18333 202.50876C197.52647 202.50876 196.18333 201.16562 196.18333 199.50876C196.18333 197.8519 197.52647 196.50876 199.18333 196.50876C200.8402 196.50876 202.18333 197.8519 202.18333 199.50876Z" fill-rule="nonzero"/><path fill="#000000" fill-opacity="0.0" clip-path="url(#id_0)" d="M163.775 198.48833C163.775 200.14517 162.43185 201.48833 160.775 201.48833C159.11815 201.48833 157.775 200.14517 157.775 198.48833C157.775 196.83147 159.11815 195.48833 160.775 195.48833C162.43185 195.48833 163.775 196.83147 163.775 198.48833Z" fill-rule="nonzero"/><path fill="#000000" fill-opacity="0.0" clip-path="url(#id_0)" d="M125.36667 202.75945C125.36667 204.41629 124.02352 205.75945 122.36667 205.75945C120.709816 205.75945 119.36667 204.41629 119.36667 202.75945C119.36667 201.10258 120.709816 199.75945 122.36667 199.75945C124.02352 199.75945 125.36667 201.10258 125.36667 202.75945Z" fill-rule="nonzero"/><path fill="#000000" fill-opacity="0.0" clip-path="url(#id_0)" d="M86.958336 202.4263C86.958336 204.08316 85.61519 205.4263 83.958336 205.4263C82.301476 205.4263 80.958336 204.08316 80.958336 202.4263C80.958336 200.76945 82.301476 199.4263 83.958336 199.4263C85.61519 199.4263 86.958336 200.76945 86.958336 202.4263Z" fill-rule="nonzero"/><path fill="#000000" fill-opacity="0.0" clip-path="url(#id_0)" d="M48.55 219.32494C48.55 220.98178 47.206856 222.32494 45.55 222.32494C43.893147 222.32494 42.55 220.98178 42.55 219.32494C42.55 217.66808 43.893147 216.32494 45.55 216.32494C47.206856 216.32494 48.55 217.66808 48.55 219.32494Z" fill-rule="nonzero"/><path fill="#000000" d="M33.05 332.21564Q33.05 330.6844 33.3625 329.7625Q33.675 328.825 34.284374 328.325Q34.909374 327.825 35.846874 327.825Q36.534374 327.825 37.05 328.10626Q37.58125 328.3875 37.925 328.91876Q38.26875 329.4344 38.45625 330.1844Q38.64375 330.9344 38.64375 332.21564Q38.64375 333.73126 38.33125 334.65314Q38.034374 335.575 37.409374 336.09064Q36.8 336.59064 35.846874 336.59064Q34.6125 336.59064 33.89375 335.7Q33.05 334.6375 33.05 332.21564ZM34.128124 332.21564Q34.128124 334.325 34.628124 335.02814Q35.128124 335.73126 35.846874 335.73126Q36.58125 335.73126 37.065624 335.02814Q37.565624 334.325 37.565624 332.21564Q37.565624 330.09064 37.065624 329.40314Q36.58125 328.7 35.83125 328.7Q35.1125 328.7 34.675 329.3094Q34.128124 330.09064 34.128124 332.21564Z" fill-rule="nonzero"/><path fill="#000000" d="M31.596874 265.30106L31.596874 266.31668L25.909374 266.31668Q25.909374 265.94168 26.034374 265.5823Q26.253124 265.00418 26.721874 264.44168Q27.20625 263.87918 28.1125 263.1448Q29.51875 261.98856 30.003124 261.31668Q30.503124 260.6448 30.503124 260.05106Q30.503124 259.42606 30.05 259.00418Q29.596874 258.56668 28.878124 258.56668Q28.1125 258.56668 27.659374 259.0198Q27.20625 259.47293 27.190624 260.28543L26.1125 260.17606Q26.221874 258.9573 26.940624 258.3323Q27.675 257.69168 28.909374 257.69168Q30.14375 257.69168 30.8625 258.37918Q31.58125 259.06668 31.58125 260.0823Q31.58125 260.59793 31.3625 261.09793Q31.159374 261.5823 30.659374 262.1448Q30.175 262.69168 29.05 263.6448Q28.096874 264.44168 27.815624 264.73856Q27.55 265.0198 27.378124 265.30106L31.596874 265.30106ZM33.05 262.0823Q33.05 260.55106 33.3625 259.62918Q33.675 258.69168 34.284374 258.19168Q34.909374 257.69168 35.846874 257.69168Q36.534374 257.69168 37.05 257.97293Q37.58125 258.25418 37.925 258.78543Q38.26875 259.30106 38.45625 260.05106Q38.64375 260.80106 38.64375 262.0823Q38.64375 263.59793 38.33125 264.5198Q38.034374 265.44168 37.409374 265.9573Q36.8 266.4573 35.846874 266.4573Q34.6125 266.4573 33.89375 265.56668Q33.05 264.50418 33.05 262.0823ZM34.128124 262.0823Q34.128124 264.19168 34.628124 264.8948Q35.128124 265.59793 35.846874 265.59793Q36.58125 265.59793 37.065624 264.8948Q37.565624 264.19168 37.565624 262.0823Q37.565624 259.9573 37.065624 259.2698Q36.58125 258.56668 35.83125 258.56668Q35.1125 258.56668 34.675 259.17606Q34.128124 259.9573 34.128124 262.0823Z" fill-rule="nonzero"/><path fill="#000000" d="M29.425 196.18333L29.425 194.12083L25.70625 194.12083L25.70625 193.15208L29.628124 187.58958L30.4875 187.58958L30.4875 193.15208L31.64375 193.15208L31.64375 194.12083L30.4875 194.12083L30.4875 196.18333L29.425 196.18333ZM29.425 193.15208L29.425 189.29271L26.7375 193.15208L29.425 193.15208ZM33.05 191.94896Q33.05 190.41771 33.3625 189.49583Q33.675 188.55833 34.284374 188.05833Q34.909374 187.55833 35.846874 187.55833Q36.534374 187.55833 37.05 187.83958Q37.58125 188.12083 37.925 188.65208Q38.26875 189.16771 38.45625 189.91771Q38.64375 190.66771 38.64375 191.94896Q38.64375 193.46458 38.33125 194.38646Q38.034374 195.30833 37.409374 195.82396Q36.8 196.32396 35.846874 196.32396Q34.6125 196.32396 33.89375 195.43333Q33.05 194.37083 33.05 191.94896ZM34.128124 191.94896Q34.128124 194.05833 34.628124 194.76146Q35.128124 195.46458 35.846874 195.46458Q36.58125 195.46458 37.065624 194.76146Q37.565624 194.05833 37.565624 191.94896Q37.565624 189.82396 37.065624 189.13646Q36.58125 188.43333 35.83125 188.43333Q35.1125 188.43333 34.675 189.04271Q34.128124 189.82396 34.128124 191.94896Z" fill-rule="nonzero"/><path fill="#000000" d="M31.51875 119.56563L30.471874 119.64375Q30.33125 119.01875 30.08125 118.7375Q29.64375 118.28438 29.01875 118.28438Q28.51875 118.28438 28.128124 118.56563Q27.64375 118.94063 27.346874 119.64375Q27.065624 120.33125 27.05 121.6125Q27.425 121.03438 27.971874 120.75313Q28.534374 120.47188 29.14375 120.47188Q30.190624 120.47188 30.925 121.25313Q31.675 122.03438 31.675 123.25313Q31.675 124.06563 31.315624 124.76875Q30.971874 125.45625 30.3625 125.83125Q29.753124 126.19063 28.9875 126.19063Q27.659374 126.19063 26.83125 125.22188Q26.003124 124.25313 26.003124 122.03438Q26.003124 119.53438 26.925 118.40938Q27.721874 117.425 29.08125 117.425Q30.096874 117.425 30.7375 118.00313Q31.39375 118.56563 31.51875 119.56563ZM27.221874 123.26875Q27.221874 123.81563 27.440624 124.31563Q27.675 124.8 28.08125 125.06563Q28.503124 125.33125 28.971874 125.33125Q29.628124 125.33125 30.1125 124.8Q30.596874 124.25313 30.596874 123.33125Q30.596874 122.44063 30.1125 121.925Q29.64375 121.40938 28.925 121.40938Q28.20625 121.40938 27.70625 121.925Q27.221874 122.44063 27.221874 123.26875ZM33.05 121.81563Q33.05 120.28438 33.3625 119.3625Q33.675 118.425 34.284374 117.925Q34.909374 117.425 35.846874 117.425Q36.534374 117.425 37.05 117.70625Q37.58125 117.9875 37.925 118.51875Q38.26875 119.03438 38.45625 119.78438Q38.64375 120.53438 38.64375 121.81563Q38.64375 123.33125 38.33125 124.25313Q38.034374 125.175 37.409374 125.69063Q36.8 126.19063 35.846874 126.19063Q34.6125 126.19063 33.89375 125.3Q33.05 124.2375 33.05 121.81563ZM34.128124 121.81563Q34.128124 123.925 34.628124 124.62813Q35.128124 125.33125 35.846874 125.33125Q36.58125 125.33125 37.065624 124.62813Q37.565624 123.925 37.565624 121.81563Q37.565624 119.69063 37.065624 119.00313Q36.58125 118.3 35.83125 118.3Q35.1125 118.3 34.675 118.90938Q34.128124 119.69063 34.128124 121.81563Z" fill-rule="nonzero"/><path fill="#000000" d="M27.675 51.260418Q27.01875 51.010418 26.690624 50.572918Q26.378124 50.119793 26.378124 49.510418Q26.378124 48.572918 27.05 47.932293Q27.7375 47.291668 28.846874 47.291668Q29.971874 47.291668 30.659374 47.947918Q31.346874 48.604168 31.346874 49.541668Q31.346874 50.135418 31.034374 50.572918Q30.721874 51.010418 30.08125 51.260418Q30.878124 51.510418 31.284374 52.088543Q31.690624 52.666668 31.690624 53.463543Q31.690624 54.557293 30.909374 55.307293Q30.14375 56.057293 28.8625 56.057293Q27.596874 56.057293 26.815624 55.307293Q26.034374 54.557293 26.034374 53.432293Q26.034374 52.588543 26.45625 52.026043Q26.89375 51.463543 27.675 51.260418ZM27.45625 49.463543Q27.45625 50.072918 27.846874 50.463543Q28.253124 50.854168 28.878124 50.854168Q29.4875 50.854168 29.878124 50.479168Q30.26875 50.088543 30.26875 49.526043Q30.26875 48.947918 29.8625 48.557293Q29.45625 48.151043 28.8625 48.151043Q28.253124 48.151043 27.846874 48.541668Q27.45625 48.932293 27.45625 49.463543ZM27.128124 53.432293Q27.128124 53.885418 27.33125 54.307293Q27.55 54.729168 27.971874 54.963543Q28.39375 55.197918 28.878124 55.197918Q29.628124 55.197918 30.1125 54.713543Q30.6125 54.229168 30.6125 53.479168Q30.6125 52.713543 30.1125 52.213543Q29.6125 51.713543 28.846874 51.713543Q28.096874 51.713543 27.6125 52.213543Q27.128124 52.697918 27.128124 53.432293ZM33.05 51.682293Q33.05 50.151043 33.3625 49.229168Q33.675 48.291668 34.284374 47.791668Q34.909374 47.291668 35.846874 47.291668Q36.534374 47.291668 37.05 47.572918Q37.58125 47.854168 37.925 48.385418Q38.26875 48.901043 38.45625 49.651043Q38.64375 50.401043 38.64375 51.682293Q38.64375 53.197918 38.33125 54.119793Q38.034374 55.041668 37.409374 55.557293Q36.8 56.057293 35.846874 56.057293Q34.6125 56.057293 33.89375 55.166668Q33.05 54.104168 33.05 51.682293ZM34.128124 51.682293Q34.128124 53.791668 34.628124 54.494793Q35.128124 55.197918 35.846874 55.197918Q36.58125 55.197918 37.065624 54.494793Q37.565624 53.791668 37.565624 51.682293Q37.565624 49.557293 37.065624 48.869793Q36.58125 48.166668 35.83125 48.166668Q35.1125 48.166668 34.675 48.776043Q34.128124 49.557293 34.128124 51.682293Z" fill-rule="nonzero"/><path fill="#000000" d="M42.55 345.21564Q42.55 343.6844 42.8625 342.7625Q43.175 341.825 43.784374 341.325Q44.409374 340.825 45.346874 340.825Q46.034374 340.825 46.55 341.10626Q47.08125 341.3875 47.425 341.91876Q47.76875 342.4344 47.95625 343.1844Q48.14375 343.9344 48.14375 345.21564Q48.14375 346.73126 47.83125 347.65314Q47.534374 348.575 46.909374 349.09064Q46.3 349.59064 45.346874 349.59064Q44.1125 349.59064 43.39375 348.7Q42.55 347.6375 42.55 345.21564ZM43.628124 345.21564Q43.628124 347.325 44.128124 348.02814Q44.628124 348.73126 45.346874 348.73126Q46.08125 348.73126 46.565624 348.02814Q47.065624 347.325 47.065624 345.21564Q47.065624 343.09064 46.565624 342.40314Q46.08125 341.7 45.33125 341.7Q44.6125 341.7 44.175 342.3094Q43.628124 343.09064 43.628124 345.21564Z" fill-rule="nonzero"/><path fill="#000000" d="M124.91354 348.4344L124.91354 349.45L119.22604 349.45Q119.22604 349.075 119.35104 348.71564Q119.56979 348.1375 120.03854 347.575Q120.52292 347.0125 121.42917 346.27814Q122.83542 345.1219 123.31979 344.45Q123.81979 343.77814 123.81979 343.1844Q123.81979 342.5594 123.36667 342.1375Q122.91354 341.7 122.19479 341.7Q121.42917 341.7 120.97604 342.15314Q120.52292 342.60626 120.50729 343.41876L119.42917 343.3094Q119.53854 342.09064 120.25729 341.46564Q120.99167 340.825 122.22604 340.825Q123.46042 340.825 124.17917 341.5125Q124.89792 342.2 124.89792 343.21564Q124.89792 343.73126 124.67917 344.23126Q124.47604 344.71564 123.97604 345.27814Q123.49167 345.825 122.36667 346.77814Q121.41354 347.575 121.13229 347.8719Q120.86667 348.15314 120.69479 348.4344L124.91354 348.4344Z" fill-rule="nonzero"/><path fill="#000000" d="M199.55833 349.45L199.55833 347.3875L195.83958 347.3875L195.83958 346.41876L199.76146 340.85626L200.62083 340.85626L200.62083 346.41876L201.77708 346.41876L201.77708 347.3875L200.62083 347.3875L200.62083 349.45L199.55833 349.45ZM199.55833 346.41876L199.55833 342.5594L196.87083 346.41876L199.55833 346.41876Z" fill-rule="nonzero"/><path fill="#000000" d="M278.46875 342.96564L277.42188 343.04376Q277.28125 342.41876 277.03125 342.1375Q276.59375 341.6844 275.96875 341.6844Q275.46875 341.6844 275.07812 341.96564Q274.59375 342.34064 274.29688 343.04376Q274.01562 343.73126 274.0 345.0125Q274.375 344.4344 274.92188 344.15314Q275.48438 343.8719 276.09375 343.8719Q277.14062 343.8719 277.875 344.65314Q278.625 345.4344 278.625 346.65314Q278.625 347.46564 278.26562 348.16876Q277.92188 348.85626 277.3125 349.23126Q276.70312 349.59064 275.9375 349.59064Q274.60938 349.59064 273.78125 348.6219Q272.95312 347.65314 272.95312 345.4344Q272.95312 342.9344 273.875 341.8094Q274.67188 340.825 276.03125 340.825Q277.04688 340.825 277.6875 341.40314Q278.34375 341.96564 278.46875 342.96564ZM274.17188 346.66876Q274.17188 347.21564 274.39062 347.71564Q274.625 348.2 275.03125 348.46564Q275.45312 348.73126 275.92188 348.73126Q276.57812 348.73126 277.0625 348.2Q277.54688 347.65314 277.54688 346.73126Q277.54688 345.84064 277.0625 345.325Q276.59375 344.8094 275.875 344.8094Q275.15625 344.8094 274.65625 345.325Q274.17188 345.84064 274.17188 346.66876Z" fill-rule="nonzero"/><path fill="#000000" d="M351.44168 344.79376Q350.78543 344.54376 350.4573 344.10626Q350.1448 343.65314 350.1448 343.04376Q350.1448 342.10626 350.81668 341.46564Q351.50418 340.825 352.61356 340.825Q353.73856 340.825 354.42606 341.48126Q355.11356 342.1375 355.11356 343.075Q355.11356 343.66876 354.80106 344.10626Q354.48856 344.54376 353.84793 344.79376Q354.6448 345.04376 355.05106 345.6219Q355.4573 346.2 355.4573 346.9969Q355.4573 348.09064 354.67606 348.84064Q353.91043 349.59064 352.62918 349.59064Q351.36356 349.59064 350.5823 348.84064Q349.80106 348.09064 349.80106 346.96564Q349.80106 346.1219 350.22293 345.5594Q350.66043 344.9969 351.44168 344.79376ZM351.22293 342.9969Q351.22293 343.60626 351.61356 343.9969Q352.0198 344.3875 352.6448 344.3875Q353.25418 344.3875 353.6448 344.0125Q354.03543 343.6219 354.03543 343.0594Q354.03543 342.48126 353.62918 342.09064Q353.22293 341.6844 352.62918 341.6844Q352.0198 341.6844 351.61356 342.075Q351.22293 342.46564 351.22293 342.9969ZM350.8948 346.96564Q350.8948 347.41876 351.09793 347.84064Q351.31668 348.2625 351.73856 348.4969Q352.16043 348.73126 352.6448 348.73126Q353.3948 348.73126 353.87918 348.2469Q354.37918 347.7625 354.37918 347.0125Q354.37918 346.2469 353.87918 345.7469Q353.37918 345.2469 352.61356 345.2469Q351.86356 345.2469 351.37918 345.7469Q350.8948 346.23126 350.8948 346.96564Z" fill-rule="nonzero"/><path fill="#000000" d="M427.10208 349.45L426.0552 349.45L426.0552 342.73126Q425.66458 343.09064 425.03958 343.46564Q424.4302 343.825 423.94583 343.9969L423.94583 342.98126Q424.82083 342.5594 425.47708 341.98126Q426.14896 341.3875 426.4302 340.825L427.10208 340.825L427.10208 349.45ZM430.13333 345.21564Q430.13333 343.6844 430.44583 342.7625Q430.75833 341.825 431.3677 341.325Q431.9927 340.825 432.9302 340.825Q433.6177 340.825 434.13333 341.10626Q434.66458 341.3875 435.00833 341.91876Q435.35208 342.4344 435.53958 343.1844Q435.72708 343.9344 435.72708 345.21564Q435.72708 346.73126 435.41458 347.65314Q435.1177 348.575 434.4927 349.09064Q433.88333 349.59064 432.9302 349.59064Q431.69583 349.59064 430.97708 348.7Q430.13333 347.6375 430.13333 345.21564ZM431.21146 345.21564Q431.21146 347.325 431.71146 348.02814Q432.21146 348.73126 432.9302 348.73126Q433.66458 348.73126 434.14896 348.02814Q434.64896 347.325 434.64896 345.21564Q434.64896 343.09064 434.14896 342.40314Q433.66458 341.7 432.91458 341.7Q432.19583 341.7 431.75833 342.3094Q431.21146 343.09064 431.21146 345.21564Z" fill-rule="nonzero"/><path fill="#000000" d="M503.91876 349.45L502.8719 349.45L502.8719 342.73126Q502.48126 343.09064 501.85626 343.46564Q501.2469 343.825 500.7625 343.9969L500.7625 342.98126Q501.6375 342.5594 502.29376 341.98126Q502.96564 341.3875 503.2469 340.825L503.91876 340.825L503.91876 349.45ZM512.4969 348.4344L512.4969 349.45L506.8094 349.45Q506.8094 349.075 506.9344 348.71564Q507.15314 348.1375 507.6219 347.575Q508.10626 347.0125 509.0125 346.27814Q510.41876 345.1219 510.90314 344.45Q511.40314 343.77814 511.40314 343.1844Q511.40314 342.5594 510.95 342.1375Q510.4969 341.7 509.77814 341.7Q509.0125 341.7 508.5594 342.15314Q508.10626 342.60626 508.09064 343.41876L507.0125 343.3094Q507.1219 342.09064 507.84064 341.46564Q508.575 340.825 509.8094 340.825Q511.04376 340.825 511.7625 341.5125Q512.48126 342.2 512.48126 343.21564Q512.48126 343.73126 512.2625 344.23126Q512.0594 344.71564 511.5594 345.27814Q511.075 345.825 509.95 346.77814Q508.9969 347.575 508.71564 347.8719Q508.45 348.15314 508.27814 348.4344L512.4969 348.4344Z" fill-rule="nonzero"/><path stroke="#4285f4" stroke-width="4.0" stroke-linecap="butt" d="M118.0 25.55L130.0 25.55" fill-rule="nonzero"/><path fill="#1a1a1a" d="M138.92188 29.55L138.92188 20.95625L142.17188 20.95625Q143.01562 20.95625 143.46875 21.034374Q144.10938 21.14375 144.53125 21.440624Q144.96875 21.7375 145.21875 22.26875Q145.48438 22.8 145.48438 23.440624Q145.48438 24.534374 144.78125 25.3Q144.09375 26.05 142.26562 26.05L140.0625 26.05L140.0625 29.55L138.92188 29.55ZM140.0625 25.05L142.28125 25.05Q143.39062 25.05 143.84375 24.64375Q144.3125 24.221874 144.3125 23.471874Q144.3125 22.940624 144.03125 22.565624Q143.76562 22.175 143.32812 22.05Q143.03125 21.971874 142.26562 21.971874L140.0625 21.971874L140.0625 25.05ZM150.85938 28.784374Q150.26562 29.284374 149.71875 29.4875Q149.1875 29.690624 148.5625 29.690624Q147.53125 29.690624 146.98438 29.190624Q146.4375 28.690624 146.4375 27.909374Q146.4375 27.45625 146.64062 27.08125Q146.84375 26.690624 147.1875 26.471874Q147.53125 26.2375 147.95312 26.128124Q148.25 26.034374 148.89062 25.95625Q150.15625 25.815624 150.76562 25.596874Q150.76562 25.378124 150.76562 25.33125Q150.76562 24.675 150.46875 24.409374Q150.0625 24.065624 149.26562 24.065624Q148.53125 24.065624 148.17188 24.33125Q147.8125 24.58125 147.64062 25.2375L146.60938 25.096874Q146.75 24.440624 147.07812 24.034374Q147.40625 23.628124 148.01562 23.409374Q148.625 23.190624 149.42188 23.190624Q150.21875 23.190624 150.71875 23.378124Q151.21875 23.565624 151.45312 23.846874Q151.6875 24.128124 151.78125 24.565624Q151.82812 24.83125 151.82812 25.534374L151.82812 26.940624Q151.82812 28.409374 151.89062 28.8Q151.96875 29.190624 152.17188 29.55L151.0625 29.55Q150.90625 29.221874 150.85938 28.784374ZM150.76562 26.425Q150.1875 26.659374 149.04688 26.83125Q148.39062 26.925 148.125 27.05Q147.85938 27.159374 147.70312 27.378124Q147.5625 27.596874 147.5625 27.878124Q147.5625 28.3 147.875 28.58125Q148.20312 28.8625 148.8125 28.8625Q149.42188 28.8625 149.89062 28.596874Q150.375 28.33125 150.59375 27.8625Q150.76562 27.503124 150.76562 26.815624L150.76562 26.425ZM153.78125 29.55L153.78125 23.33125L154.73438 23.33125L154.73438 24.26875Q155.09375 23.6125 155.39062 23.409374Q155.70312 23.190624 156.07812 23.190624Q156.60938 23.190624 157.15625 23.51875L156.79688 24.503124Q156.40625 24.26875 156.03125 24.26875Q155.67188 24.26875 155.39062 24.4875Q155.125 24.690624 155.01562 25.065624Q154.82812 25.628124 154.82812 26.284374L154.82812 29.55L153.78125 29.55ZM162.04688 27.55L163.14062 27.675Q162.89062 28.628124 162.1875 29.159374Q161.48438 29.690624 160.40625 29.690624Q159.04688 29.690624 158.23438 28.846874Q157.4375 28.003124 157.4375 26.4875Q157.4375 24.925 158.25 24.065624Q159.0625 23.190624 160.34375 23.190624Q161.59375 23.190624 162.375 24.034374Q163.17188 24.878124 163.17188 26.425Q163.17188 26.51875 163.17188 26.70625L158.53125 26.70625Q158.59375 27.7375 159.10938 28.284374Q159.625 28.815624 160.40625 28.815624Q160.98438 28.815624 161.39062 28.51875Q161.8125 28.20625 162.04688 27.55ZM158.59375 25.846874L162.0625 25.846874Q162.0 25.05 161.67188 24.659374Q161.15625 24.05 160.35938 24.05Q159.625 24.05 159.125 24.534374Q158.64062 25.01875 158.59375 25.846874ZM164.79688 29.55L164.79688 23.33125L165.73438 23.33125L165.73438 24.20625Q166.42188 23.190624 167.71875 23.190624Q168.28125 23.190624 168.75 23.39375Q169.23438 23.596874 169.46875 23.925Q169.70312 24.253124 169.79688 24.690624Q169.84375 24.9875 169.84375 25.721874L169.84375 29.55L168.79688 29.55L168.79688 25.76875Q168.79688 25.1125 168.67188 24.8Q168.54688 24.4875 168.23438 24.3Q167.92188 24.096874 167.5 24.096874Q166.82812 24.096874 166.32812 24.534374Q165.84375 24.95625 165.84375 26.14375L165.84375 29.55L164.79688 29.55ZM174.09375 28.6125L174.25 29.534374Q173.79688 29.628124 173.45312 29.628124Q172.875 29.628124 172.5625 29.45625Q172.25 29.26875 172.10938 28.971874Q171.98438 28.675 171.98438 27.721874L171.98438 24.14375L171.21875 24.14375L171.21875 23.33125L171.98438 23.33125L171.98438 21.784374L173.03125 21.159374L173.03125 23.33125L174.09375 23.33125L174.09375 24.14375L173.03125 24.14375L173.03125 27.784374Q173.03125 28.2375 173.07812 28.3625Q173.14062 28.4875 173.26562 28.565624Q173.39062 28.64375 173.625 28.64375Q173.8125 28.64375 174.09375 28.6125Z" fill-rule="nonzero"/><path stroke="#ea4335" stroke-width="4.0" stroke-linecap="butt" d="M190.0 25.55L202.0 25.55" fill-rule="nonzero"/><path fill="#1a1a1a" d="M214.95312 26.175L214.95312 25.175L218.57812 25.159374L218.57812 28.346874Q217.75 29.01875 216.85938 29.3625Q215.96875 29.690624 215.03125 29.690624Q213.76562 29.690624 212.71875 29.159374Q211.6875 28.6125 211.15625 27.596874Q210.64062 26.565624 210.64062 25.3Q210.64062 24.034374 211.15625 22.95625Q211.6875 21.8625 212.67188 21.346874Q213.65625 20.815624 214.9375 20.815624Q215.875 20.815624 216.625 21.1125Q217.375 21.409374 217.79688 21.95625Q218.23438 22.4875 218.45312 23.3625L217.4375 23.64375Q217.23438 22.9875 216.9375 22.6125Q216.65625 22.2375 216.125 22.01875Q215.59375 21.784374 214.95312 21.784374Q214.17188 21.784374 213.59375 22.01875Q213.03125 22.253124 212.67188 22.64375Q212.32812 23.034374 212.14062 23.503124Q211.8125 24.3 211.8125 25.221874Q211.8125 26.378124 212.20312 27.159374Q212.60938 27.925 213.35938 28.3Q214.10938 28.675 214.96875 28.675Q215.70312 28.675 216.40625 28.39375Q217.10938 28.096874 217.46875 27.784374L217.46875 26.175L214.95312 26.175ZM219.92188 29.55L219.92188 20.95625L223.17188 20.95625Q224.01562 20.95625 224.46875 21.034374Q225.10938 21.14375 225.53125 21.440624Q225.96875 21.7375 226.21875 22.26875Q226.48438 22.8 226.48438 23.440624Q226.48438 24.534374 225.78125 25.3Q225.09375 26.05 223.26562 26.05L221.0625 26.05L221.0625 29.55L219.92188 29.55ZM221.0625 25.05L223.28125 25.05Q224.39062 25.05 224.84375 24.64375Q225.3125 24.221874 225.3125 23.471874Q225.3125 22.940624 225.03125 22.565624Q224.76562 22.175 224.32812 22.05Q224.03125 21.971874 223.26562 21.971874L221.0625 21.971874L221.0625 25.05ZM231.85938 28.784374Q231.26562 29.284374 230.71875 29.4875Q230.1875 29.690624 229.5625 29.690624Q228.53125 29.690624 227.98438 29.190624Q227.4375 28.690624 227.4375 27.909374Q227.4375 27.45625 227.64062 27.08125Q227.84375 26.690624 228.1875 26.471874Q228.53125 26.2375 228.95312 26.128124Q229.25 26.034374 229.89062 25.95625Q231.15625 25.815624 231.76562 25.596874Q231.76562 25.378124 231.76562 25.33125Q231.76562 24.675 231.46875 24.409374Q231.0625 24.065624 230.26562 24.065624Q229.53125 24.065624 229.17188 24.33125Q228.8125 24.58125 228.64062 25.2375L227.60938 25.096874Q227.75 24.440624 228.07812 24.034374Q228.40625 23.628124 229.01562 23.409374Q229.625 23.190624 230.42188 23.190624Q231.21875 23.190624 231.71875 23.378124Q232.21875 23.565624 232.45312 23.846874Q232.6875 24.128124 232.78125 24.565624Q232.82812 24.83125 232.82812 25.534374L232.82812 26.940624Q232.82812 28.409374 232.89062 28.8Q232.96875 29.190624 233.17188 29.55L232.0625 29.55Q231.90625 29.221874 231.85938 28.784374ZM231.76562 26.425Q231.1875 26.659374 230.04688 26.83125Q229.39062 26.925 229.125 27.05Q228.85938 27.159374 228.70312 27.378124Q228.5625 27.596874 228.5625 27.878124Q228.5625 28.3 228.875 28.58125Q229.20312 28.8625 229.8125 28.8625Q230.42188 28.8625 230.89062 28.596874Q231.375 28.33125 231.59375 27.8625Q231.76562 27.503124 231.76562 26.815624L231.76562 26.425ZM234.78125 29.55L234.78125 23.33125L235.73438 23.33125L235.73438 24.26875Q236.09375 23.6125 236.39062 23.409374Q236.70312 23.190624 237.07812 23.190624Q237.60938 23.190624 238.15625 23.51875L237.79688 24.503124Q237.40625 24.26875 237.03125 24.26875Q236.67188 24.26875 236.39062 24.4875Q236.125 24.690624 236.01562 25.065624Q235.82812 25.628124 235.82812 26.284374L235.82812 29.55L234.78125 29.55ZM243.04688 27.55L244.14062 27.675Q243.89062 28.628124 243.1875 29.159374Q242.48438 29.690624 241.40625 29.690624Q240.04688 29.690624 239.23438 28.846874Q238.4375 28.003124 238.4375 26.4875Q238.4375 24.925 239.25 24.065624Q240.0625 23.190624 241.34375 23.190624Q242.59375 23.190624 243.375 24.034374Q244.17188 24.878124 244.17188 26.425Q244.17188 26.51875 244.17188 26.70625L239.53125 26.70625Q239.59375 27.7375 240.10938 28.284374Q240.625 28.815624 241.40625 28.815624Q241.98438 28.815624 242.39062 28.51875Q242.8125 28.20625 243.04688 27.55ZM239.59375 25.846874L243.0625 25.846874Q243.0 25.05 242.67188 24.659374Q242.15625 24.05 241.35938 24.05Q240.625 24.05 240.125 24.534374Q239.64062 25.01875 239.59375 25.846874ZM245.79688 29.55L245.79688 23.33125L246.73438 23.33125L246.73438 24.20625Q247.42188 23.190624 248.71875 23.190624Q249.28125 23.190624 249.75 23.39375Q250.23438 23.596874 250.46875 23.925Q250.70312 24.253124 250.79688 24.690624Q250.84375 24.9875 250.84375 25.721874L250.84375 29.55L249.79688 29.55L249.79688 25.76875Q249.79688 25.1125 249.67188 24.8Q249.54688 24.4875 249.23438 24.3Q248.92188 24.096874 248.5 24.096874Q247.82812 24.096874 247.32812 24.534374Q246.84375 24.95625 246.84375 26.14375L246.84375 29.55L245.79688 29.55ZM255.09375 28.6125L255.25 29.534374Q254.79688 29.628124 254.45312 29.628124Q253.875 29.628124 253.5625 29.45625Q253.25 29.26875 253.10938 28.971874Q252.98438 28.675 252.98438 27.721874L252.98438 24.14375L252.21875 24.14375L252.21875 23.33125L252.98438 23.33125L252.98438 21.784374L254.03125 21.159374L254.03125 23.33125L255.09375 23.33125L255.09375 24.14375L254.03125 24.14375L254.03125 27.784374Q254.03125 28.2375 254.07812 28.3625Q254.14062 28.4875 254.26562 28.565624Q254.39062 28.64375 254.625 28.64375Q254.8125 28.64375 255.09375 28.6125Z" fill-rule="nonzero"/><path stroke="#fbbc04" stroke-width="4.0" stroke-linecap="butt" d="M271.0 25.55L283.0 25.55" fill-rule="nonzero"/><path fill="#1a1a1a" d="M295.95312 26.175L295.95312 25.175L299.57812 25.159374L299.57812 28.346874Q298.75 29.01875 297.85938 29.3625Q296.96875 29.690624 296.03125 29.690624Q294.76562 29.690624 293.71875 29.159374Q292.6875 28.6125 292.15625 27.596874Q291.64062 26.565624 291.64062 25.3Q291.64062 24.034374 292.15625 22.95625Q292.6875 21.8625 293.67188 21.346874Q294.65625 20.815624 295.9375 20.815624Q296.875 20.815624 297.625 21.1125Q298.375 21.409374 298.79688 21.95625Q299.23438 22.4875 299.45312 23.3625L298.4375 23.64375Q298.23438 22.9875 297.9375 22.6125Q297.65625 22.2375 297.125 22.01875Q296.59375 21.784374 295.95312 21.784374Q295.17188 21.784374 294.59375 22.01875Q294.03125 22.253124 293.67188 22.64375Q293.32812 23.034374 293.14062 23.503124Q292.8125 24.3 292.8125 25.221874Q292.8125 26.378124 293.20312 27.159374Q293.60938 27.925 294.35938 28.3Q295.10938 28.675 295.96875 28.675Q296.70312 28.675 297.40625 28.39375Q298.10938 28.096874 298.46875 27.784374L298.46875 26.175L295.95312 26.175ZM304.95312 26.175L304.95312 25.175L308.57812 25.159374L308.57812 28.346874Q307.75 29.01875 306.85938 29.3625Q305.96875 29.690624 305.03125 29.690624Q303.76562 29.690624 302.71875 29.159374Q301.6875 28.6125 301.15625 27.596874Q300.64062 26.565624 300.64062 25.3Q300.64062 24.034374 301.15625 22.95625Q301.6875 21.8625 302.67188 21.346874Q303.65625 20.815624 304.9375 20.815624Q305.875 20.815624 306.625 21.1125Q307.375 21.409374 307.79688 21.95625Q308.23438 22.4875 308.45312 23.3625L307.4375 23.64375Q307.23438 22.9875 306.9375 22.6125Q306.65625 22.2375 306.125 22.01875Q305.59375 21.784374 304.95312 21.784374Q304.17188 21.784374 303.59375 22.01875Q303.03125 22.253124 302.67188 22.64375Q302.32812 23.034374 302.14062 23.503124Q301.8125 24.3 301.8125 25.221874Q301.8125 26.378124 302.20312 27.159374Q302.60938 27.925 303.35938 28.3Q304.10938 28.675 304.96875 28.675Q305.70312 28.675 306.40625 28.39375Q307.10938 28.096874 307.46875 27.784374L307.46875 26.175L304.95312 26.175ZM309.92188 29.55L309.92188 20.95625L313.17188 20.95625Q314.01562 20.95625 314.46875 21.034374Q315.10938 21.14375 315.53125 21.440624Q315.96875 21.7375 316.21875 22.26875Q316.48438 22.8 316.48438 23.440624Q316.48438 24.534374 315.78125 25.3Q315.09375 26.05 313.26562 26.05L311.0625 26.05L311.0625 29.55L309.92188 29.55ZM311.0625 25.05L313.28125 25.05Q314.39062 25.05 314.84375 24.64375Q315.3125 24.221874 315.3125 23.471874Q315.3125 22.940624 315.03125 22.565624Q314.76562 22.175 314.32812 22.05Q314.03125 21.971874 313.26562 21.971874L311.0625 21.971874L311.0625 25.05ZM321.85938 28.784374Q321.26562 29.284374 320.71875 29.4875Q320.1875 29.690624 319.5625 29.690624Q318.53125 29.690624 317.98438 29.190624Q317.4375 28.690624 317.4375 27.909374Q317.4375 27.45625 317.64062 27.08125Q317.84375 26.690624 318.1875 26.471874Q318.53125 26.2375 318.95312 26.128124Q319.25 26.034374 319.89062 25.95625Q321.15625 25.815624 321.76562 25.596874Q321.76562 25.378124 321.76562 25.33125Q321.76562 24.675 321.46875 24.409374Q321.0625 24.065624 320.26562 24.065624Q319.53125 24.065624 319.17188 24.33125Q318.8125 24.58125 318.64062 25.2375L317.60938 25.096874Q317.75 24.440624 318.07812 24.034374Q318.40625 23.628124 319.01562 23.409374Q319.625 23.190624 320.42188 23.190624Q321.21875 23.190624 321.71875 23.378124Q322.21875 23.565624 322.45312 23.846874Q322.6875 24.128124 322.78125 24.565624Q322.82812 24.83125 322.82812 25.534374L322.82812 26.940624Q322.82812 28.409374 322.89062 28.8Q322.96875 29.190624 323.17188 29.55L322.0625 29.55Q321.90625 29.221874 321.85938 28.784374ZM321.76562 26.425Q321.1875 26.659374 320.04688 26.83125Q319.39062 26.925 319.125 27.05Q318.85938 27.159374 318.70312 27.378124Q318.5625 27.596874 318.5625 27.878124Q318.5625 28.3 318.875 28.58125Q319.20312 28.8625 319.8125 28.8625Q320.42188 28.8625 320.89062 28.596874Q321.375 28.33125 321.59375 27.8625Q321.76562 27.503124 321.76562 26.815624L321.76562 26.425ZM324.78125 29.55L324.78125 23.33125L325.73438 23.33125L325.73438 24.26875Q326.09375 23.6125 326.39062 23.409374Q326.70312 23.190624 327.07812 23.190624Q327.60938 23.190624 328.15625 23.51875L327.79688 24.503124Q327.40625 24.26875 327.03125 24.26875Q326.67188 24.26875 326.39062 24.4875Q326.125 24.690624 326.01562 25.065624Q325.82812 25.628124 325.82812 26.284374L325.82812 29.55L324.78125 29.55ZM333.04688 27.55L334.14062 27.675Q333.89062 28.628124 333.1875 29.159374Q332.48438 29.690624 331.40625 29.690624Q330.04688 29.690624 329.23438 28.846874Q328.4375 28.003124 328.4375 26.4875Q328.4375 24.925 329.25 24.065624Q330.0625 23.190624 331.34375 23.190624Q332.59375 23.190624 333.375 24.034374Q334.17188 24.878124 334.17188 26.425Q334.17188 26.51875 334.17188 26.70625L329.53125 26.70625Q329.59375 27.7375 330.10938 28.284374Q330.625 28.815624 331.40625 28.815624Q331.98438 28.815624 332.39062 28.51875Q332.8125 28.20625 333.04688 27.55ZM329.59375 25.846874L333.0625 25.846874Q333.0 25.05 332.67188 24.659374Q332.15625 24.05 331.35938 24.05Q330.625 24.05 330.125 24.534374Q329.64062 25.01875 329.59375 25.846874ZM335.79688 29.55L335.79688 23.33125L336.73438 23.33125L336.73438 24.20625Q337.42188 23.190624 338.71875 23.190624Q339.28125 23.190624 339.75 23.39375Q340.23438 23.596874 340.46875 23.925Q340.70312 24.253124 340.79688 24.690624Q340.84375 24.9875 340.84375 25.721874L340.84375 29.55L339.79688 29.55L339.79688 25.76875Q339.79688 25.1125 339.67188 24.8Q339.54688 24.4875 339.23438 24.3Q338.92188 24.096874 338.5 24.096874Q337.82812 24.096874 337.32812 24.534374Q336.84375 24.95625 336.84375 26.14375L336.84375 29.55L335.79688 29.55ZM345.09375 28.6125L345.25 29.534374Q344.79688 29.628124 344.45312 29.628124Q343.875 29.628124 343.5625 29.45625Q343.25 29.26875 343.10938 28.971874Q342.98438 28.675 342.98438 27.721874L342.98438 24.14375L342.21875 24.14375L342.21875 23.33125L342.98438 23.33125L342.98438 21.784374L344.03125 21.159374L344.03125 23.33125L345.09375 23.33125L345.09375 24.14375L344.03125 24.14375L344.03125 27.784374Q344.03125 28.2375 344.07812 28.3625Q344.14062 28.4875 344.26562 28.565624Q344.39062 28.64375 344.625 28.64375Q344.8125 28.64375 345.09375 28.6125Z" fill-rule="nonzero"/><path stroke="#34a853" stroke-width="4.0" stroke-linecap="butt" d="M361.0 25.55L373.0 25.55" fill-rule="nonzero"/><path fill="#1a1a1a" d="M381.9375 29.55L381.9375 20.95625L385.75 20.95625Q386.90625 20.95625 387.5 21.190624Q388.09375 21.425 388.45312 22.01875Q388.8125 22.596874 388.8125 23.3Q388.8125 24.221874 388.21875 24.846874Q387.625 25.471874 386.39062 25.64375Q386.84375 25.8625 387.07812 26.065624Q387.57812 26.51875 388.01562 27.20625L389.51562 29.55L388.07812 29.55L386.95312 27.76875Q386.45312 26.9875 386.125 26.58125Q385.8125 26.175 385.54688 26.01875Q385.29688 25.846874 385.03125 25.76875Q384.84375 25.7375 384.40625 25.7375L383.07812 25.7375L383.07812 29.55L381.9375 29.55ZM383.07812 24.753124L385.53125 24.753124Q386.29688 24.753124 386.73438 24.596874Q387.1875 24.425 387.40625 24.08125Q387.64062 23.721874 387.64062 23.3Q387.64062 22.690624 387.1875 22.3Q386.75 21.909374 385.79688 21.909374L383.07812 21.909374L383.07812 24.753124ZM390.40625 26.440624Q390.40625 24.70625 391.35938 23.878124Q392.15625 23.190624 393.3125 23.190624Q394.59375 23.190624 395.40625 24.034374Q396.23438 24.8625 396.23438 26.346874Q396.23438 27.55 395.875 28.2375Q395.51562 28.925 394.8125 29.315624Q394.125 29.690624 393.3125 29.690624Q392.01562 29.690624 391.20312 28.8625Q390.40625 28.01875 390.40625 26.440624ZM391.48438 26.440624Q391.48438 27.628124 392.0 28.221874Q392.53125 28.815624 393.3125 28.815624Q394.10938 28.815624 394.625 28.221874Q395.14062 27.628124 395.14062 26.409374Q395.14062 25.253124 394.60938 24.659374Q394.09375 24.065624 393.3125 24.065624Q392.53125 24.065624 392.0 24.659374Q391.48438 25.2375 391.48438 26.440624ZM397.40625 26.440624Q397.40625 24.70625 398.35938 23.878124Q399.15625 23.190624 400.3125 23.190624Q401.59375 23.190624 402.40625 24.034374Q403.23438 24.8625 403.23438 26.346874Q403.23438 27.55 402.875 28.2375Q402.51562 28.925 401.8125 29.315624Q401.125 29.690624 400.3125 29.690624Q399.01562 29.690624 398.20312 28.8625Q397.40625 28.01875 397.40625 26.440624ZM398.48438 26.440624Q398.48438 27.628124 399.0 28.221874Q399.53125 28.815624 400.3125 28.815624Q401.10938 28.815624 401.625 28.221874Q402.14062 27.628124 402.14062 26.409374Q402.14062 25.253124 401.60938 24.659374Q401.09375 24.065624 400.3125 24.065624Q399.53125 24.065624 399.0 24.659374Q398.48438 25.2375 398.48438 26.440624ZM407.09375 28.6125L407.25 29.534374Q406.79688 29.628124 406.45312 29.628124Q405.875 29.628124 405.5625 29.45625Q405.25 29.26875 405.10938 28.971874Q404.98438 28.675 404.98438 27.721874L404.98438 24.14375L404.21875 24.14375L404.21875 23.33125L404.98438 23.33125L404.98438 21.784374L406.03125 21.159374L406.03125 23.33125L407.09375 23.33125L407.09375 24.14375L406.03125 24.14375L406.03125 27.784374Q406.03125 28.2375 406.07812 28.3625Q406.14062 28.4875 406.26562 28.565624Q406.39062 28.64375 406.625 28.64375Q406.8125 28.64375 407.09375 28.6125Z" fill-rule="nonzero"/></svg>