<svg version="1.1" viewBox="0.0 0.0 600.0 371.0" fill="none" stroke="none" stroke-linecap="square" stroke-miterlimit="10" width="600" height="371" xmlns:xlink="http://www.w3.org/1999/xlink" xmlns="http://www.w3.org/2000/svg"><path fill="#ffffff" d="M0 0L600.0 0L600.0 371.0L0 371.0L0 0Z" fill-rule="nonzero"/><path stroke="#333333" stroke-width="1.0" stroke-linecap="butt" d="M45.5 51.5L45.5 300.5" fill-rule="nonzero"/><path stroke="#cccccc" stroke-width="1.0" stroke-linecap="butt" d="M134.5 51.5L134.5 300.5" fill-rule="nonzero"/><path stroke="#cccccc" stroke-width="1.0" stroke-linecap="butt" d="M224.5 51.5L224.5 300.5" fill-rule="nonzero"/><path stroke="#cccccc" stroke-width="1.0" stroke-linecap="butt" d="M313.5 51.5L313.5 300.5" fill-rule="nonzero"/><path stroke="#cccccc" stroke-width="1.0" stroke-linecap="butt" d="M402.5 51.5L402.5 300.5" fill-rule="nonzero"/><path stroke="#cccccc" stroke-width="1.0" stroke-linecap="butt" d="M492.5 51.5L492.5 300.5" fill-rule="nonzero"/><path stroke="#cccccc" stroke-width="1.0" stroke-linecap="butt" d="M581.5 51.5L581.5 300.5" fill-rule="nonzero"/><path stroke="#333333" stroke-width="1.0" stroke-linecap="butt" d="M45.5 300.5L581.5 300.5" fill-rule="nonzero"/><path stroke="#cccccc" stroke-width="1.0" stroke-linecap="butt" d="M45.5 238.5L581.5 238.5" fill-rule="nonzero"/><path stroke="#cccccc" stroke-width="1.0" stroke-linecap="butt" d="M45.5 176.5L581.5 176.5" fill-rule="nonzero"/><path stroke="#cccccc" stroke-width="1.0" stroke-linecap="butt" d="M45.5 114.5L581.5 114.5" fill-rule="nonzero"/><path stroke="#cccccc" stroke-width="1.0" stroke-linecap="butt" d="M45.5 51.5L581.5 51.5" fill-rule="nonzero"/><clipPath id="id_0"><path d="M45.55 51.916668L581.45 51.916668L581.45 300.45L45.55 300.45L45.55 51.916668Z" clip-rule="nonzero"/></clipPath><path stroke="#4285f4" stroke-width="2.0" stroke-linecap="butt" clip-path="url(#id_0)" d="M45.55 115.75867L90.208336 110.2288L134.86667 106.74934L179.525 102.462135L224.18333 99.6972L268.84167 100.56707L313.5 98.7652L358.15833 98.5788L402.81668 98.64093L447.475 99.57294L492.13333 100.8156L536.7917 102.61747L581.45 105.7552" fill-rule="nonzero"/><path stroke="#ea4335" stroke-width="2.0" stroke-linecap="butt" clip-path="url(#id_0)" d="M45.55 156.67346L90.208336 140.64307L134.86667 132.81427L179.525 128.52707L224.18333 124.799065L268.84167 123.58746L313.5 122.00307L358.15833 121.506L402.81668 120.91573L447.475 123.21467L492.13333 123.338936L536.7917 124.799065L581.45 130.39107" fill-rule="nonzero"/><path stroke="#fbbc04" stroke-width="2.0" stroke-linecap="butt" clip-path="url(#id_0)" d="M45.55 181.4336L90.208336 157.82294L134.86667 149.24854L179.525 145.33414L224.18333 139.99066L268.84167 138.49947L313.5 136.5112L358.15833 135.70346L402.81668 134.2744L447.475 134.98894L492.13333 137.28787L536.7917 140.3324L581.45 145.272" fill-rule="nonzero"/><path stroke="#34a853" stroke-width="2.0" stroke-linecap="butt" clip-path="url(#id_0)" d="M45.55 210.29454L90.208336 197.71254L134.86667 193.89133L179.525 191.46814L224.18333 183.45293L268.84167 176.8668L313.5 177.08427L358.15833 173.48053L402.81668 172.23787L447.475 172.54854L492.13333 172.3932L536.7917 174.69214L581.45 177.45706" fill-rule="nonzero"/><path fill="#000000" fill-opacity="0.0" clip-path="url(#id_0)" d="M48.55 115.75867C48.55 117.41552 47.206856 118.75867 45.55 118.75867C43.893147 118.75867 42.55 117.41552 42.55 115.75867C42.55 114.101814 43.893147 112.75867 45.55 112.75867C47.206856 112.75867 48.55 114.101814 48.55 115.75867Z" fill-rule="nonzero"/><path fill="#000000" fill-opacity="0.0" clip-path="url(#id_0)" d="M93.208336 110.2288C93.208336 111.88565 91.86519 113.2288 90.208336 113.2288C88.551476 113.2288 87.208336 111.88565 87.208336 110.2288C87.208336 108.571945 88.551476 107.2288 90.208336 107.2288C91.86519 107.2288 93.208336 108.571945 93.208336 110.2288Z" fill-rule="nonzero"/><path fill="#000000" fill-opacity="0.0" clip-path="url(#id_0)" d="M137.86667 106.74934C137.86667 108.40619 136.52351 109.74934 134.86667 109.74934C133.20981 109.74934 131.86667 108.40619 131.86667 106.74934C131.86667 105.092476 133.20981 103.74934 134.86667 103.74934C136.52351 103.74934 137.86667 105.092476 137.86667 106.74934Z" fill-rule="nonzero"/><path fill="#000000" fill-opacity="0.0" clip-path="url(#id_0)" d="M182.525 102.462135C182.525 104.11899 181.18185 105.462135 179.525 105.462135C177.86815 105.462135 176.525 104.11899 176.525 102.462135C176.525 100.80528 177.86815 99.462135 179.525 99.462135C181.18185 99.462135 182.525 100.80528 182.525 102.462135Z" fill-rule="nonzero"/><path fill="#000000" fill-opacity="0.0" clip-path="url(#id_0)" d="M227.18333 99.6972C227.18333 101.35406 225.8402 102.6972 224.18333 102.6972C222.52647 102.6972 221.18333 101.35406 221.18333 99.6972C221.18333 98.040344 222.52647 96.6972 224.18333 96.6972C225.8402 96.6972 227.18333 98.040344 227.18333 99.6972Z" fill-rule="nonzero"/><path fill="#000000" fill-opacity="0.0" clip-path="url(#id_0)" d="M271.84167 100.56707C271.84167 102.22392 270.49854 103.56707 268.84167 103.56707C267.1848 103.56707 265.84167 102.22392 265.84167 100.56707C265.84167 98.91021 267.1848 97.56707 268.84167 97.56707C270.49854 97.56707 271.84167 98.91021 271.84167 100.56707Z" fill-rule="nonzero"/><path fill="#000000" fill-opacity="0.0" clip-path="url(#id_0)" d="M316.5 98.7652C316.5 100.42205 315.15686 101.7652 313.5 101.7652C311.84314 101.7652 310.5 100.42205 310.5 98.7652C310.5 97.108345 311.84314 95.7652 313.5 95.7652C315.15686 95.7652 316.5 97.108345 316.5 98.7652Z" fill-rule="nonzero"/><path fill="#000000" fill-opacity="0.0" clip-path="url(#id_0)" d="M361.15833 98.5788C361.15833 100.23566 359.8152 101.5788 358.15833 101.5788C356.50146 101.5788 355.15833 100.23566 355.15833 98.5788C355.15833 96.92194 356.50146 95.5788 358.15833 95.5788C359.8152 95.5788 361.15833 96.92194 361.15833 98.5788Z" fill-rule="nonzero"/><path fill="#000000" fill-opacity="0.0" clip-path="url(#id_0)" d="M405.81668 98.64093C405.81668 100.29779 404.4735 101.64093 402.81668 101.64093C401.15982 101.64093 399.81668 100.29779 399.81668 98.64093C399.81668 96.98408 401.15982 95.64093 402.81668 95.64093C404.4735 95.64093 405.81668 96.98408 405.81668 98.64093Z" fill-rule="nonzero"/><path fill="#000000" fill-opacity="0.0" clip-path="url(#id_0)" d="M450.475 99.57294C450.475 101.22979 449.13187 102.57294 447.475 102.57294C445.81815 102.57294 444.475 101.22979 444.475 99.57294C444.475 97.91608 445.81815 96.57294 447.475 96.57294C449.13187 96.57294 450.475 97.91608 450.475 99.57294Z" fill-rule="nonzero"/><path fill="#000000" fill-opacity="0.0" clip-path="url(#id_0)" d="M495.13333 100.8156C495.13333 102.47246 493.7902 103.8156 492.13333 103.8156C490.47647 103.8156 489.13333 102.47246 489.13333 100.8156C489.13333 99.158745 490.47647 97.8156 492.13333 97.8156C493.7902 97.8156 495.13333 99.158745 495.13333 100.8156Z" fill-rule="nonzero"/><path fill="#000000" fill-opacity="0.0" clip-path="url(#id_0)" d="M539.7917 102.61747C539.7917 104.27432 538.44855 105.61747 536.7917 105.61747C535.1348 105.61747 533.7917 104.27432 533.7917 102.61747C533.7917 100.96061 535.1348 99.61747 536.7917 99.61747C538.44855 99.61747 539.7917 100.96061 539.7917 102.61747Z" fill-rule="nonzero"/><path fill="#000000" fill-opacity="0.0" clip-path="url(#id_0)" d="M584.45 105.7552C584.45 107.412056 583.1069 108.7552 581.45 108.7552C579.79315 108.7552 578.45 107.412056 578.45 105.7552C578.45 104.09834 579.79315 102.7552 581.45 102.7552C583.1069 102.7552 584.45 104.09834 584.45 105.7552Z" fill-rule="nonzero"/><path fill="#000000" fill-opacity="0.0" clip-path="url(#id_0)" d="M48.55 156.67346C48.55 158.33032 47.206856 159.67346 45.55 159.67346C43.893147 159.67346 42.55 158.33032 42.55 156.67346C42.55 155.01662 43.893147 153.67346 45.55 153.67346C47.206856 153.67346 48.55 155.01662 48.55 156.67346Z" fill-rule="nonzero"/><path fill="#000000" fill-opacity="0.0" clip-path="url(#id_0)" d="M93.208336 140.64307C93.208336 142.29993 91.86519 143.64307 90.208336 143.64307C88.551476 143.64307 87.208336 142.29993 87.208336 140.64307C87.208336 138.9862 88.551476 137.64307 90.208336 137.64307C91.86519 137.64307 93.208336 138.9862 93.208336 140.64307Z" fill-rule="nonzero"/><path fill="#000000" fill-opacity="0.0" clip-path="url(#id_0)" d="M137.86667 132.81427C137.86667 134.47112 136.52351 135.81427 134.86667 135.81427C133.20981 135.81427 131.86667 134.47112 131.86667 132.81427C131.86667 131.15741 133.20981 129.81427 134.86667 129.81427C136.52351 129.81427 137.86667 131.15741 137.86667 132.81427Z" fill-rule="nonzero"/><path fill="#000000" fill-opacity="0.0" clip-path="url(#id_0)" d="M182.525 128.52707C182.525 130.18391 181.18185 131.52707 179.525 131.52707C177.86815 131.52707 176.525 130.18391 176.525 128.52707C176.525 126.87021 177.86815 125.52707 179.525 125.52707C181.18185 125.52707 182.525 126.87021 182.525 128.52707Z" fill-rule="nonzero"/><path fill="#000000" fill-opacity="0.0" clip-path="url(#id_0)" d="M227.18333 124.799065C227.18333 126.45592 225.8402 127.799065 224.18333 127.799065C222.52647 127.799065 221.18333 126.45592 221.18333 124.799065C221.18333 123.14221 222.52647 121.799065 224.18333 121.799065C225.8402 121.799065 227.18333 123.14221 227.18333 124.799065Z" fill-rule="nonzero"/><path fill="#000000" fill-opacity="0.0" clip-path="url(#id_0)" d="M271.84167 123.58746C271.84167 125.24432 270.49854 126.58746 268.84167 126.58746C267.1848 126.58746 265.84167 125.24432 265.84167 123.58746C265.84167 121.93061 267.1848 120.58746 268.84167 120.58746C270.49854 120.58746 271.84167 121.93061 271.84167 123.58746Z" fill-rule="nonzero"/><path fill="#000000" fill-opacity="0.0" clip-path="url(#id_0)" d="M316.5 122.00307C316.5 123.65992 315.15686 125.00307 313.5 125.00307C311.84314 125.00307 310.5 123.65992 310.5 122.00307C310.5 120.346214 311.84314 119.00307 313.5 119.00307C315.15686 119.00307 316.5 120.346214 316.5 122.00307Z" fill-rule="nonzero"/><path fill="#000000" fill-opacity="0.0" clip-path="url(#id_0)" d="M361.15833 121.506C361.15833 123.16286 359.8152 124.506 358.15833 124.506C356.50146 124.506 355.15833 123.16286 355.15833 121.506C355.15833 119.849144 356.50146 118.506 358.15833 118.506C359.8152 118.506 361.15833 119.849144 361.15833 121.506Z" fill-rule="nonzero"/><path fill="#000000" fill-opacity="0.0" clip-path="url(#id_0)" d="M405.81668 120.91573C405.81668 122.572586 404.4735 123.91573 402.81668 123.91573C401.15982 123.91573 399.81668 122.572586 399.81668 120.91573C399.81668 119.25888 401.15982 117.91573 402.81668 117.91573C404.4735 117.91573 405.81668 119.25888 405.81668 120.91573Z" fill-rule="nonzero"/><path fill="#000000" fill-opacity="0.0" clip-path="url(#id_0)" d="M450.475 123.21467C450.475 124.87152 449.13187 126.21467 447.475 126.21467C445.81815 126.21467 444.475 124.87152 444.475 123.21467C444.475 121.557816 445.81815 120.21467 447.475 120.21467C449.13187 120.21467 450.475 121.557816 450.475 123.21467Z" fill-rule="nonzero"/><path fill="#000000" fill-opacity="0.0" clip-path="url(#id_0)" d="M495.13333 123.338936C495.13333 124.99579 493.7902 126.338936 492.13333 126.338936C490.47647 126.338936 489.13333 124.99579 489.13333 123.338936C489.13333 121.682076 490.47647 120.338936 492.13333 120.338936C493.7902 120.338936 495.13333 121.682076 495.13333 123.338936Z" fill-rule="nonzero"/><path fill="#000000" fill-opacity="0.0" clip-path="url(#id_0)" d="M539.7917 124.799065C539.7917 126.45592 538.44855 127.799065 536.7917 127.799065C535.1348 127.799065 533.7917 126.45592 533.7917 124.799065C533.7917 123.14221 535.1348 121.799065 536.7917 121.799065C538.44855 121.799065 539.7917 123.14221 539.7917 124.799065Z" fill-rule="nonzero"/><path fill="#000000" fill-opacity="0.0" clip-path="url(#id_0)" d="M584.45 130.39107C584.45 132.04793 583.1069 133.39107 581.45 133.39107C579.79315 133.39107 578.45 132.04793 578.45 130.39107C578.45 128.7342 579.79315 127.39107 581.45 127.39107C583.1069 127.39107 584.45 128.7342 584.45 130.39107Z" fill-rule="nonzero"/><path fill="#000000" fill-opacity="0.0" clip-path="url(#id_0)" d="M48.55 181.4336C48.55 183.09045 47.206856 184.4336 45.55 184.4336C43.893147 184.4336 42.55 183.09045 42.55 181.4336C42.55 179.77675 43.893147 178.4336 45.55 178.4336C47.206856 178.4336 48.55 179.77675 48.55 181.4336Z" fill-rule="nonzero"/><path fill="#000000" fill-opacity="0.0" clip-path="url(#id_0)" d="M93.208336 157.82294C93.208336 159.47978 91.86519 160.82294 90.208336 160.82294C88.551476 160.82294 87.208336 159.47978 87.208336 157.82294C87.208336 156.16608 88.551476 154.82294 90.208336 154.82294C91.86519 154.82294 93.208336 156.16608 93.208336 157.82294Z" fill-rule="nonzero"/><path fill="#000000" fill-opacity="0.0" clip-path="url(#id_0)" d="M137.86667 149.24854C137.86667 150.90538 136.52351 152.24854 134.86667 152.24854C133.20981 152.24854 131.86667 150.90538 131.86667 149.24854C131.86667 147.59167 133.20981 146.24854 134.86667 146.24854C136.52351 146.24854 137.86667 147.59167 137.86667 149.24854Z" fill-rule="nonzero"/><path fill="#000000" fill-opacity="0.0" clip-path="url(#id_0)" d="M182.525 145.33414C182.525 146.99098 181.18185 148.33414 179.525 148.33414C177.86815 148.33414 176.525 146.99098 176.525 145.33414C176.525 143.67728 177.86815 142.33414 179.525 142.33414C181.18185 142.33414 182.525 143.67728 182.525 145.33414Z" fill-rule="nonzero"/><path fill="#000000" fill-opacity="0.0" clip-path="url(#id_0)" d="M227.18333 139.99066C227.18333 141.64752 225.8402 142.99066 224.18333 142.99066C222.52647 142.99066 221.18333 141.64752 221.18333 139.99066C221.18333 138.33382 222.52647 136.99066 224.18333 136.99066C225.8402 136.99066 227.18333 138.33382 227.18333 139.99066Z" fill-rule="nonzero"/><path fill="#000000" fill-opacity="0.0" clip-path="url(#id_0)" d="M271.84167 138.49947C271.84167 140.15633 270.49854 141.49947 268.84167 141.49947C267.1848 141.49947 265.84167 140.15633 265.84167 138.49947C265.84167 136.8426 267.1848 135.49947 268.84167 135.49947C270.49854 135.49947 271.84167 136.8426 271.84167 138.49947Z" fill-rule="nonzero"/><path fill="#000000" fill-opacity="0.0" clip-path="url(#id_0)" d="M316.5 136.5112C316.5 138.16806 315.15686 139.5112 313.5 139.5112C311.84314 139.5112 310.5 138.16806 310.5 136.5112C310.5 134.85434 311.84314 133.5112 313.5 133.5112C315.15686 133.5112 316.5 134.85434 316.5 136.5112Z" fill-rule="nonzero"/><path fill="#000000" fill-opacity="0.0" clip-path="url(#id_0)" d="M361.15833 135.70346C361.15833 137.36032 359.8152 138.70346 358.15833 138.70346C356.50146 138.70346 355.15833 137.36032 355.15833 135.70346C355.15833 134.04662 356.50146 132.70346 358.15833 132.70346C359.8152 132.70346 361.15833 134.04662 361.15833 135.70346Z" fill-rule="nonzero"/><path fill="#000000" fill-opacity="0.0" clip-path="url(#id_0)" d="M405.81668 134.2744C405.81668 135.93126 404.4735 137.2744 402.81668 137.2744C401.15982 137.2744 399.81668 135.93126 399.81668 134.2744C399.81668 132.61754 401.15982 131.2744 402.81668 131.2744C404.4735 131.2744 405.81668 132.61754 405.81668 134.2744Z" fill-rule="nonzero"/><path fill="#000000" fill-opacity="0.0" clip-path="url(#id_0)" d="M450.475 134.98894C450.475 136.64578 449.13187 137.98894 447.475 137.98894C445.81815 137.98894 444.475 136.64578 444.475 134.98894C444.475 133.33208 445.81815 131.98894 447.475 131.98894C449.13187 131.98894 450.475 133.33208 450.475 134.98894Z" fill-rule="nonzero"/><path fill="#000000" fill-opacity="0.0" clip-path="url(#id_0)" d="M495.13333 137.28787C495.13333 138.94472 493.7902 140.28787 492.13333 140.28787C490.47647 140.28787 489.13333 138.94472 489.13333 137.28787C489.13333 135.63101 490.47647 134.28787 492.13333 134.28787C493.7902 134.28787 495.13333 135.63101 495.13333 137.28787Z" fill-rule="nonzero"/><path fill="#000000" fill-opacity="0.0" clip-path="url(#id_0)" d="M539.7917 140.3324C539.7917 141.98926 538.44855 143.3324 536.7917 143.3324C535.1348 143.3324 533.7917 141.98926 533.7917 140.3324C533.7917 138.67555 535.1348 137.3324 536.7917 137.3324C538.44855 137.3324 539.7917 138.67555 539.7917 140.3324Z" fill-rule="nonzero"/><path fill="#000000" fill-opacity="0.0" clip-path="url(#id_0)" d="M584.45 145.272C584.45 146.92885 583.1069 148.272 581.45 148.272C579.79315 148.272 578.45 146.92885 578.45 145.272C578.45 143.61514 579.79315 142.272 581.45 142.272C583.1069 142.272 584.45 143.61514 584.45 145.272Z" fill-rule="nonzero"/><path fill="#000000" fill-opacity="0.0" clip-path="url(#id_0)" d="M48.55 210.29454C48.55 211.95139 47.206856 213.29454 45.55 213.29454C43.893147 213.29454 42.55 211.95139 42.55 210.29454C42.55 208.63768 43.893147 207.29454 45.55 207.29454C47.206856 207.29454 48.55 208.63768 48.55 210.29454Z" fill-rule="nonzero"/><path fill="#000000" fill-opacity="0.0" clip-path="url(#id_0)" d="M93.208336 197.71254C93.208336 199.36938 91.86519 200.71254 90.208336 200.71254C88.551476 200.71254 87.208336 199.36938 87.208336 197.71254C87.208336 196.05568 88.551476 194.71254 90.208336 194.71254C91.86519 194.71254 93.208336 196.05568 93.208336 197.71254Z" fill-rule="nonzero"/><path fill="#000000" fill-opacity="0.0" clip-path="url(#id_0)" d="M137.86667 193.89133C137.86667 195.54819 136.52351 196.89133 134.86667 196.89133C133.20981 196.89133 131.86667 195.54819 131.86667 193.89133C131.86667 192.23448 133.20981 190.89133 134.86667 190.89133C136.52351 190.89133 137.86667 192.23448 137.86667 193.89133Z" fill-rule="nonzero"/><path fill="#000000" fill-opacity="0.0" clip-path="url(#id_0)" d="M182.525 191.46814C182.525 193.12498 181.18185 194.46814 179.525 194.46814C177.86815 194.46814 176.525 193.12498 176.525 191.46814C176.525 189.81128 177.86815 188.46814 179.525 188.46814C181.18185 188.46814 182.525 189.81128 182.525 191.46814Z" fill-rule="nonzero"/><path fill="#000000" fill-opacity="0.0" clip-path="url(#id_0)" d="M227.18333 183.45293C227.18333 185.10979 225.8402 186.45293 224.18333 186.45293C222.52647 186.45293 221.18333 185.10979 221.18333 183.45293C221.18333 181.79608 222.52647 180.45293 224.18333 180.45293C225.8402 180.45293 227.18333 181.79608 227.18333 183.45293Z" fill-rule="nonzero"/><path fill="#000000" fill-opacity="0.0" clip-path="url(#id_0)" d="M271.84167 176.8668C271.84167 178.52365 270.49854 179.8668 268.84167 179.8668C267.1848 179.8668 265.84167 178.52365 265.84167 176.8668C265.84167 175.20995 267.1848 173.8668 268.84167 173.8668C270.49854 173.8668 271.84167 175.20995 271.84167 176.8668Z" fill-rule="nonzero"/><path fill="#000000" fill-opacity="0.0" clip-path="url(#id_0)" d="M316.5 177.08427C316.5 178.74112 315.15686 180.08427 313.5 180.08427C311.84314 180.08427 310.5 178.74112 310.5 177.08427C310.5 175.42741 311.84314 174.08427 313.5 174.08427C315.15686 174.08427 316.5 175.42741 316.5 177.08427Z" fill-rule="nonzero"/><path fill="#000000" fill-opacity="0.0" clip-path="url(#id_0)" d="M361.15833 173.48053C361.15833 175.13739 359.8152 176.48053 358.15833 176.48053C356.50146 176.48053 355.15833 175.13739 355.15833 173.48053C355.15833 171.82368 356.50146 170.48053 358.15833 170.48053C359.8152 170.48053 361.15833 171.82368 361.15833 173.48053Z" fill-rule="nonzero"/><path fill="#000000" fill-opacity="0.0" clip-path="url(#id_0)" d="M405.81668 172.23787C405.81668 173.89471 404.4735 175.23787 402.81668 175.23787C401.15982 175.23787 399.81668 173.89471 399.81668 172.23787C399.81668 170.58101 401.15982 169.23787 402.81668 169.23787C404.4735 169.23787 405.81668 170.58101 405.81668 172.23787Z" fill-rule="nonzero"/><path fill="#000000" fill-opacity="0.0" clip-path="url(#id_0)" d="M450.475 172.54854C450.475 174.20538 449.13187 175.54854 447.475 175.54854C445.81815 175.54854 444.475 174.20538 444.475 172.54854C444.475 170.89168 445.81815 169.54854 447.475 169.54854C449.13187 169.54854 450.475 170.89168 450.475 172.54854Z" fill-rule="nonzero"/><path fill="#000000" fill-opacity="0.0" clip-path="url(#id_0)" d="M495.13333 172.3932C495.13333 174.05005 493.7902 175.3932 492.13333 175.3932C490.47647 175.3932 489.13333 174.05005 489.13333 172.3932C489.13333 170.73634 490.47647 169.3932 492.13333 169.3932C493.7902 169.3932 495.13333 170.73634 495.13333 172.3932Z" fill-rule="nonzero"/><path fill="#000000" fill-opacity="0.0" clip-path="url(#id_0)" d="M539.7917 174.69214C539.7917 176.34898 538.44855 177.69214 536.7917 177.69214C535.1348 177.69214 533.7917 176.34898 533.7917 174.69214C533.7917 173.03528 535.1348 171.69214 536.7917 171.69214C538.44855 171.69214 539.7917 173.03528 539.7917 174.69214Z" fill-rule="nonzero"/><path fill="#000000" fill-opacity="0.0" clip-path="url(#id_0)" d="M584.45 177.45706C584.45 179.11392 583.1069 180.45706 581.45 180.45706C579.79315 180.45706 578.45 179.11392 578.45 177.45706C578.45 175.80022 579.79315 174.45706 581.45 174.45706C583.1069 174.45706 584.45 175.80022 584.45 177.45706Z" fill-rule="nonzero"/><path fill="#000000" d="M298.875 349.45L298.875 340.85626L300.01562 340.85626L300.01562 348.4344L304.25 348.4344L304.25 349.45L298.875 349.45ZM309.85938 348.6844Q309.26562 349.1844 308.71875 349.3875Q308.1875 349.59064 307.5625 349.59064Q306.53125 349.59064 305.98438 349.09064Q305.4375 348.59064 305.4375 347.8094Q305.4375 347.35626 305.64062 346.98126Q305.84375 346.59064 306.1875 346.3719Q306.53125 346.1375 306.95312 346.02814Q307.25 345.9344 307.89062 345.85626Q309.15625 345.71564 309.76562 345.4969Q309.76562 345.27814 309.76562 345.23126Q309.76562 344.575 309.46875 344.3094Q309.0625 343.96564 308.26562 343.96564Q307.53125 343.96564 307.17188 344.23126Q306.8125 344.48126 306.64062 345.1375L305.60938 344.9969Q305.75 344.34064 306.07812 343.9344Q306.40625 343.52814 307.01562 343.3094Q307.625 343.09064 308.42188 343.09064Q309.21875 343.09064 309.71875 343.27814Q310.21875 343.46564 310.45312 343.7469Q310.6875 344.02814 310.78125 344.46564Q310.82812 344.73126 310.82812 345.4344L310.82812 346.84064Q310.82812 348.3094 310.89062 348.7Q310.96875 349.09064 311.17188 349.45L310.0625 349.45Q309.90625 349.1219 309.85938 348.6844ZM309.76562 346.325Q309.1875 346.5594 308.04688 346.73126Q307.39062 346.825 307.125 346.95Q306.85938 347.0594 306.70312 347.27814Q306.5625 347.4969 306.5625 347.77814Q306.5625 348.2 306.875 348.48126Q307.20312 348.7625 307.8125 348.7625Q308.42188 348.7625 308.89062 348.4969Q309.375 348.23126 309.59375 347.7625Q309.76562 347.40314 309.76562 346.71564L309.76562 346.325ZM312.75 351.84064L312.625 350.85626Q312.96875 350.95 313.23438 350.95Q313.57812 350.95 313.78125 350.825Q314.0 350.71564 314.14062 350.5125Q314.23438 350.34064 314.46875 349.71564Q314.48438 349.6375 314.5625 349.46564L312.1875 343.23126L313.32812 343.23126L314.625 346.825Q314.875 347.5125 315.07812 348.27814Q315.26562 347.54376 315.51562 346.85626L316.84375 343.23126L317.89062 343.23126L315.53125 349.5594Q315.14062 350.575 314.9375 350.96564Q314.65625 351.4969 314.28125 351.73126Q313.92188 351.98126 313.42188 351.98126Q313.125 351.98126 312.75 351.84064ZM323.04688 347.45L324.14062 347.575Q323.89062 348.52814 323.1875 349.0594Q322.48438 349.59064 321.40625 349.59064Q320.04688 349.59064 319.23438 348.7469Q318.4375 347.90314 318.4375 346.3875Q318.4375 344.825 319.25 343.96564Q320.0625 343.09064 321.34375 343.09064Q322.59375 343.09064 323.375 343.9344Q324.17188 344.77814 324.17188 346.325Q324.17188 346.41876 324.17188 346.60626L319.53125 346.60626Q319.59375 347.6375 320.10938 348.1844Q320.625 348.71564 321.40625 348.71564Q321.98438 348.71564 322.39062 348.41876Q322.8125 348.10626 323.04688 347.45ZM319.59375 345.7469L323.0625 345.7469Q323.0 344.95 322.67188 344.5594Q322.15625 343.95 321.35938 343.95Q320.625 343.95 320.125 344.4344Q319.64062 344.91876 319.59375 345.7469ZM325.78125 349.45L325.78125 343.23126L326.73438 343.23126L326.73438 344.16876Q327.09375 343.5125 327.39062 343.3094Q327.70312 343.09064 328.07812 343.09064Q328.60938 343.09064 329.15625 343.41876L328.79688 344.40314Q328.40625 344.16876 328.03125 344.16876Q327.67188 344.16876 327.39062 344.3875Q327.125 344.59064 327.01562 344.96564Q326.82812 345.52814 326.82812 346.1844L326.82812 349.45L325.78125 349.45Z" fill-rule="nonzero"/><path fill="#000000" d="M33.05 300.21564Q33.05 298.6844 33.3625 297.7625Q33.675 296.825 34.284374 296.325Q34.909374 295.825 35.846874 295.825Q36.534374 295.825 37.05 296.10626Q37.58125 296.3875 37.925 296.91876Q38.26875 297.4344 38.45625 298.1844Q38.64375 298.9344 38.64375 300.21564Q38.64375 301.73126 38.33125 302.65314Q38.034374 303.575 37.409374 304.09064Q36.8 304.59064 35.846874 304.59064Q34.6125 304.59064 33.89375 303.7Q33.05 302.6375 33.05 300.21564ZM34.128124 300.21564Q34.128124 302.325 34.628124 303.02814Q35.128124 303.73126 35.846874 303.73126Q36.58125 303.73126 37.065624 303.02814Q37.565624 302.325 37.565624 300.21564Q37.565624 298.09064 37.065624 297.40314Q36.58125 296.7 35.83125 296.7Q35.1125 296.7 34.675 297.3094Q34.128124 298.09064 34.128124 300.21564Z" fill-rule="nonzero"/><path fill="#000000" d="M31.596874 241.30104L31.596874 242.31667L25.909374 242.31667Q25.909374 241.94167 26.034374 241.58229Q26.253124 241.00417 26.721874 240.44167Q27.20625 239.87917 28.1125 239.14479Q29.51875 237.98854 30.003124 237.31667Q30.503124 236.64479 30.503124 236.05104Q30.503124 235.42604 30.05 235.00417Q29.596874 234.56667 28.878124 234.56667Q28.1125 234.56667 27.659374 235.01979Q27.20625 235.47292 27.190624 236.28542L26.1125 236.17604Q26.221874 234.95729 26.940624 234.33229Q27.675 233.69167 28.909374 233.69167Q30.14375 233.69167 30.8625 234.37917Q31.58125 235.06667 31.58125 236.08229Q31.58125 236.59792 31.3625 237.09792Q31.159374 237.58229 30.659374 238.14479Q30.175 238.69167 29.05 239.64479Q28.096874 240.44167 27.815624 240.73854Q27.55 241.01979 27.378124 241.30104L31.596874 241.30104ZM33.05 238.08229Q33.05 236.55104 33.3625 235.62917Q33.675 234.69167 34.284374 234.19167Q34.909374 233.69167 35.846874 233.69167Q36.534374 233.69167 37.05 233.97292Q37.58125 234.25417 37.925 234.78542Q38.26875 235.30104 38.45625 236.05104Q38.64375 236.80104 38.64375 238.08229Q38.64375 239.59792 38.33125 240.51979Q38.034374 241.44167 37.409374 241.95729Q36.8 242.45729 35.846874 242.45729Q34.6125 242.45729 33.89375 241.56667Q33.05 240.50417 33.05 238.08229ZM34.128124 238.08229Q34.128124 240.19167 34.628124 240.89479Q35.128124 241.59792 35.846874 241.59792Q36.58125 241.59792 37.065624 240.89479Q37.565624 240.19167 37.565624 238.08229Q37.565624 235.95729 37.065624 235.26979Q36.58125 234.56667 35.83125 234.56667Q35.1125 234.56667 34.675 235.17604Q34.128124 235.95729 34.128124 238.08229Z" fill-rule="nonzero"/><path fill="#000000" d="M29.425 180.18333L29.425 178.12083L25.70625 178.12083L25.70625 177.15208L29.628124 171.58958L30.4875 171.58958L30.4875 177.15208L31.64375 177.15208L31.64375 178.12083L30.4875 178.12083L30.4875 180.18333L29.425 180.18333ZM29.425 177.15208L29.425 173.29271L26.7375 177.15208L29.425 177.15208ZM33.05 175.94896Q33.05 174.41771 33.3625 173.49583Q33.675 172.55833 34.284374 172.05833Q34.909374 171.55833 35.846874 171.55833Q36.534374 171.55833 37.05 171.83958Q37.58125 172.12083 37.925 172.65208Q38.26875 173.16771 38.45625 173.91771Q38.64375 174.66771 38.64375 175.94896Q38.64375 177.46458 38.33125 178.38646Q38.034374 179.30833 37.409374 179.82396Q36.8 180.32396 35.846874 180.32396Q34.6125 180.32396 33.89375 179.43333Q33.05 178.37083 33.05 175.94896ZM34.128124 175.94896Q34.128124 178.05833 34.628124 178.76146Q35.128124 179.46458 35.846874 179.46458Q36.58125 179.46458 37.065624 178.76146Q37.565624 178.05833 37.565624 175.94896Q37.565624 173.82396 37.065624 173.13646Q36.58125 172.43333 35.83125 172.43333Q35.1125 172.43333 34.675 173.04271Q34.128124 173.82396 34.128124 175.94896Z" fill-rule="nonzero"/><path fill="#000000" d="M31.51875 111.56563L30.471874 111.64375Q30.33125 111.01875 30.08125 110.7375Q29.64375 110.28438 29.01875 110.28438Q28.51875 110.28438 28.128124 110.56563Q27.64375 110.94063 27.346874 111.64375Q27.065624 112.33125 27.05 113.6125Q27.425 113.03438 27.971874 112.75313Q28.534374 112.47188 29.14375 112.47188Q30.190624 112.47188 30.925 113.25313Q31.675 114.03438 31.675 115.25313Q31.675 116.06563 31.315624 116.76875Q30.971874 117.45625 30.3625 117.83125Q29.753124 118.19063 28.9875 118.19063Q27.659374 118.19063 26.83125 117.22188Q26.003124 116.25313 26.003124 114.03438Q26.003124 111.53438 26.925 110.40938Q27.721874 109.425 29.08125 109.425Q30.096874 109.425 30.7375 110.00313Q31.39375 110.56563 31.51875 111.56563ZM27.221874 115.26875Q27.221874 115.81563 27.440624 116.31563Q27.675 116.8 28.08125 117.06563Q28.503124 117.33125 28.971874 117.33125Q29.628124 117.33125 30.1125 116.8Q30.596874 116.25313 30.596874 115.33125Q30.596874 114.44063 30.1125 113.925Q29.64375 113.40938 28.925 113.40938Q28.20625 113.40938 27.70625 113.925Q27.221874 114.44063 27.221874 115.26875ZM33.05 113.81563Q33.05 112.28438 33.3625 111.3625Q33.675 110.425 34.284374 109.925Q34.909374 109.425 35.846874 109.425Q36.534374 109.425 37.05 109.70625Q37.58125 109.9875 37.925 110.51875Q38.26875 111.03438 38.45625 111.78438Q38.64375 112.53438 38.64375 113.81563Q38.64375 115.33125 38.33125 116.25313Q38.034374 117.175 37.409374 117.69063Q36.8 118.19063 35.846874 118.19063Q34.6125 118.19063 33.89375 117.3Q33.05 116.2375 33.05 113.81563ZM34.128124 113.81563Q34.128124 115.925 34.628124 116.62813Q35.128124 117.33125 35.846874 117.33125Q36.58125 117.33125 37.065624 116.62813Q37.565624 115.925 37.565624 113.81563Q37.565624 111.69063 37.065624 111.00313Q36.58125 110.3 35.83125 110.3Q35.1125 110.3 34.675 110.90938Q34.128124 111.69063 34.128124 113.81563Z" fill-rule="nonzero"/><path fill="#000000" d="M27.675 51.260418Q27.01875 51.010418 26.690624 50.572918Q26.378124 50.119793 26.378124 49.510418Q26.378124 48.572918 27.05 47.932293Q27.7375 47.291668 28.846874 47.291668Q29.971874 47.291668 30.659374 47.947918Q31.346874 48.604168 31.346874 49.541668Q31.346874 50.135418 31.034374 50.572918Q30.721874 51.010418 30.08125 51.260418Q30.878124 51.510418 31.284374 52.088543Q31.690624 52.666668 31.690624 53.463543Q31.690624 54.557293 30.909374 55.307293Q30.14375 56.057293 28.8625 56.057293Q27.596874 56.057293 26.815624 55.307293Q26.034374 54.557293 26.034374 53.432293Q26.034374 52.588543 26.45625 52.026043Q26.89375 51.463543 27.675 51.260418ZM27.45625 49.463543Q27.45625 50.072918 27.846874 50.463543Q28.253124 50.854168 28.878124 50.854168Q29.4875 50.854168 29.878124 50.479168Q30.26875 50.088543 30.26875 49.526043Q30.26875 48.947918 29.8625 48.557293Q29.45625 48.151043 28.8625 48.151043Q28.253124 48.151043 27.846874 48.541668Q27.45625 48.932293 27.45625 49.463543ZM27.128124 53.432293Q27.128124 53.885418 27.33125 54.307293Q27.55 54.729168 27.971874 54.963543Q28.39375 55.197918 28.878124 55.197918Q29.628124 55.197918 30.1125 54.713543Q30.6125 54.229168 30.6125 53.479168Q30.6125 52.713543 30.1125 52.213543Q29.6125 51.713543 28.846874 51.713543Q28.096874 51.713543 27.6125 52.213543Q27.128124 52.697918 27.128124 53.432293ZM33.05 51.682293Q33.05 50.151043 33.3625 49.229168Q33.675 48.291668 34.284374 47.791668Q34.909374 47.291668 35.846874 47.291668Q36.534374 47.291668 37.05 47.572918Q37.58125 47.854168 37.925 48.385418Q38.26875 48.901043 38.45625 49.651043Q38.64375 50.401043 38.64375 51.682293Q38.64375 53.197918 38.33125 54.119793Q38.034374 55.041668 37.409374 55.557293Q36.8 56.057293 35.846874 56.057293Q34.6125 56.057293 33.89375 55.166668Q33.05 54.104168 33.05 51.682293ZM34.128124 51.682293Q34.128124 53.791668 34.628124 54.494793Q35.128124 55.197918 35.846874 55.197918Q36.58125 55.197918 37.065624 54.494793Q37.565624 53.791668 37.565624 51.682293Q37.565624 49.557293 37.065624 48.869793Q36.58125 48.166668 35.83125 48.166668Q35.1125 48.166668 34.675 48.776043Q34.128124 49.557293 34.128124 51.682293Z" fill-rule="nonzero"/><path fill="#000000" d="M42.55 313.21564Q42.55 311.6844 42.8625 310.7625Q43.175 309.825 43.784374 309.325Q44.409374 308.825 45.346874 308.825Q46.034374 308.825 46.55 309.10626Q47.08125 309.3875 47.425 309.91876Q47.76875 310.4344 47.95625 311.1844Q48.14375 311.9344 48.14375 313.21564Q48.14375 314.73126 47.83125 315.65314Q47.534374 316.575 46.909374 317.09064Q46.3 317.59064 45.346874 317.59064Q44.1125 317.59064 43.39375 316.7Q42.55 315.6375 42.55 313.21564ZM43.628124 313.21564Q43.628124 315.325 44.128124 316.02814Q44.628124 316.73126 45.346874 316.73126Q46.08125 316.73126 46.565624 316.02814Q47.065624 315.325 47.065624 313.21564Q47.065624 311.09064 46.565624 310.40314Q46.08125 309.7 45.33125 309.7Q44.6125 309.7 44.175 310.3094Q43.628124 311.09064 43.628124 313.21564Z" fill-rule="nonzero"/><path fill="#000000" d="M137.41354 316.4344L137.41354 317.45L131.72604 317.45Q131.72604 317.075 131.85104 316.71564Q132.0698 316.1375 132.53854 315.575Q133.02292 315.0125 133.92917 314.27814Q135.33542 313.1219 135.8198 312.45Q136.3198 311.77814 136.3198 311.1844Q136.3198 310.5594 135.86667 310.1375Q135.41354 309.7 134.6948 309.7Q133.92917 309.7 133.47604 310.15314Q133.02292 310.60626 133.0073 311.41876L131.92917 311.3094Q132.03854 310.09064 132.7573 309.46564Q133.49167 308.825 134.72604 308.825Q135.96042 308.825 136.67917 309.5125Q137.39792 310.2 137.39792 311.21564Q137.39792 311.73126 137.17917 312.23126Q136.97604 312.71564 136.47604 313.27814Q135.99167 313.825 134.86667 314.77814Q133.91354 315.575 133.6323 315.8719Q133.36667 316.15314 133.1948 316.4344L137.41354 316.4344Z" fill-rule="nonzero"/><path fill="#000000" d="M224.55833 317.45L224.55833 315.3875L220.83958 315.3875L220.83958 314.41876L224.76146 308.85626L225.62083 308.85626L225.62083 314.41876L226.77708 314.41876L226.77708 315.3875L225.62083 315.3875L225.62083 317.45L224.55833 317.45ZM224.55833 314.41876L224.55833 310.5594L221.87083 314.41876L224.55833 314.41876Z" fill-rule="nonzero"/><path fill="#000000" d="M315.96875 310.96564L314.92188 311.04376Q314.78125 310.41876 314.53125 310.1375Q314.09375 309.6844 313.46875 309.6844Q312.96875 309.6844 312.57812 309.96564Q312.09375 310.34064 311.79688 311.04376Q311.51562 311.73126 311.5 313.0125Q311.875 312.4344 312.42188 312.15314Q312.98438 311.8719 313.59375 311.8719Q314.64062 311.8719 315.375 312.65314Q316.125 313.4344 316.125 314.65314Q316.125 315.46564 315.76562 316.16876Q315.42188 316.85626 314.8125 317.23126Q314.20312 317.59064 313.4375 317.59064Q312.10938 317.59064 311.28125 316.6219Q310.45312 315.65314 310.45312 313.4344Q310.45312 310.9344 311.375 309.8094Q312.17188 308.825 313.53125 308.825Q314.54688 308.825 315.1875 309.40314Q315.84375 309.96564 315.96875 310.96564ZM311.67188 314.66876Q311.67188 315.21564 311.89062 315.71564Q312.125 316.2 312.53125 316.46564Q312.95312 316.73126 313.42188 316.73126Q314.07812 316.73126 314.5625 316.2Q315.04688 315.65314 315.04688 314.73126Q315.04688 313.84064 314.5625 313.325Q314.09375 312.8094 313.375 312.8094Q312.65625 312.8094 312.15625 313.325Q311.67188 313.84064 311.67188 314.66876Z" fill-rule="nonzero"/><path fill="#000000" d="M401.44168 312.79376Q400.78543 312.54376 400.4573 312.10626Q400.1448 311.65314 400.1448 311.04376Q400.1448 310.10626 400.81668 309.46564Q401.50418 308.825 402.61356 308.825Q403.73856 308.825 404.42606 309.48126Q405.11356 310.1375 405.11356 311.075Q405.11356 311.66876 404.80106 312.10626Q404.48856 312.54376 403.84793 312.79376Q404.6448 313.04376 405.05106 313.6219Q405.4573 314.2 405.4573 314.9969Q405.4573 316.09064 404.67606 316.84064Q403.91043 317.59064 402.62918 317.59064Q401.36356 317.59064 400.5823 316.84064Q399.80106 316.09064 399.80106 314.96564Q399.80106 314.1219 400.22293 313.5594Q400.66043 312.9969 401.44168 312.79376ZM401.22293 310.9969Q401.22293 311.60626 401.61356 311.9969Q402.0198 312.3875 402.6448 312.3875Q403.25418 312.3875 403.6448 312.0125Q404.03543 311.6219 404.03543 311.0594Q404.03543 310.48126 403.62918 310.09064Q403.22293 309.6844 402.62918 309.6844Q402.0198 309.6844 401.61356 310.075Q401.22293 310.46564 401.22293 310.9969ZM400.8948 314.96564Q400.8948 315.41876 401.09793 315.84064Q401.31668 316.2625 401.73856 316.4969Q402.16043 316.73126 402.6448 316.73126Q403.3948 316.73126 403.87918 316.2469Q404.37918 315.7625 404.37918 315.0125Q404.37918 314.2469 403.87918 313.7469Q403.37918 313.2469 402.61356 313.2469Q401.86356 313.2469 401.37918 313.7469Q400.8948 314.23126 400.8948 314.96564Z" fill-rule="nonzero"/><path fill="#000000" d="M489.60208 317.45L488.5552 317.45L488.5552 310.73126Q488.16458 311.09064 487.53958 311.46564Q486.9302 311.825 486.44583 311.9969L486.44583 310.98126Q487.32083 310.5594 487.97708 309.98126Q488.64896 309.3875 488.9302 308.825L489.60208 308.825L489.60208 317.45ZM492.63333 313.21564Q492.63333 311.6844 492.94583 310.7625Q493.25833 309.825 493.8677 309.325Q494.4927 308.825 495.4302 308.825Q496.1177 308.825 496.63333 309.10626Q497.16458 309.3875 497.50833 309.91876Q497.85208 310.4344 498.03958 311.1844Q498.22708 311.9344 498.22708 313.21564Q498.22708 314.73126 497.91458 315.65314Q497.6177 316.575 496.9927 317.09064Q496.38333 317.59064 495.4302 317.59064Q494.19583 317.59064 493.47708 316.7Q492.63333 315.6375 492.63333 313.21564ZM493.71146 313.21564Q493.71146 315.325 494.21146 316.02814Q494.71146 316.73126 495.4302 316.73126Q496.16458 316.73126 496.64896 316.02814Q497.14896 315.325 497.14896 313.21564Q497.14896 311.09064 496.64896 310.40314Q496.16458 309.7 495.41458 309.7Q494.69583 309.7 494.25833 310.3094Q493.71146 311.09064 493.71146 313.21564Z" fill-rule="nonzero"/><path fill="#000000" d="M578.91876 317.45L577.8719 317.45L577.8719 310.73126Q577.48126 311.09064 576.85626 311.46564Q576.2469 311.825 575.7625 311.9969L575.7625 310.98126Q576.6375 310.5594 577.29376 309.98126Q577.96564 309.3875 578.2469 308.825L578.91876 308.825L578.91876 317.45ZM587.4969 316.4344L587.4969 317.45L581.8094 317.45Q581.8094 317.075 581.9344 316.71564Q582.15314 316.1375 582.6219 315.575Q583.10626 315.0125 584.0125 314.27814Q585.41876 313.1219 585.90314 312.45Q586.40314 311.77814 586.40314 311.1844Q586.40314 310.5594 585.95 310.1375Q585.4969 309.7 584.77814 309.7Q584.0125 309.7 583.5594 310.15314Q583.10626 310.60626 583.09064 311.41876L582.0125 311.3094Q582.1219 310.09064 582.84064 309.46564Q583.575 308.825 584.8094 308.825Q586.04376 308.825 586.7625 309.5125Q587.48126 310.2 587.48126 311.21564Q587.48126 311.73126 587.2625 312.23126Q587.0594 312.71564 586.5594 313.27814Q586.075 313.825 584.95 314.77814Q583.9969 315.575 583.71564 315.8719Q583.45 316.15314 583.27814 316.4344L587.4969 316.4344Z" fill-rule="nonzero"/><path stroke="#4285f4" stroke-width="4.0" stroke-linecap="butt" d="M155.5 25.55L167.5 25.55" fill-rule="nonzero"/><path fill="#1a1a1a" d="M176.42188 29.55L176.42188 20.95625L179.67188 20.95625Q180.51562 20.95625 180.96875 21.034374Q181.60938 21.14375 182.03125 21.440624Q182.46875 21.7375 182.71875 22.26875Q182.98438 22.8 182.98438 23.440624Q182.98438 24.534374 182.28125 25.3Q181.59375 26.05 179.76562 26.05L177.5625 26.05L177.5625 29.55L176.42188 29.55ZM177.5625 25.05L179.78125 25.05Q180.89062 25.05 181.34375 24.64375Q181.8125 24.221874 181.8125 23.471874Q181.8125 22.940624 181.53125 22.565624Q181.26562 22.175 180.82812 22.05Q180.53125 21.971874 179.76562 21.971874L177.5625 21.971874L177.5625 25.05ZM188.35938 28.784374Q187.76562 29.284374 187.21875 29.4875Q186.6875 29.690624 186.0625 29.690624Q185.03125 29.690624 184.48438 29.190624Q183.9375 28.690624 183.9375 27.909374Q183.9375 27.45625 184.14062 27.08125Q184.34375 26.690624 184.6875 26.471874Q185.03125 26.2375 185.45312 26.128124Q185.75 26.034374 186.39062 25.95625Q187.65625 25.815624 188.26562 25.596874Q188.26562 25.378124 188.26562 25.33125Q188.26562 24.675 187.96875 24.409374Q187.5625 24.065624 186.76562 24.065624Q186.03125 24.065624 185.67188 24.33125Q185.3125 24.58125 185.14062 25.2375L184.10938 25.096874Q184.25 24.440624 184.57812 24.034374Q184.90625 23.628124 185.51562 23.409374Q186.125 23.190624 186.92188 23.190624Q187.71875 23.190624 188.21875 23.378124Q188.71875 23.565624 188.95312 23.846874Q189.1875 24.128124 189.28125 24.565624Q189.32812 24.83125 189.32812 25.534374L189.32812 26.940624Q189.32812 28.409374 189.39062 28.8Q189.46875 29.190624 189.67188 29.55L188.5625 29.55Q188.40625 29.221874 188.35938 28.784374ZM188.26562 26.425Q187.6875 26.659374 186.54688 26.83125Q185.89062 26.925 185.625 27.05Q185.35938 27.159374 185.20312 27.378124Q185.0625 27.596874 185.0625 27.878124Q185.0625 28.3 185.375 28.58125Q185.70312 28.8625 186.3125 28.8625Q186.92188 28.8625 187.39062 28.596874Q187.875 28.33125 188.09375 27.8625Q188.26562 27.503124 188.26562 26.815624L188.26562 26.425ZM191.28125 29.55L191.28125 23.33125L192.23438 23.33125L192.23438 24.26875Q192.59375 23.6125 192.89062 23.409374Q193.20312 23.190624 193.57812 23.190624Q194.10938 23.190624 194.65625 23.51875L194.29688 24.503124Q193.90625 24.26875 193.53125 24.26875Q193.17188 24.26875 192.89062 24.4875Q192.625 24.690624 192.51562 25.065624Q192.32812 25.628124 192.32812 26.284374L192.32812 29.55L191.28125 29.55ZM199.54688 27.55L200.64062 27.675Q200.39062 28.628124 199.6875 29.159374Q198.98438 29.690624 197.90625 29.690624Q196.54688 29.690624 195.73438 28.846874Q194.9375 28.003124 194.9375 26.4875Q194.9375 24.925 195.75 24.065624Q196.5625 23.190624 197.84375 23.190624Q199.09375 23.190624 199.875 24.034374Q200.67188 24.878124 200.67188 26.425Q200.67188 26.51875 200.67188 26.70625L196.03125 26.70625Q196.09375 27.7375 196.60938 28.284374Q197.125 28.815624 197.90625 28.815624Q198.48438 28.815624 198.89062 28.51875Q199.3125 28.20625 199.54688 27.55ZM196.09375 25.846874L199.5625 25.846874Q199.5 25.05 199.17188 24.659374Q198.65625 24.05 197.85938 24.05Q197.125 24.05 196.625 24.534374Q196.14062 25.01875 196.09375 25.846874ZM202.29688 29.55L202.29688 23.33125L203.23438 23.33125L203.23438 24.20625Q203.92188 23.190624 205.21875 23.190624Q205.78125 23.190624 206.25 23.39375Q206.73438 23.596874 206.96875 23.925Q207.20312 24.253124 207.29688 24.690624Q207.34375 24.9875 207.34375 25.721874L207.34375 29.55L206.29688 29.55L206.29688 25.76875Q206.29688 25.1125 206.17188 24.8Q206.04688 24.4875 205.73438 24.3Q205.42188 24.096874 205.0 24.096874Q204.32812 24.096874 203.82812 24.534374Q203.34375 24.95625 203.34375 26.14375L203.34375 29.55L202.29688 29.55ZM211.59375 28.6125L211.75 29.534374Q211.29688 29.628124 210.95312 29.628124Q210.375 29.628124 210.0625 29.45625Q209.75 29.26875 209.60938 28.971874Q209.48438 28.675 209.48438 27.721874L209.48438 24.14375L208.71875 24.14375L208.71875 23.33125L209.48438 23.33125L209.48438 21.784374L210.53125 21.159374L210.53125 23.33125L211.59375 23.33125L211.59375 24.14375L210.53125 24.14375L210.53125 27.784374Q210.53125 28.2375 210.57812 28.3625Q210.64062 28.4875 210.76562 28.565624Q210.89062 28.64375 211.125 28.64375Q211.3125 28.64375 211.59375 28.6125Z" fill-rule="nonzero"/><path stroke="#ea4335" stroke-width="4.0" stroke-linecap="butt" d="M227.5 25.55L239.5 25.55" fill-rule="nonzero"/><path fill="#1a1a1a" d="M252.45312 26.175L252.45312 25.175L256.07812 25.159374L256.07812 28.346874Q255.25 29.01875 254.35938 29.3625Q253.46875 29.690624 252.53125 29.690624Q251.26562 29.690624 250.21875 29.159374Q249.1875 28.6125 248.65625 27.596874Q248.14062 26.565624 248.14062 25.3Q248.14062 24.034374 248.65625 22.95625Q249.1875 21.8625 250.17188 21.346874Q251.15625 20.815624 252.4375 20.815624Q253.375 20.815624 254.125 21.1125Q254.875 21.409374 255.29688 21.95625Q255.73438 22.4875 255.95312 23.3625L254.9375 23.64375Q254.73438 22.9875 254.4375 22.6125Q254.15625 22.2375 253.625 22.01875Q253.09375 21.784374 252.45312 21.784374Q251.67188 21.784374 251.09375 22.01875Q250.53125 22.253124 250.17188 22.64375Q249.82812 23.034374 249.64062 23.503124Q249.3125 24.3 249.3125 25.221874Q249.3125 26.378124 249.70312 27.159374Q250.10938 27.925 250.85938 28.3Q251.60938 28.675 252.46875 28.675Q253.20312 28.675 253.90625 28.39375Q254.60938 28.096874 254.96875 27.784374L254.96875 26.175L252.45312 26.175ZM257.42188 29.55L257.42188 20.95625L260.67188 20.95625Q261.51562 20.95625 261.96875 21.034374Q262.60938 21.14375 263.03125 21.440624Q263.46875 21.7375 263.71875 22.26875Q263.98438 22.8 263.98438 23.440624Q263.98438 24.534374 263.28125 25.3Q262.59375 26.05 260.76562 26.05L258.5625 26.05L258.5625 29.55L257.42188 29.55ZM258.5625 25.05L260.78125 25.05Q261.89062 25.05 262.34375 24.64375Q262.8125 24.221874 262.8125 23.471874Q262.8125 22.940624 262.53125 22.565624Q262.26562 22.175 261.82812 22.05Q261.53125 21.971874 260.76562 21.971874L258.5625 21.971874L258.5625 25.05ZM269.35938 28.784374Q268.76562 29.284374 268.21875 29.4875Q267.6875 29.690624 267.0625 29.690624Q266.03125 29.690624 265.48438 29.190624Q264.9375 28.690624 264.9375 27.909374Q264.9375 27.45625 265.14062 27.08125Q265.34375 26.690624 265.6875 26.471874Q266.03125 26.2375 266.45312 26.128124Q266.75 26.034374 267.39062 25.95625Q268.65625 25.815624 269.26562 25.596874Q269.26562 25.378124 269.26562 25.33125Q269.26562 24.675 268.96875 24.409374Q268.5625 24.065624 267.76562 24.065624Q267.03125 24.065624 266.67188 24.33125Q266.3125 24.58125 266.14062 25.2375L265.10938 25.096874Q265.25 24.440624 265.57812 24.034374Q265.90625 23.628124 266.51562 23.409374Q267.125 23.190624 267.92188 23.190624Q268.71875 23.190624 269.21875 23.378124Q269.71875 23.565624 269.95312 23.846874Q270.1875 24.128124 270.28125 24.565624Q270.32812 24.83125 270.32812 25.534374L270.32812 26.940624Q270.32812 28.409374 270.39062 28.8Q270.46875 29.190624 270.67188 29.55L269.5625 29.55Q269.40625 29.221874 269.35938 28.784374ZM269.26562 26.425Q268.6875 26.659374 267.54688 26.83125Q266.89062 26.925 266.625 27.05Q266.35938 27.159374 266.20312 27.378124Q266.0625 27.596874 266.0625 27.878124Q266.0625 28.3 266.375 28.58125Q266.70312 28.8625 267.3125 28.8625Q267.92188 28.8625 268.39062 28.596874Q268.875 28.33125 269.09375 27.8625Q269.26562 27.503124 269.26562 26.815624L269.26562 26.425ZM272.28125 29.55L272.28125 23.33125L273.23438 23.33125L273.23438 24.26875Q273.59375 23.6125 273.89062 23.409374Q274.20312 23.190624 274.57812 23.190624Q275.10938 23.190624 275.65625 23.51875L275.29688 24.503124Q274.90625 24.26875 274.53125 24.26875Q274.17188 24.26875 273.89062 24.4875Q273.625 24.690624 273.51562 25.065624Q273.32812 25.628124 273.32812 26.284374L273.32812 29.55L272.28125 29.55ZM280.54688 27.55L281.64062 27.675Q281.39062 28.628124 280.6875 29.159374Q279.98438 29.690624 278.90625 29.690624Q277.54688 29.690624 276.73438 28.846874Q275.9375 28.003124 275.9375 26.4875Q275.9375 24.925 276.75 24.065624Q277.5625 23.190624 278.84375 23.190624Q280.09375 23.190624 280.875 24.034374Q281.67188 24.878124 281.67188 26.425Q281.67188 26.51875 281.67188 26.70625L277.03125 26.70625Q277.09375 27.7375 277.60938 28.284374Q278.125 28.815624 278.90625 28.815624Q279.48438 28.815624 279.89062 28.51875Q280.3125 28.20625 280.54688 27.55ZM277.09375 25.846874L280.5625 25.846874Q280.5 25.05 280.17188 24.659374Q279.65625 24.05 278.85938 24.05Q278.125 24.05 277.625 24.534374Q277.14062 25.01875 277.09375 25.846874ZM283.29688 29.55L283.29688 23.33125L284.23438 23.33125L284.23438 24.20625Q284.92188 23.190624 286.21875 23.190624Q286.78125 23.190624 287.25 23.39375Q287.73438 23.596874 287.96875 23.925Q288.20312 24.253124 288.29688 24.690624Q288.34375 24.9875 288.34375 25.721874L288.34375 29.55L287.29688 29.55L287.29688 25.76875Q287.29688 25.1125 287.17188 24.8Q287.04688 24.4875 286.73438 24.3Q286.42188 24.096874 286.0 24.096874Q285.32812 24.096874 284.82812 24.534374Q284.34375 24.95625 284.34375 26.14375L284.34375 29.55L283.29688 29.55ZM292.59375 28.6125L292.75 29.534374Q292.29688 29.628124 291.95312 29.628124Q291.375 29.628124 291.0625 29.45625Q290.75 29.26875 290.60938 28.971874Q290.48438 28.675 290.48438 27.721874L290.48438 24.14375L289.71875 24.14375L289.71875 23.33125L290.48438 23.33125L290.48438 21.784374L291.53125 21.159374L291.53125 23.33125L292.59375 23.33125L292.59375 24.14375L291.53125 24.14375L291.53125 27.784374Q291.53125 28.2375 291.57812 28.3625Q291.64062 28.4875 291.76562 28.565624Q291.89062 28.64375 292.125 28.64375Q292.3125 28.64375 292.59375 28.6125Z" fill-rule="nonzero"/><path stroke="#fbbc04" stroke-width="4.0" stroke-linecap="butt" d="M308.5 25.55L320.5 25.55" fill-rule="nonzero"/><path fill="#1a1a1a" d="M333.45312 26.175L333.45312 25.175L337.07812 25.159374L337.07812 28.346874Q336.25 29.01875 335.35938 29.3625Q334.46875 29.690624 333.53125 29.690624Q332.26562 29.690624 331.21875 29.159374Q330.1875 28.6125 329.65625 27.596874Q329.14062 26.565624 329.14062 25.3Q329.14062 24.034374 329.65625 22.95625Q330.1875 21.8625 331.17188 21.346874Q332.15625 20.815624 333.4375 20.815624Q334.375 20.815624 335.125 21.1125Q335.875 21.409374 336.29688 21.95625Q336.73438 22.4875 336.95312 23.3625L335.9375 23.64375Q335.73438 22.9875 335.4375 22.6125Q335.15625 22.2375 334.625 22.01875Q334.09375 21.784374 333.45312 21.784374Q332.67188 21.784374 332.09375 22.01875Q331.53125 22.253124 331.17188 22.64375Q330.82812 23.034374 330.64062 23.503124Q330.3125 24.3 330.3125 25.221874Q330.3125 26.378124 330.70312 27.159374Q331.10938 27.925 331.85938 28.3Q332.60938 28.675 333.46875 28.675Q334.20312 28.675 334.90625 28.39375Q335.60938 28.096874 335.96875 27.784374L335.96875 26.175L333.45312 26.175ZM342.45312 26.175L342.45312 25.175L346.07812 25.159374L346.07812 28.346874Q345.25 29.01875 344.35938 29.3625Q343.46875 29.690624 342.53125 29.690624Q341.26562 29.690624 340.21875 29.159374Q339.1875 28.6125 338.65625 27.596874Q338.14062 26.565624 338.14062 25.3Q338.14062 24.034374 338.65625 22.95625Q339.1875 21.8625 340.17188 21.346874Q341.15625 20.815624 342.4375 20.815624Q343.375 20.815624 344.125 21.1125Q344.875 21.409374 345.29688 21.95625Q345.73438 22.4875 345.95312 23.3625L344.9375 23.64375Q344.73438 22.9875 344.4375 22.6125Q344.15625 22.2375 343.625 22.01875Q343.09375 21.784374 342.45312 21.784374Q341.67188 21.784374 341.09375 22.01875Q340.53125 22.253124 340.17188 22.64375Q339.82812 23.034374 339.64062 23.503124Q339.3125 24.3 339.3125 25.221874Q339.3125 26.378124 339.70312 27.159374Q340.10938 27.925 340.85938 28.3Q341.60938 28.675 342.46875 28.675Q343.20312 28.675 343.90625 28.39375Q344.60938 28.096874 344.96875 27.784374L344.96875 26.175L342.45312 26.175ZM347.42188 29.55L347.42188 20.95625L350.67188 20.95625Q351.51562 20.95625 351.96875 21.034374Q352.60938 21.14375 353.03125 21.440624Q353.46875 21.7375 353.71875 22.26875Q353.98438 22.8 353.98438 23.440624Q353.98438 24.534374 353.28125 25.3Q352.59375 26.05 350.76562 26.05L348.5625 26.05L348.5625 29.55L347.42188 29.55ZM348.5625 25.05L350.78125 25.05Q351.89062 25.05 352.34375 24.64375Q352.8125 24.221874 352.8125 23.471874Q352.8125 22.940624 352.53125 22.565624Q352.26562 22.175 351.82812 22.05Q351.53125 21.971874 350.76562 21.971874L348.5625 21.971874L348.5625 25.05ZM359.35938 28.784374Q358.76562 29.284374 358.21875 29.4875Q357.6875 29.690624 357.0625 29.690624Q356.03125 29.690624 355.48438 29.190624Q354.9375 28.690624 354.9375 27.909374Q354.9375 27.45625 355.14062 27.08125Q355.34375 26.690624 355.6875 26.471874Q356.03125 26.2375 356.45312 26.128124Q356.75 26.034374 357.39062 25.95625Q358.65625 25.815624 359.26562 25.596874Q359.26562 25.378124 359.26562 25.33125Q359.26562 24.675 358.96875 24.409374Q358.5625 24.065624 357.76562 24.065624Q357.03125 24.065624 356.67188 24.33125Q356.3125 24.58125 356.14062 25.2375L355.10938 25.096874Q355.25 24.440624 355.57812 24.034374Q355.90625 23.628124 356.51562 23.409374Q357.125 23.190624 357.92188 23.190624Q358.71875 23.190624 359.21875 23.378124Q359.71875 23.565624 359.95312 23.846874Q360.1875 24.128124 360.28125 24.565624Q360.32812 24.83125 360.32812 25.534374L360.32812 26.940624Q360.32812 28.409374 360.39062 28.8Q360.46875 29.190624 360.67188 29.55L359.5625 29.55Q359.40625 29.221874 359.35938 28.784374ZM359.26562 26.425Q358.6875 26.659374 357.54688 26.83125Q356.89062 26.925 356.625 27.05Q356.35938 27.159374 356.20312 27.378124Q356.0625 27.596874 356.0625 27.878124Q356.0625 28.3 356.375 28.58125Q356.70312 28.8625 357.3125 28.8625Q357.92188 28.8625 358.39062 28.596874Q358.875 28.33125 359.09375 27.8625Q359.26562 27.503124 359.26562 26.815624L359.26562 26.425ZM362.28125 29.55L362.28125 23.33125L363.23438 23.33125L363.23438 24.26875Q363.59375 23.6125 363.89062 23.409374Q364.20312 23.190624 364.57812 23.190624Q365.10938 23.190624 365.65625 23.51875L365.29688 24.503124Q364.90625 24.26875 364.53125 24.26875Q364.17188 24.26875 363.89062 24.4875Q363.625 24.690624 363.51562 25.065624Q363.32812 25.628124 363.32812 26.284374L363.32812 29.55L362.28125 29.55ZM370.54688 27.55L371.64062 27.675Q371.39062 28.628124 370.6875 29.159374Q369.98438 29.690624 368.90625 29.690624Q367.54688 29.690624 366.73438 28.846874Q365.9375 28.003124 365.9375 26.4875Q365.9375 24.925 366.75 24.065624Q367.5625 23.190624 368.84375 23.190624Q370.09375 23.190624 370.875 24.034374Q371.67188 24.878124 371.67188 26.425Q371.67188 26.51875 371.67188 26.70625L367.03125 26.70625Q367.09375 27.7375 367.60938 28.284374Q368.125 28.815624 368.90625 28.815624Q369.48438 28.815624 369.89062 28.51875Q370.3125 28.20625 370.54688 27.55ZM367.09375 25.846874L370.5625 25.846874Q370.5 25.05 370.17188 24.659374Q369.65625 24.05 368.85938 24.05Q368.125 24.05 367.625 24.534374Q367.14062 25.01875 367.09375 25.846874ZM373.29688 29.55L373.29688 23.33125L374.23438 23.33125L374.23438 24.20625Q374.92188 23.190624 376.21875 23.190624Q376.78125 23.190624 377.25 23.39375Q377.73438 23.596874 377.96875 23.925Q378.20312 24.253124 378.29688 24.690624Q378.34375 24.9875 378.34375 25.721874L378.34375 29.55L377.29688 29.55L377.29688 25.76875Q377.29688 25.1125 377.17188 24.8Q377.04688 24.4875 376.73438 24.3Q376.42188 24.096874 376.0 24.096874Q375.32812 24.096874 374.82812 24.534374Q374.34375 24.95625 374.34375 26.14375L374.34375 29.55L373.29688 29.55ZM382.59375 28.6125L382.75 29.534374Q382.29688 29.628124 381.95312 29.628124Q381.375 29.628124 381.0625 29.45625Q380.75 29.26875 380.60938 28.971874Q380.48438 28.675 380.48438 27.721874L380.48438 24.14375L379.71875 24.14375L379.71875 23.33125L380.48438 23.33125L380.48438 21.784374L381.53125 21.159374L381.53125 23.33125L382.59375 23.33125L382.59375 24.14375L381.53125 24.14375L381.53125 27.784374Q381.53125 28.2375 381.57812 28.3625Q381.64062 28.4875 381.76562 28.565624Q381.89062 28.64375 382.125 28.64375Q382.3125 28.64375 382.59375 28.6125Z" fill-rule="nonzero"/><path stroke="#34a853" stroke-width="4.0" stroke-linecap="butt" d="M398.5 25.55L410.5 25.55" fill-rule="nonzero"/><path fill="#1a1a1a" d="M419.4375 29.55L419.4375 20.95625L423.25 20.95625Q424.40625 20.95625 425.0 21.190624Q425.59375 21.425 425.95312 22.01875Q426.3125 22.596874 426.3125 23.3Q426.3125 24.221874 425.71875 24.846874Q425.125 25.471874 423.89062 25.64375Q424.34375 25.8625 424.57812 26.065624Q425.07812 26.51875 425.51562 27.20625L427.01562 29.55L425.57812 29.55L424.45312 27.76875Q423.95312 26.9875 423.625 26.58125Q423.3125 26.175 423.04688 26.01875Q422.79688 25.846874 422.53125 25.76875Q422.34375 25.7375 421.90625 25.7375L420.57812 25.7375L420.57812 29.55L419.4375 29.55ZM420.57812 24.753124L423.03125 24.753124Q423.79688 24.753124 424.23438 24.596874Q424.6875 24.425 424.90625 24.08125Q425.14062 23.721874 425.14062 23.3Q425.14062 22.690624 424.6875 22.3Q424.25 21.909374 423.29688 21.909374L420.57812 21.909374L420.57812 24.753124ZM427.90625 26.440624Q427.90625 24.70625 428.85938 23.878124Q429.65625 23.190624 430.8125 23.190624Q432.09375 23.190624 432.90625 24.034374Q433.73438 24.8625 433.73438 26.346874Q433.73438 27.55 433.375 28.2375Q433.01562 28.925 432.3125 29.315624Q431.625 29.690624 430.8125 29.690624Q429.51562 29.690624 428.70312 28.8625Q427.90625 28.01875 427.90625 26.440624ZM428.98438 26.440624Q428.98438 27.628124 429.5 28.221874Q430.03125 28.815624 430.8125 28.815624Q431.60938 28.815624 432.125 28.221874Q432.64062 27.628124 432.64062 26.409374Q432.64062 25.253124 432.10938 24.659374Q431.59375 24.065624 430.8125 24.065624Q430.03125 24.065624 429.5 24.659374Q428.98438 25.2375 428.98438 26.440624ZM434.90625 26.440624Q434.90625 24.70625 435.85938 23.878124Q436.65625 23.190624 437.8125 23.190624Q439.09375 23.190624 439.90625 24.034374Q440.73438 24.8625 440.73438 26.346874Q440.73438 27.55 440.375 28.2375Q440.01562 28.925 439.3125 29.315624Q438.625 29.690624 437.8125 29.690624Q436.51562 29.690624 435.70312 28.8625Q434.90625 28.01875 434.90625 26.440624ZM435.98438 26.440624Q435.98438 27.628124 436.5 28.221874Q437.03125 28.815624 437.8125 28.815624Q438.60938 28.815624 439.125 28.221874Q439.64062 27.628124 439.64062 26.409374Q439.64062 25.253124 439.10938 24.659374Q438.59375 24.065624 437.8125 24.065624Q437.03125 24.065624 436.5 24.659374Q435.98438 25.2375 435.98438 26.440624ZM444.59375 28.6125L444.75 29.534374Q444.29688 29.628124 443.95312 29.628124Q443.375 29.628124 443.0625 29.45625Q442.75 29.26875 442.60938 28.971874Q442.48438 28.675 442.48438 27.721874L442.48438 24.14375L441.71875 24.14375L441.71875 23.33125L442.48438 23.33125L442.48438 21.784374L443.53125 21.159374L443.53125 23.33125L444.59375 23.33125L444.59375 24.14375L443.53125 24.14375L443.53125 27.784374Q443.53125 28.2375 443.57812 28.3625Q443.64062 28.4875 443.76562 28.565624Q443.89062 28.64375 444.125 28.64375Q444.3125 28.64375 444.59375 28.6125Z" fill-rule="nonzero"/></svg>